<?xml version="1.0" standalone="no"?>
<!DOCTYPE svg PUBLIC "-//W3C//DTD SVG 1.1//EN" "http://www.w3.org/Graphics/SVG/1.1/DTD/svg11.dtd" >
<svg xmlns="http://www.w3.org/2000/svg" xmlns:xlink="http://www.w3.org/1999/xlink" version="1.1">
<metadata>
Created by FontForge 20170731 at Fri Apr 10 14:15:46 2020
 By Aleksey,,,
Copyright @ 2020 by Philip Morris International. All rights reserved.
</metadata>
<defs>
<font id="NeulandGrotesk-MediumExpanded" horiz-adv-x="0" >
  <font-face 
    font-family="Neuland Grotesk Med Exp"
    font-weight="500"
    font-stretch="expanded"
    units-per-em="1000"
    panose-1="0 0 0 0 0 0 0 0 0 0"
    ascent="800"
    descent="-200"
    x-height="499"
    cap-height="700"
    bbox="-715 -550 1470 1010"
    underline-thickness="50"
    underline-position="-175"
    unicode-range="U+000D-FB05"
  />
<missing-glyph horiz-adv-x="467" 
d="M83 700h301v-951h-301v951zM311 -57v109h-158v-109h158zM221 -110l-68 -44v-32h158v32h-96l66 44h30v32h-158v-32h68zM153 215v-107h158v107h-94v-52h31v21h32v-45h-95v76h-32zM311 414v34h-63v65h-95v-99h158zM311 538v32h-63v35h63v30h-157v-30h63v-35h-64v-32h158z
M217 358v-36h-64v-32h95v68h63v31h-158v-31h64zM153 237h158v95h-31v-63h-127v-32zM185 -24v43h95v-43h-95zM185 448v33h32v-33h-32z" />
    <glyph glyph-name=".notdef" horiz-adv-x="467" 
d="M83 700h301v-951h-301v951zM311 -57v109h-158v-109h158zM221 -110l-68 -44v-32h158v32h-96l66 44h30v32h-158v-32h68zM153 215v-107h158v107h-94v-52h31v21h32v-45h-95v76h-32zM311 414v34h-63v65h-95v-99h158zM311 538v32h-63v35h63v30h-157v-30h63v-35h-64v-32h158z
M217 358v-36h-64v-32h95v68h63v31h-158v-31h64zM153 237h158v95h-31v-63h-127v-32zM185 -24v43h95v-43h-95zM185 448v33h32v-33h-32z" />
    <glyph glyph-name=".null" 
 />
    <glyph glyph-name=".null" 
 />
    <glyph glyph-name="uni000D" unicode="&#xd;" horiz-adv-x="250" 
 />
    <glyph glyph-name="space" unicode=" " horiz-adv-x="250" 
 />
    <glyph glyph-name="exclam" unicode="!" horiz-adv-x="235" 
d="M70 102h95v-102h-95v102zM70 701h95l-18 -523h-59z" />
    <glyph glyph-name="quotedbl" unicode="&#x22;" horiz-adv-x="365" 
d="M297 700l-15 -242h-59l-15 242h89zM157 700l-15 -242h-59l-15 242h89z" />
    <glyph glyph-name="numbersign" unicode="#" horiz-adv-x="691" 
d="M25 295h144l36 126h-124v78h147l58 201h79l-59 -201h152l58 201h79l-59 -201h130v-78h-152l-37 -126h133v-78h-156l-63 -217h-78l63 217h-152l-63 -217h-78l63 217h-121v78zM247 295h152l36 126h-151z" />
    <glyph glyph-name="dollar" unicode="$" horiz-adv-x="758" 
d="M37 143l71 45q31 -32 59 -52.5t58 -32.5t65.5 -16.5t82.5 -4.5q30 0 74 3.5t84.5 16.5t69.5 39t29 71q0 38 -21 59.5t-56 33.5t-80.5 17t-94.5 8q-57 4 -113 10.5t-100.5 24t-72 50.5t-27.5 90q0 55 25.5 92t64.5 59.5t86.5 32.5t92.5 13v99h90v-99q79 -5 153.5 -35.5
t133.5 -86.5l-73 -53q-30 29 -58.5 48t-59.5 30.5t-65.5 16.5t-75.5 5q-27 0 -65 -4.5t-73.5 -17t-60.5 -36t-25 -62.5q0 -26 12 -42t30 -25t39.5 -13t41.5 -6l71 -5q57 -3 122.5 -10t120.5 -27t91.5 -59.5t36.5 -107.5q0 -59 -28 -99t-71.5 -64t-96 -35t-100.5 -13v-99h-90
v99q-93 5 -165 37.5t-132 104.5z" />
    <glyph glyph-name="percent" unicode="%" horiz-adv-x="1083" 
d="M240 708q54 0 93.5 -18t64.5 -49.5t37 -74t12 -91.5t-12 -92t-37 -74.5t-64.5 -49.5t-93.5 -18q-53 0 -92.5 17.5t-65.5 48.5t-39 74t-13 94t13 94t39 74t65.5 48t92.5 17zM638 212v31q0 106 58 160.5t152 54.5q55 0 93.5 -18t63 -49.5t35.5 -73t11 -89.5
q0 -44 -10 -86.5t-34.5 -76.5t-65.5 -54.5t-102 -20.5q-103 0 -152 60t-49 162zM239 307q72 0 102 46t30 123q0 35 -6.5 65.5t-21.5 53t-40 35t-63 12.5q-72 0 -102.5 -45t-30.5 -123q0 -37 7 -67.5t22.5 -52.5t40.5 -34.5t62 -12.5zM845 59q72 0 101 46t29 120
q0 37 -7 67.5t-22.5 52.5t-40.5 34.5t-61 12.5q-37 0 -62 -13t-40 -35.5t-21 -53t-6 -65.5q0 -78 29.5 -122t100.5 -44zM729 719l54 -36l-433 -702l-51 36z" />
    <glyph glyph-name="ampersand" unicode="&#x26;" horiz-adv-x="802" 
d="M45 180q0 38 15.5 67.5t41 52t58 40t67.5 30.5q-12 17 -26 39.5t-25.5 46.5t-19.5 47.5t-8 44.5q0 42 17.5 72.5t46 50t64.5 29t74 9.5q33 0 68.5 -7.5t64.5 -24t47.5 -42.5t18.5 -64q0 -41 -21.5 -76t-54 -63t-69.5 -49t-68 -33q48 -53 109.5 -110.5t117.5 -101.5
q46 40 60.5 92t16.5 111l68 -6q-2 -34 -7 -67.5t-16 -64t-29.5 -57t-47.5 -48.5q40 -27 72 -37.5t75 -10.5h10.5t11.5 1v-58q-2 -1 -4.5 -1t-6.5 -1l-15 1q-55 0 -104.5 13.5t-97.5 46.5q-48 -32 -105 -46t-110 -14q-42 0 -92.5 9.5t-94 31t-73 57.5t-29.5 90zM316 58
q49 0 94.5 4.5t87.5 30.5q-63 54 -124 109.5t-117 117.5q-61 -23 -99 -54.5t-38 -84.5q0 -38 19 -62t48.5 -37.5t64 -18.5t64.5 -5zM214 555q0 -22 8.5 -44.5t21 -43.5t27 -40t27.5 -34q28 9 59.5 23.5t58.5 35t45 46.5t18 57q0 26 -13 44.5t-33 30t-44 16.5t-46 5t-45 -5.5
t-41.5 -17t-30.5 -29.5t-12 -44z" />
    <glyph glyph-name="quotesingle" unicode="'" horiz-adv-x="225" 
d="M68 700h89l-15 -242h-59z" />
    <glyph glyph-name="parenleft" unicode="(" horiz-adv-x="321" 
d="M35 246q0 218 192 435h69q-80 -103 -125.5 -211t-45.5 -224q0 -117 45.5 -224t125.5 -212h-69q-192 221 -192 436z" />
    <glyph glyph-name="parenright" unicode=")" horiz-adv-x="321" 
d="M94 681q192 -217 192 -435q0 -215 -192 -436h-69q80 105 125.5 212t45.5 224q0 116 -45.5 224t-125.5 211h69z" />
    <glyph glyph-name="asterisk" unicode="*" horiz-adv-x="399" 
d="M128 381l-62 44l93 109l-134 30l24 73l124 -53l-13 133h78l-12 -133l125 53l23 -73l-133 -30l95 -109l-62 -44l-74 121z" />
    <glyph glyph-name="plus" unicode="+" horiz-adv-x="600" 
d="M82 316v78h178v177h80v-177h178v-78h-178v-181h-80v181h-178z" />
    <glyph glyph-name="comma" unicode="," horiz-adv-x="206" 
d="M151 104v-94q0 -49 -11 -83.5t-44 -66.5l-36 29q26 26 34.5 45.5t8.5 47.5v18h-49v104h97z" />
    <glyph glyph-name="hyphen" unicode="-" horiz-adv-x="360" 
d="M40 338h280v-72h-280v72z" />
    <glyph glyph-name="period" unicode="." horiz-adv-x="211" 
d="M58 102h95v-102h-95v102z" />
    <glyph glyph-name="slash" unicode="/" horiz-adv-x="398" 
d="M278 609h78l-251 -706h-77z" />
    <glyph glyph-name="zero" unicode="0" horiz-adv-x="773" 
d="M386 -14q-84 0 -147 28t-105 77.5t-63 116t-21 143.5q0 76 21 142.5t63 116t105 78.5t147 29t147 -29t105 -78.5t63.5 -116.5t21.5 -142q0 -76 -21 -143t-63.5 -116t-105.5 -77.5t-147 -28.5zM387 56q65 0 112.5 25.5t78.5 66.5t45.5 94.5t14.5 108.5q0 56 -14.5 109
t-45.5 94.5t-78 67t-113 25.5t-113.5 -25.5t-78.5 -67t-46 -94.5t-15 -109t15 -109t46 -94.5t78.5 -66.5t113.5 -25z" />
    <glyph glyph-name="one" unicode="1" horiz-adv-x="384" 
d="M20 581q74 16 119.5 45.5t73.5 74.5h61v-699h-79v572q-29 -24 -71 -39t-93 -21z" />
    <glyph glyph-name="two" unicode="2" horiz-adv-x="660" 
d="M313 700q69 0 122.5 -19.5t90 -52.5t55.5 -76t19 -89t-37 -94.5t-91.5 -94t-117 -87t-113.5 -74.5l-68 -43h447v-70h-557v80l198 132q74 49 124.5 83.5t81 62.5t44 53.5t13.5 56.5q0 33 -13.5 62t-39.5 51.5t-62.5 35.5t-83.5 13q-95 0 -150.5 -36.5t-55.5 -112.5v-16
q0 -5 1 -11t5 -17l-90 23q0 52 19 96t54.5 76t87 50t117.5 18z" />
    <glyph glyph-name="three" unicode="3" horiz-adv-x="675" 
d="M109 231q10 -92 71 -134.5t168 -42.5q45 0 83 10.5t66.5 30t44.5 47t16 61.5q0 68 -62.5 101.5t-174.5 33.5h-63v57h63q98 0 154 24.5t56 84.5q0 58 -51.5 94.5t-139.5 36.5q-33 0 -64 -6t-57 -20t-44.5 -38.5t-26.5 -60.5q-3 -9 -3 -22q0 -6 1 -8l-81 15q2 44 21.5 81.5
t55.5 65t86.5 43t114.5 15.5q123 0 190.5 -54.5t67.5 -139.5q0 -49 -26 -83.5t-90 -54.5q44 -6 73 -21.5t46 -38t24 -51t7 -61.5q0 -43 -21.5 -81t-59.5 -66.5t-90.5 -44.5t-114.5 -16q-149 0 -228.5 60.5t-85.5 172.5z" />
    <glyph glyph-name="four" unicode="4" horiz-adv-x="677" 
d="M38 171v56q33 46 60 102t46 117t29.5 123.5t10.5 121.5h79q0 -56 -11 -117.5t-31 -122.5t-47 -117t-59 -100h334v309h75v-309h123v-63h-123v-171h-75v171h-411z" />
    <glyph glyph-name="five" unicode="5" horiz-adv-x="739" 
d="M70 184l88 14q9 -31 26.5 -57.5t45 -45.5t65.5 -29.5t88 -10.5q45 0 85 13.5t69.5 38t47 59.5t17.5 78q0 82 -61 125t-166 43q-72 0 -123.5 -32t-77.5 -86l-75 9l22 385h500v-69h-423l-13 -217q36 35 83.5 56t116.5 21q64 0 118 -17.5t93 -49t61 -75.5t22 -96
q0 -39 -14 -83t-48.5 -82t-91 -63t-142.5 -25q-136 0 -212 51t-101 145z" />
    <glyph glyph-name="six" unicode="6" horiz-adv-x="701" 
d="M50 315q0 189 87.5 287t255.5 98q94 0 158 -43t87 -109l-77 -24q-7 48 -53.5 79t-126.5 31q-115 0 -180.5 -72.5t-65.5 -224.5q31 51 94.5 80t148.5 29q62 0 114 -16.5t90 -46.5t59 -72t21 -93t-21.5 -93.5t-60 -73t-92 -47t-118.5 -16.5q-151 0 -235.5 86.5t-84.5 240.5
zM143 226q0 -39 18.5 -70.5t50 -54t74 -35t90.5 -12.5q45 0 83 11t66 31.5t43.5 50.5t15.5 68q0 41 -17 71.5t-46.5 51.5t-68 31.5t-80.5 10.5q-52 0 -94.5 -14.5t-72.5 -37t-46 -50t-16 -52.5z" />
    <glyph glyph-name="seven" unicode="7" horiz-adv-x="637" 
d="M30 623v77h562v-58q-139 -152 -215 -311t-96 -331h-88q14 90 37 171t58 156.5t84.5 148t116.5 147.5h-459z" />
    <glyph glyph-name="eight" unicode="8" horiz-adv-x="686" 
d="M40 195q0 66 46 110.5t131 62.5q-71 19 -107.5 61t-36.5 96q0 41 20 75t56 58t86 37.5t109 13.5t109 -13.5t86 -37.5t56 -57t20 -73q0 -54 -37 -96.5t-105 -60.5q78 -17 125.5 -64.5t47.5 -113.5q0 -45 -22 -82t-62 -64t-95.5 -42t-122.5 -15q-66 0 -122 15t-96.5 42
t-63 65t-22.5 83zM117 202q0 -34 17.5 -61t48 -45.5t71.5 -28t88 -9.5q48 0 90 10t72.5 28.5t48 46t17.5 62.5q0 66 -60 97.5t-163 31.5q-106 0 -168 -33t-62 -99zM152 523q0 -55 50 -88t142 -33t142 34t50 94q0 25 -17 46t-44.5 36t-61.5 23.5t-69 8.5q-87 0 -139.5 -31.5
t-52.5 -89.5z" />
    <glyph glyph-name="nine" unicode="9" horiz-adv-x="701" 
d="M39 471q0 51 21.5 93t60 72.5t92.5 47t119 16.5q150 0 234.5 -86.5t84.5 -240.5q0 -189 -87.5 -287t-255.5 -98q-94 0 -158 43t-87 109l77 24q7 -48 53.5 -79t126.5 -31q115 0 180.5 72.5t65.5 224.5q-31 -51 -94.5 -80t-148.5 -29q-62 0 -114 16.5t-90 46.5t-59 72.5
t-21 93.5zM329 308q52 0 94.5 14.5t72.5 37.5t46 50.5t16 52.5q0 39 -18.5 70.5t-50 54t-74 34.5t-90.5 12q-45 0 -83 -11t-65.5 -31.5t-43 -50.5t-15.5 -68q0 -40 17 -71t46 -52t67.5 -31.5t80.5 -10.5z" />
    <glyph glyph-name="colon" unicode=":" horiz-adv-x="211" 
d="M153 102v-102h-95v102h95zM58 361v101h95v-101h-95z" />
    <glyph glyph-name="semicolon" unicode=";" horiz-adv-x="210" 
d="M58 0v104h97v-94q0 -49 -11 -83.5t-44 -66.5l-36 29q26 26 34.5 45.5t8.5 47.5v18h-49zM54 464h95v-102h-95v102z" />
    <glyph glyph-name="less" unicode="&#x3c;" horiz-adv-x="610" 
d="M491 548l37 -66l-332 -130l332 -130l-35 -66l-411 174v44z" />
    <glyph glyph-name="equal" unicode="=" horiz-adv-x="600" 
d="M82 284h436v-78h-436v78zM518 500v-78h-436v78h436z" />
    <glyph glyph-name="greater" unicode="&#x3e;" horiz-adv-x="610" 
d="M82 222l332 130l-332 130l37 66l409 -174v-44l-411 -174z" />
    <glyph glyph-name="question" unicode="?" horiz-adv-x="642" 
d="M42 466q0 58 25 103.5t65 76.5t90 47.5t100 16.5q56 0 107.5 -14t91 -42t63 -69t23.5 -95q0 -32 -10 -58t-32.5 -48.5t-60 -43t-93.5 -42.5q-29 -12 -45 -24t-23.5 -29t-9 -41.5t-1.5 -60.5h-95v27q0 28 2 53.5t11.5 48t28 41t51.5 32.5l34 13q45 17 76 33t50 32
t27.5 33.5t8.5 37.5q0 32 -18 58t-46 44t-62.5 28t-66.5 10q-39 0 -76 -13.5t-66 -35t-46.5 -48t-17.5 -52.5q0 -13 2 -19l4 -29zM237 96h95v-96h-95v96z" />
    <glyph glyph-name="at" unicode="@" horiz-adv-x="1002" 
d="M50 212q0 103 34.5 188t96 145.5t147 93.5t187.5 33q96 0 176.5 -29.5t138 -84t90 -131.5t32.5 -173q0 -40 -7 -86.5t-25 -86t-48.5 -65.5t-77.5 -26q-18 0 -39.5 4.5t-41 13.5t-33.5 22.5t-17 31.5h-4q-21 -24 -49 -39t-59.5 -23.5t-64.5 -11.5t-63 -3q-27 0 -62 5.5
t-66.5 19.5t-53.5 37t-22 59q0 45 22.5 72t59 42t81.5 22t90 11q37 4 71.5 8.5t60.5 13.5t42 24.5t16 40.5v9q0 25 -18 39.5t-43 22.5t-52.5 10.5t-45.5 2.5q-69 0 -118 -25.5t-92 -82.5l-55 76q56 48 121.5 76t139.5 28q44 0 85.5 -7.5t74.5 -27t53 -53t20 -85.5v-208
q0 -27 18 -48t46 -21q30 0 47 23t25.5 54.5t11 63.5t2.5 51q0 82 -25 150t-71.5 117t-112.5 76t-148 27q-87 0 -161.5 -30.5t-128.5 -84t-84.5 -126t-30.5 -157.5q0 -88 32 -154.5t87 -111.5t127 -67.5t153 -22.5q60 0 119 12t116 32l27 -61q-62 -27 -128.5 -39.5
t-133.5 -12.5q-99 0 -184.5 27t-149 80t-99.5 133.5t-36 186.5zM439 39q27 0 65.5 10t73.5 28t59.5 43.5t24.5 55.5v57q-25 -12 -59.5 -19t-97.5 -14l-51 -5q-86 -8 -118.5 -24t-32.5 -50q0 -26 14 -42t35 -25t44.5 -12t42.5 -3z" />
    <glyph glyph-name="A" unicode="A" horiz-adv-x="908" 
d="M695 161h-481l-92 -161h-110l411 701h62l411 -701h-110zM657 244q-49 89 -99 177t-105 173q-54 -86 -104 -173.5t-100 -176.5h408z" />
    <glyph glyph-name="B" unicode="B" horiz-adv-x="949" 
d="M591 82q65 0 109 3.5t71 15.5t39 34.5t12 60.5t-11.5 62t-37 38t-66.5 19t-101 5h-427v-238h412zM613 400q52 0 87.5 5.5t57 18.5t31 35t9.5 54q0 34 -10 55t-31.5 32t-54 15t-77.5 4h-446v-219h434zM85 701h586q109 0 164.5 -45t55.5 -126q0 -63 -31.5 -108.5
t-85.5 -54.5v-3q74 -16 107 -58.5t33 -110.5q0 -94 -58.5 -144.5t-170.5 -50.5h-600v701z" />
    <glyph glyph-name="C" unicode="C" horiz-adv-x="909" 
d="M462 -13q-89 0 -164.5 25t-130.5 71.5t-86 113.5t-31 151q0 87 33 155t90.5 115t135 71.5t166.5 24.5q64 0 124 -13.5t111 -40.5t90.5 -68t63.5 -97l-82 -23q-18 43 -48.5 73.5t-71 50t-89 29t-100.5 9.5q-66 0 -126 -15.5t-105.5 -50t-73 -90.5t-27.5 -137
q0 -70 26 -121t70 -84.5t102.5 -50t123.5 -16.5q113 0 195 38.5t126 133.5l85 -26q-22 -56 -63.5 -98.5t-95 -71.5t-117 -43.5t-131.5 -14.5z" />
    <glyph glyph-name="D" unicode="D" horiz-adv-x="983" 
d="M552 81q82 0 137 13.5t88.5 45t47.5 83.5t14 128q0 79 -14.5 130.5t-48.5 82t-89 42.5t-135 12h-372v-537h372zM85 699h494q95 0 162 -19.5t109.5 -61.5t62.5 -108.5t20 -159.5t-20 -159.5t-62.5 -109t-109.5 -62.5t-162 -20h-494v700z" />
    <glyph glyph-name="E" unicode="E" horiz-adv-x="808" 
d="M164 619v-220h537v-81h-537v-236h575v-82h-669v700h669v-81h-575z" />
    <glyph glyph-name="F" unicode="F" horiz-adv-x="790" 
d="M85 0v700h670v-82h-575v-218h536v-81h-536v-319h-95z" />
    <glyph glyph-name="G" unicode="G" horiz-adv-x="956" 
d="M473 714q57 0 118 -10t117 -35t102 -67t71 -107l-80 -23q-22 50 -60 81t-83 49t-91.5 24.5t-86.5 6.5q-65 0 -126 -15.5t-108.5 -50.5t-76.5 -91.5t-29 -138.5q0 -73 24 -124.5t67.5 -83t104 -46t133.5 -14.5q96 0 160.5 25.5t102.5 59.5t54 68t16 52v16h-369v81h463
v-371h-82v136q-22 -36 -58.5 -63.5t-82 -46.5t-98.5 -28.5t-109 -9.5q-79 0 -153.5 20t-133 62.5t-94 109t-35.5 160.5q0 93 35 163t94 117t135.5 70.5t158.5 23.5z" />
    <glyph glyph-name="H" unicode="H" horiz-adv-x="963" 
d="M85 0v701h90v-302h613v302h90v-701h-90v318h-613v-318h-90z" />
    <glyph glyph-name="I" unicode="I" horiz-adv-x="263" 
d="M85 700h93v-700h-93v700z" />
    <glyph glyph-name="J" unicode="J" horiz-adv-x="768" 
d="M40 310l3 35l86 17q-3 -15 -3 -35l2 -55q0 -50 18 -88.5t50.5 -65t76 -40t94.5 -13.5q44 0 85.5 11t73.5 34t51 58.5t19 85.5v446h94v-451q0 -64 -27 -113.5t-71 -83t-101.5 -50.5t-119.5 -17q-60 0 -119.5 16.5t-106 50.5t-75.5 84.5t-29 119.5v24q-1 7 -1 14.5v15.5z
" />
    <glyph glyph-name="K" unicode="K" horiz-adv-x="936" 
d="M178 700v-385l562 385h154l-397 -262l419 -438h-110l-380 387l-248 -171v-216h-93v700h93z" />
    <glyph glyph-name="L" unicode="L" horiz-adv-x="743" 
d="M85 701h94v-620h539v-81h-633v701z" />
    <glyph glyph-name="M" unicode="M" horiz-adv-x="1218" 
d="M1133 700v-700h-94v324l9 235l-415 -559h-64l-415 559l10 -235v-324h-94v700h89l444 -596l439 596h91z" />
    <glyph glyph-name="N" unicode="N" horiz-adv-x="1002" 
d="M917 699v-700h-93l-647 588v-588h-92v700h95l647 -591v591h90z" />
    <glyph glyph-name="O" unicode="O" horiz-adv-x="946" 
d="M472 70q98 0 162 26.5t102 68t53.5 91.5t15.5 96q0 80 -28.5 135t-74.5 88.5t-105 48t-121 14.5q-74 0 -135.5 -19t-106 -55.5t-69 -91t-24.5 -125.5t24.5 -123.5t68.5 -86.5t105 -50.5t133 -16.5zM471 -12q-91 0 -168 25.5t-133.5 72.5t-88 113.5t-31.5 148.5
q0 81 31.5 148.5t88.5 116t135.5 75.5t171.5 27q92 0 169 -26t132.5 -74t86.5 -115t31 -148q0 -83 -32 -150t-88.5 -114.5t-134.5 -73.5t-170 -26z" />
    <glyph glyph-name="P" unicode="P" horiz-adv-x="872" 
d="M85 700h512q234 0 234 -205q0 -106 -63 -158t-185 -52h-404v-285h-94v700zM179 617v-249h385q89 0 136 24.5t47 98.5q0 69 -41 97.5t-127 28.5h-400z" />
    <glyph glyph-name="Q" unicode="Q" horiz-adv-x="975" 
d="M888 -105l-156 158q-108 -67 -259 -67q-92 0 -169.5 25.5t-134 72.5t-88 113.5t-31.5 148.5t31.5 149.5t88.5 116t135 75t171 26.5q92 0 169.5 -26t133 -74t86.5 -114.5t31 -147.5q0 -76 -26 -138.5t-74 -109.5l149 -153zM141 345q0 -71 24.5 -123.5t68.5 -87t105 -51
t134 -16.5q98 0 162 27t101.5 68.5t53 91.5t15.5 97q0 80 -28.5 134t-74.5 86.5t-105 46.5t-120 14q-74 0 -135.5 -18t-106 -54t-69.5 -90t-25 -125z" />
    <glyph glyph-name="R" unicode="R" horiz-adv-x="924" 
d="M571 387h14t12 -1q24 0 41.5 0.5t31.5 3t27 8.5t29 17q18 13 30 37.5t12 59.5q0 20 -11.5 37.5t-30.5 36.5q-10 11 -28 17t-37.5 10t-38.5 5t-33 1h-408v-232h390zM764 -1l-278 307h-305v-307h-96v701h556q46 0 85 -12.5t67 -36.5t43.5 -59t15.5 -81q0 -55 -21 -93.5
t-56 -63.5t-79.5 -36.5t-92.5 -11.5l281 -307h-120z" />
    <glyph glyph-name="S" unicode="S" horiz-adv-x="770" 
d="M386 -8q-120 0 -201.5 34t-147.5 113l72 45q29 -29 54.5 -50.5t56.5 -35.5t71.5 -21t98.5 -7q67 0 114.5 11t77.5 30t44 45.5t14 56.5q0 28 -12.5 48t-41 33.5t-75.5 22t-117 13.5q-57 4 -115.5 10.5t-105.5 25t-77 53t-30 93.5q0 98 85 147t239 49q99 0 184 -32t149 -95
l-74 -53q-30 29 -58.5 48.5t-59 31.5t-66 17t-80.5 5q-111 0 -169 -30t-58 -92q0 -29 13.5 -46t40.5 -26.5t67 -14t93 -8.5l65 -6q155 -13 225 -55t70 -134q0 -51 -20.5 -92.5t-63 -71.5t-108 -46t-154.5 -16z" />
    <glyph glyph-name="T" unicode="T" horiz-adv-x="826" 
d="M15 700h796v-81h-350v-619h-96v619h-350v81z" />
    <glyph glyph-name="U" unicode="U" horiz-adv-x="968" 
d="M171 700v-428q0 -45 8.5 -83t39.5 -67q40 -38 106 -47t164 -9q48 0 85.5 1t68.5 6.5t57 16t50 29.5q28 23 37.5 64t9.5 89v428h93v-397q0 -105 -27 -167.5t-78 -96t-126 -44t-171 -10.5q-94 0 -169.5 10.5t-129 43.5t-82.5 96t-29 168v397h93z" />
    <glyph glyph-name="V" unicode="V" horiz-adv-x="917" 
d="M12 700h110l338 -608l332 608h113l-414 -700h-66z" />
    <glyph glyph-name="W" unicode="W" horiz-adv-x="1333" 
d="M28 700h95l242 -620l242 620h116l240 -620l250 620h92l-282 -699h-122l-235 606l-237 -606h-122z" />
    <glyph glyph-name="X" unicode="X" horiz-adv-x="908" 
d="M25 0l360 366l-309 334h129l260 -288l269 288h131l-320 -334l338 -366h-129l-289 306l-305 -306h-135z" />
    <glyph glyph-name="Y" unicode="Y" horiz-adv-x="888" 
d="M134 700l64 -71q63 -69 125 -137.5t122 -139.5q26 32 53 64t62 71.5t81.5 90.5t112.5 122h124l-386 -409v-291h-97v291l-385 409h124z" />
    <glyph glyph-name="Z" unicode="Z" horiz-adv-x="858" 
d="M654 616h-608v85h761v-65l-623 -551h638v-85h-792v67z" />
    <glyph glyph-name="bracketleft" unicode="[" horiz-adv-x="331" 
d="M85 676h221v-77h-145v-715h145v-76h-221v868z" />
    <glyph glyph-name="backslash" unicode="\" horiz-adv-x="398" 
d="M388 -147h-77l-301 847h78z" />
    <glyph glyph-name="bracketright" unicode="]" horiz-adv-x="331" 
d="M246 676v-868h-221v76h145v715h-145v77h221z" />
    <glyph glyph-name="asciicircum" unicode="^" horiz-adv-x="624" 
d="M283 706h58l223 -416h-87l-165 332l-165 -332h-87z" />
    <glyph glyph-name="underscore" unicode="_" horiz-adv-x="520" 
d="M0 -9h520v-73h-520v73z" />
    <glyph glyph-name="grave" unicode="`" horiz-adv-x="399" 
d="M108 757h99l93 -170h-69z" />
    <glyph glyph-name="a" unicode="a" horiz-adv-x="692" 
d="M296 298q102 9 150 24.5t48 49.5v5q0 16 -13 28t-36 20t-53.5 12t-65.5 4q-63 0 -113 -20.5t-98 -62.5l-59 49q123 105 273 105q119 0 180 -39.5t61 -111.5v-223q0 -43 13 -58t50 -15q17 0 35 3l14 -66q-34 -8 -67 -8q-54 0 -84.5 21.5t-35.5 62.5h-4q-36 -46 -97 -68
t-144 -22q-47 0 -86 10.5t-67.5 29t-44 44t-15.5 56.5q0 37 13.5 66t44.5 50t80 34.5t121 19.5zM124 131q0 -35 37.5 -53.5t100.5 -18.5q60 0 104 15.5t72.5 38.5t42 48.5t13.5 46.5v66q-58 -31 -185 -41q-98 -7 -141.5 -29t-43.5 -73z" />
    <glyph glyph-name="b" unicode="b" horiz-adv-x="769" 
d="M406 523q69 0 127.5 -20t101 -56t66.5 -86.5t24 -111.5q0 -59 -22.5 -107t-64.5 -82.5t-101.5 -53.5t-133.5 -19q-83 0 -146.5 24t-103.5 70v-80h-78v700h78v-274q49 49 108.5 72.5t144.5 23.5zM400 54q62 0 108.5 17.5t77.5 46t46 65.5t15 76q0 48 -20.5 84.5t-55 61.5
t-79.5 38t-94 13t-93.5 -13.5t-78 -39.5t-53.5 -64t-20 -88q0 -51 20.5 -88t54.5 -61.5t79 -36t93 -11.5z" />
    <glyph glyph-name="c" unicode="c" horiz-adv-x="676" 
d="M344 -16q-60 0 -114.5 17t-96 50t-65.5 82.5t-24 113.5t24 114t65.5 84t96.5 52t117 18q42 0 87 -9t85.5 -29t72 -52.5t44.5 -79.5l-64 -18q-15 33 -40.5 55t-57 35t-66 18.5t-68.5 5.5q-44 0 -84 -12.5t-70.5 -37t-48.5 -61t-18 -83.5q0 -48 18.5 -83.5t49.5 -59t71 -35
t83 -11.5q78 0 134.5 27t100.5 93l65 -20q-19 -45 -50 -77.5t-70.5 -54t-84.5 -32t-92 -10.5z" />
    <glyph glyph-name="d" unicode="d" horiz-adv-x="769" 
d="M122 259q0 -39 15.5 -76t46 -65.5t77 -46t108.5 -17.5q48 0 93 11.5t79 36t54.5 61.5t20.5 88q0 50 -20 88t-53.5 64t-78 39.5t-93.5 13.5t-94 -13t-79.5 -38t-55 -61.5t-20.5 -84.5zM44 249q0 61 24 111.5t66.5 86.5t101 56t127.5 20q85 0 144.5 -23.5t108.5 -72.5v274
h78v-700h-78v80q-40 -46 -103.5 -70t-146.5 -24q-73 0 -132.5 19t-101.5 53.5t-65 82.5t-23 107z" />
    <glyph glyph-name="e" unicode="e" horiz-adv-x="683" 
d="M44 249q0 79 40 137.5t104.5 88.5t149.5 30q87 0 152.5 -32.5t107.5 -86t43 -131.5l1 -21h-520q13 -82 66 -129.5t161 -47.5q73 0 123 22.5t84 70.5l73 -17q-29 -61 -105.5 -105t-175.5 -44q-87 0 -158.5 33.5t-108.5 94.5t-37 137zM124 302h430q-19 63 -70 96.5
t-140 33.5q-88 0 -142 -33.5t-78 -96.5z" />
    <glyph glyph-name="f" unicode="f" horiz-adv-x="387" 
d="M7 511h117v77q0 60 41.5 95t107.5 35q54 0 109 -23l-25 -65q-44 23 -84 23h-6q-35 -2 -51 -20t-16 -49v-73h174v-68h-174v-443h-76v443h-117v68z" />
    <glyph glyph-name="g" unicode="g" horiz-adv-x="696" 
d="M621 500v-431q0 -71 -22 -124.5t-62.5 -89.5t-97.5 -54t-126 -18q-141 0 -248 73l45 55q92 -56 206 -56q102 0 164.5 48.5t62.5 155.5v50q-38 -38 -93.5 -59.5t-124.5 -21.5q-60 0 -111.5 17t-89 48t-58.5 75.5t-21 98.5t21 99t59 77t90 50t113 18q67 0 122 -21t93 -59
v69h78zM332 92q65 0 106 16.5t64 42.5t32 58t9 64q0 51 -17.5 85t-46 53.5t-66 27.5t-76.5 8q-99 0 -156.5 -43.5t-57.5 -137.5q0 -93 57.5 -133.5t151.5 -40.5z" />
    <glyph glyph-name="h" unicode="h" horiz-adv-x="778" 
d="M628 253q0 56 -14.5 93t-42 59.5t-67.5 31.5t-90 9q-53 0 -100.5 -10t-83 -33t-56.5 -60.5t-21 -93.5v-249h-78v700h78v-282q49 49 108.5 72t144.5 23q150 0 225 -67.5t75 -192.5v-253h-78v253z" />
    <glyph glyph-name="i" unicode="i" horiz-adv-x="223" 
d="M150 499v-499h-77v499h77zM72 698h78v-89h-78v89z" />
    <glyph glyph-name="j" unicode="j" horiz-adv-x="264" 
d="M-28 -104q20 -8 40 -12t34 -4q37 0 53.5 26t16.5 80v513h77v-518q0 -80 -36 -126.5t-103 -46.5q-20 0 -45 5t-54 16zM116 598v102h77v-102h-77z" />
    <glyph glyph-name="k" unicode="k" horiz-adv-x="702" 
d="M265 257l-113 -78v-179h-77v700h77v-441l363 240h119l-306 -201l359 -298h-112z" />
    <glyph glyph-name="l" unicode="l" horiz-adv-x="227" 
d="M75 0v700h77v-700h-77z" />
    <glyph glyph-name="m" unicode="m" horiz-adv-x="1058" 
d="M75 500h73v-86h5q43 99 190 99q84 0 141 -31t76 -86h6q24 56 74.5 86.5t131.5 30.5q97 0 155.5 -43.5t58.5 -124.5v-344h-75v328q0 69 -35 94.5t-117 25.5q-37 0 -71 -14.5t-60 -38t-42 -54t-16 -62.5v-279h-75v328q0 64 -38 92t-118 28q-36 0 -70 -13.5t-60.5 -36.5
t-42.5 -53.5t-16 -65.5v-279h-75v499z" />
    <glyph glyph-name="n" unicode="n" horiz-adv-x="778" 
d="M628 253q0 56 -14.5 93t-42 59.5t-67.5 31.5t-90 9q-53 0 -100.5 -10t-83 -33t-56.5 -60.5t-21 -93.5v-249h-78v500h78v-82q49 49 108.5 72t145.5 23q149 0 224 -66.5t75 -193.5v-253h-78v253z" />
    <glyph glyph-name="o" unicode="o" horiz-adv-x="698" 
d="M346 56q72 0 117.5 18t72 46.5t36.5 64t10 70.5q0 57 -19.5 94t-51.5 59t-73 31t-85 9q-109 0 -172 -49t-63 -152q0 -51 16.5 -87.5t46.5 -59.5t72 -33.5t93 -10.5zM348 -12q-66 0 -121.5 18.5t-96 52.5t-63.5 82t-23 107t23 107.5t63.5 83.5t97.5 54.5t124 19.5
q66 0 121.5 -19t95.5 -53.5t62.5 -82.5t22.5 -107q0 -60 -23 -108.5t-63.5 -83t-97 -53t-122.5 -18.5z" />
    <glyph glyph-name="p" unicode="p" horiz-adv-x="769" 
d="M647 242q0 39 -15 76t-46 65.5t-77.5 46t-108.5 17.5q-48 0 -93 -11.5t-79 -36t-54.5 -61.5t-20.5 -88q0 -50 20 -88t53.5 -64t78 -39.5t93.5 -13.5t94 13t79.5 38t55 61.5t20.5 84.5zM725 252q0 -61 -24 -111.5t-66.5 -86.5t-101 -56t-127.5 -20q-85 0 -144.5 23.5
t-108.5 72.5v-274h-78v700h78v-80q40 46 103.5 70t146.5 24q74 0 133.5 -19t101.5 -53.5t64.5 -82.5t22.5 -107z" />
    <glyph glyph-name="q" unicode="q" horiz-adv-x="769" 
d="M369 446q-62 0 -108.5 -17.5t-77 -46t-46 -65.5t-15.5 -76q0 -48 20.5 -84.5t55 -61.5t79.5 -38t94 -13t93.5 13.5t78 39.5t53.5 64t20 88q0 51 -20.5 88t-54.5 61.5t-79 36t-93 11.5zM363 -23q-69 0 -127.5 20t-101 56t-66.5 86.5t-24 111.5q0 59 23 107t65 82.5
t101.5 53.5t132.5 19q83 0 146.5 -24t103.5 -70v80h78v-700h-78v274q-49 -49 -108.5 -72.5t-144.5 -23.5z" />
    <glyph glyph-name="r" unicode="r" horiz-adv-x="402" 
d="M75 500h77v-84h5q33 55 97 76t140 21v-68q-55 0 -99.5 -15t-76 -42.5t-49 -65.5t-17.5 -85v-237h-77v500z" />
    <glyph glyph-name="s" unicode="s" horiz-adv-x="618" 
d="M314 -11q-36 0 -77.5 5t-81 16t-72 28.5t-50.5 42.5l52 42q15 -18 42.5 -32t60.5 -23.5t66.5 -14.5t59.5 -5q94 0 145.5 29t51.5 69q0 24 -18.5 39.5t-48 24.5t-67 12.5t-75.5 3.5q-119 0 -185.5 31.5t-66.5 94.5q0 46 21 76t56.5 48t82.5 25t99 7q75 0 139.5 -22.5
t108.5 -57.5l-47 -42q-38 32 -90 44t-117 12q-35 0 -67.5 -3t-57 -11.5t-39.5 -24t-15 -41.5q0 -25 14 -39t39.5 -21t62.5 -8.5t83 -1.5q262 0 262 -146q0 -71 -66 -114t-205 -43z" />
    <glyph glyph-name="t" unicode="t" horiz-adv-x="420" 
d="M405 39q-32 -26 -68 -40t-73 -14q-60 0 -101.5 35.5t-41.5 94.5v308h-116v77h116v172h77v-172h174v-77h-174v-281q0 -43 18 -67t56 -24q24 0 46 10t51 33z" />
    <glyph glyph-name="u" unicode="u" horiz-adv-x="778" 
d="M150 247q0 -56 14.5 -93t42 -59.5t67.5 -31.5t90 -9q53 0 100.5 10t83 33t56.5 61t21 93v249h78v-500h-78v82q-49 -49 -108.5 -72t-145.5 -23q-149 0 -224 66.5t-75 193.5v253h78v-253z" />
    <glyph glyph-name="v" unicode="v" horiz-adv-x="668" 
d="M658 500l-284 -501h-80l-284 501h95q60 -109 117 -218.5t112 -221.5q110 221 236 440h88z" />
    <glyph glyph-name="w" unicode="w" horiz-adv-x="897" 
d="M874 499l-199 -501h-66l-156 418l-151 -418h-66l-213 501h91l153 -410q34 104 72.5 206.5t80.5 203.5h66q42 -101 81.5 -202.5t74.5 -204.5q38 102 74 203t71 204h87z" />
    <glyph glyph-name="x" unicode="x" horiz-adv-x="659" 
d="M23 0l257 261l-221 239h93l185 -206l192 206h94l-229 -239l242 -261h-92l-207 219l-218 -219h-96z" />
    <glyph glyph-name="y" unicode="y" horiz-adv-x="672" 
d="M397 32l-26 -49q-16 -32 -35 -65t-43 -59.5t-54.5 -43.5t-71.5 -17q-26 0 -56.5 6.5t-56.5 16.5l22 64q20 -8 42 -13t44 -5q21 0 37.5 5.5t32 19.5t32 38.5t37.5 62.5l-287 506h95q59 -109 116 -217.5t113 -218.5q57 111 116 219t120 217h88z" />
    <glyph glyph-name="z" unicode="z" horiz-adv-x="663" 
d="M503 427h-451v72h573v-63l-464 -364h475v-72h-608v58z" />
    <glyph glyph-name="braceleft" unicode="{" horiz-adv-x="426" 
d="M156 432v56q0 199 214 199h31v-66h-33q-38 0 -63.5 -7t-41 -24.5t-22 -46t-6.5 -71.5v-48q0 -44 -6 -75.5t-19 -52.5t-34.5 -33.5t-53.5 -19.5v-2q32 -6 53.5 -18.5t34.5 -34t19 -53t6 -75.5v-47q0 -43 6.5 -72t22 -46t41 -24.5t63.5 -7.5h33v-66h-31q-214 0 -214 199v57
q0 49 -5 78t-18.5 45t-38 21.5t-64.5 7.5v74q40 2 64.5 8t38 22t18.5 45t5 78z" />
    <glyph glyph-name="bar" unicode="|" horiz-adv-x="242" 
d="M85 764h72v-933h-72v933z" />
    <glyph glyph-name="braceright" unicode="}" horiz-adv-x="427" 
d="M59 -137q38 0 63 7.5t40.5 24.5t22 46t6.5 72v47q0 44 6 75.5t19.5 53t35 34t53.5 18.5v2q-32 7 -53.5 19.5t-35 33.5t-19.5 52.5t-6 75.5v48q0 43 -6.5 71.5t-22 46t-40.5 24.5t-63 7h-34v66h31q109 0 161.5 -49t52.5 -150v-56q0 -49 5 -78t19 -45t38.5 -22t64.5 -8v-74
q-40 -2 -64.5 -7.5t-38.5 -21.5t-19 -45t-5 -78v-57q0 -101 -52.5 -150t-161.5 -49h-31v66h34z" />
    <glyph glyph-name="asciitilde" unicode="~" horiz-adv-x="587" 
d="M184 430q32 0 62 -11t59 -25q35 -16 54 -22t33 -6q17 0 27 6.5t14.5 16.5t5.5 23t1 26h82q0 -28 -2.5 -55t-12.5 -49t-29.5 -35.5t-53.5 -13.5q-33 0 -64.5 11t-60.5 24q-26 12 -50 21t-47 9q-35 0 -45 -22t-13 -51h-79v18q0 57 29.5 96t89.5 39z" />
    <glyph glyph-name="exclamdown" unicode="&#xa1;" horiz-adv-x="235" 
d="M70 -146l18 523h59l18 -523h-95zM70 453v102h95v-102h-95z" />
    <glyph glyph-name="cent" unicode="&#xa2;" horiz-adv-x="717" 
d="M44 347q0 62 22 112.5t60.5 86.5t90 58t110.5 27v69h71v-68q97 -5 171.5 -47.5t108.5 -122.5l-64 -18q-28 66 -93.5 95.5t-147.5 29.5q-51 0 -98 -12t-82.5 -38t-56.5 -67.5t-21 -100.5q0 -57 20.5 -98.5t55.5 -68.5t82.5 -40t102.5 -13q81 0 143 30t97 103l66 -19
q-16 -40 -44.5 -71.5t-66 -54t-81.5 -35.5t-92 -16v-68h-71v68q-62 5 -114 26.5t-89.5 57.5t-58.5 85.5t-21 109.5z" />
    <glyph glyph-name="sterling" unicode="&#xa3;" horiz-adv-x="651" 
d="M40 275v72h86l-11 29q-14 33 -25 68.5t-11 77.5q0 54 23 90t60.5 57.5t85.5 30.5t99 9q59 0 109 -11.5t86.5 -39t57 -72.5t20.5 -111l-74 -22q1 6 1.5 13t0.5 17q0 47 -15 77.5t-42 48.5t-63.5 25.5t-79.5 7.5q-33 0 -67 -5t-62 -19t-45.5 -38.5t-17.5 -64.5q0 -30 9 -57
t20 -53q1 -4 4 -8l18 -50h307v-72h-291q8 -30 11 -46.5t3 -31.5q0 -34 -6 -69.5t-38 -56.5h428v-71h-581v71h34q25 0 42 9.5t28 25t16 35.5t5 40q0 25 -6.5 48t-14.5 46h-104z" />
    <glyph glyph-name="currency" unicode="&#xa4;" horiz-adv-x="556" 
d="M102 561l64 -64q23 17 52 27t61 10q62 0 112 -36l63 63l42 -42l-63 -63q36 -50 36 -112q0 -32 -10 -61t-27 -52l64 -64l-42 -42l-64 64q-49 -36 -111 -36q-63 0 -113 36l-64 -64l-42 42l64 64l2 -1q-38 49 -38 114q0 62 36 111l-64 64zM279 210q27 0 51.5 10.5t42.5 28.5
t28.5 42.5t10.5 52.5q0 27 -10.5 51.5t-28.5 42.5t-42.5 28.5t-51.5 10.5q-28 0 -52.5 -10.5t-42.5 -28.5t-28.5 -42.5t-10.5 -51.5q0 -28 10.5 -52.5t28.5 -42.5t42.5 -28.5t52.5 -10.5z" />
    <glyph glyph-name="yen" unicode="&#xa5;" horiz-adv-x="988" 
d="M184 700l311 -348l309 348h124l-244 -259h110v-73h-179l-72 -76h251v-73h-252v-219h-97v219h-257v73h256l-72 76h-184v73h116l-244 259h124z" />
    <glyph glyph-name="brokenbar" unicode="&#xa6;" horiz-adv-x="242" 
d="M85 222h72v-369h-72v369zM157 786v-368h-72v368h72z" />
    <glyph glyph-name="section" unicode="&#xa7;" horiz-adv-x="544" 
d="M38 -3l64 49l6 -8q36 -42 81.5 -61.5t99.5 -19.5q20 0 43 3t42.5 12t32.5 24.5t13 39.5q0 33 -30 54t-111 36q-34 7 -70.5 17t-67.5 28.5t-51 47.5t-20 73q0 45 23 80.5t67 53.5q-45 20 -69 51t-24 79q0 42 17.5 73t46 51.5t64.5 30.5t73 10q61 0 119.5 -24.5
t101.5 -67.5l6 -6l-55 -52l-7 6q-33 33 -74.5 52.5t-89.5 19.5q-21 0 -42 -4t-38 -14t-27.5 -26t-10.5 -40q0 -14 4 -26.5t9 -20.5q9 -13 26.5 -23.5t38 -17.5t40.5 -12t34 -8q32 -7 67 -18t64 -29.5t47.5 -47.5t18.5 -72q0 -45 -22.5 -77t-68.5 -49q42 -17 66 -44.5
t24 -75.5q0 -44 -20 -74t-51.5 -49t-70 -27t-76.5 -8q-67 0 -130 24.5t-108 78.5zM151 302q0 -55 52 -78q24 -13 84 -27q23 0 46.5 4t42.5 14t31.5 27.5t12.5 44.5q0 26 -13.5 43t-33.5 28.5t-43.5 18t-43.5 10.5h-8q-21 0 -43.5 -3.5t-41 -13t-30.5 -26t-12 -42.5z" />
    <glyph glyph-name="dieresis" unicode="&#xa8;" horiz-adv-x="437" 
d="M360 688v-88h-82v88h82zM77 688h82v-88h-82v88z" />
    <glyph glyph-name="copyright" unicode="&#xa9;" horiz-adv-x="874" 
d="M437 709q75 0 140.5 -28.5t115 -77t78 -114.5t28.5 -141t-28.5 -141t-78 -115t-115 -77.5t-140.5 -28.5t-141 28.5t-115 77.5t-77.5 115t-28.5 141t28.5 141t77.5 114.5t115 77t141 28.5zM437 24q67 0 126 25.5t102.5 69t69 103t25.5 126.5t-25.5 125.5t-69 102.5
t-102.5 69.5t-126 25.5t-126.5 -25.5t-103.5 -69.5t-69.5 -102.5t-25.5 -125.5t25.5 -126.5t69.5 -103t103.5 -69t126.5 -25.5zM441 587q75 0 136.5 -35t88.5 -109l-47 -16q-21 57 -69.5 82t-108.5 25q-38 0 -73 -10t-61.5 -32.5t-42.5 -57.5t-16 -86q0 -48 15 -83
t41.5 -57.5t62 -33.5t75.5 -11q60 0 106 25.5t72 87.5l48 -17q-13 -37 -36.5 -65t-54.5 -47t-67.5 -28.5t-75.5 -9.5q-51 0 -94.5 16.5t-75 47t-49.5 75t-18 99.5q0 57 19 101.5t52 75.5t77.5 47t95.5 16z" />
    <glyph glyph-name="ordfeminine" unicode="&#xaa;" horiz-adv-x="468" 
d="M186 601q65 5 96 15t31 32v3q0 21 -30.5 31t-70.5 10q-45 0 -78 -13t-64 -40l-38 31q78 68 185 68q69 0 107 -25.5t38 -71.5v-143q0 -27 8 -37t32 -10q6 0 11.5 0.5t10.5 1.5l9 -42q-22 -5 -43 -5q-71 0 -76 54h-3q-23 -29 -61 -43.5t-85 -14.5q-66 0 -105.5 26t-39.5 73
q0 41 37 66.5t129 33.5zM76 501q0 -28 24 -43t67 -15q37 0 64.5 10.5t45.5 26t27 33t9 30.5v42q-20 -10 -48.5 -16.5t-70.5 -9.5q-63 -5 -90.5 -18t-27.5 -40z" />
    <glyph glyph-name="guillemotleft" unicode="&#xab;" horiz-adv-x="572" 
d="M265 28l-235 228v12l235 228l47 -48l-193 -186l193 -186zM483 28l-235 228v12l235 228l47 -48l-193 -186l193 -186z" />
    <glyph glyph-name="logicalnot" unicode="&#xac;" horiz-adv-x="600" 
d="M528 384v-214h-77v139h-379v75h456z" />
    <glyph glyph-name="registered" unicode="&#xae;" horiz-adv-x="871" 
d="M75 350q0 75 28.5 140.5t77.5 114.5t114.5 77.5t140.5 28.5t140.5 -28.5t114.5 -77.5t77.5 -114.5t28.5 -140.5t-28.5 -140.5t-77.5 -114.5t-114.5 -77.5t-140.5 -28.5t-140.5 28.5t-114.5 77.5t-77.5 114.5t-28.5 140.5zM436 27q67 0 125.5 25.5t102 69t69 102.5
t25.5 126t-25.5 125.5t-69 102t-102 69t-125.5 25.5t-126 -25.5t-102.5 -69t-69 -102t-25.5 -125.5t25.5 -126t69 -102.5t102.5 -69t126 -25.5zM528 545q51 0 83.5 -27.5t32.5 -78.5q0 -30 -12 -51.5t-31.5 -35.5t-44 -20.5t-50.5 -6.5l156 -170h-66l-155 170h-150v-170h-53
v390h290zM291 499v-129h197q18 0 37 1t35.5 7t27 18.5t10.5 35.5q0 21 -9 34.5t-23.5 20.5t-32.5 9.5t-35 2.5h-207z" />
    <glyph glyph-name="macron" unicode="&#xaf;" horiz-adv-x="390" 
d="M57 662h276v-66h-276v66z" />
    <glyph glyph-name="degree" unicode="&#xb0;" horiz-adv-x="481" 
d="M237 402q50 0 81 12t48.5 31t24 42.5t6.5 47.5q0 39 -13 64.5t-34 40t-48.5 20.5t-57.5 6q-75 0 -117.5 -32.5t-42.5 -103.5q0 -70 41.5 -99t111.5 -29zM240 353q-45 0 -83.5 13t-66.5 36t-44 56t-16 73q0 41 16 74.5t44 58t67 38t85 13.5t84.5 -13.5t66 -37.5t43 -57.5
t15.5 -73.5q0 -41 -16 -74t-44 -56.5t-66.5 -36.5t-84.5 -13z" />
    <glyph glyph-name="plusminus" unicode="&#xb1;" horiz-adv-x="600" 
d="M82 425h180v179h76v-179h180v-74h-180v-115h180v-74h-436v74h180v115h-180v74z" />
    <glyph glyph-name="twosuperior" unicode="&#xb2;" horiz-adv-x="451" 
d="M219 858q44 0 78.5 -12.5t58 -33.5t36 -48.5t12.5 -57.5q0 -25 -10 -46t-34 -43.5t-63.5 -50.5t-99.5 -68l-68 -46h287v-45h-358v52l128 85q47 31 79.5 53.5t52.5 40.5t28.5 34.5t8.5 36.5q0 42 -35 73t-103 31q-54 0 -88.5 -23.5t-34.5 -72.5v-7q0 -5 0.5 -9t3.5 -12
l-58 15q0 66 47 110t132 44z" />
    <glyph glyph-name="threesuperior" unicode="&#xb3;" horiz-adv-x="454" 
d="M30 547l48 6q7 -60 45 -87.5t101 -27.5q65 0 105 26t40 71t-41 66.5t-113 21.5h-41v37h41q18 0 41.5 1.5t44 9t35 22t14.5 40.5q0 37 -33.5 60t-88.5 23q-43 0 -78.5 -17t-46.5 -64v-2q-2 -8 -2 -12t1 -6l-53 10q3 57 50.5 95t130.5 38q79 0 123 -35t44 -91
q0 -32 -17 -54t-59 -35q57 -8 77.5 -38.5t20.5 -73.5q0 -28 -14 -52.5t-38.5 -42.5t-58.5 -28.5t-74 -10.5q-97 0 -148.5 38.5t-55.5 111.5z" />
    <glyph glyph-name="acute" unicode="&#xb4;" horiz-adv-x="399" 
d="M98 587l93 170h99l-123 -170h-69z" />
    <glyph glyph-name="paragraph" unicode="&#xb6;" horiz-adv-x="683" 
d="M277 702h361v-79h-68v-774h-82v774h-56v-774h-82v434h-59q-123 0 -187 54t-64 159q0 206 237 206z" />
    <glyph glyph-name="periodcentered" unicode="&#xb7;" horiz-adv-x="211" 
d="M58 394h95v-102h-95v102z" />
    <glyph glyph-name="cedilla" unicode="&#xb8;" horiz-adv-x="388" 
d="M108 -144q17 -3 31.5 -4t25.5 -1q16 0 34 5t18 26q0 15 -15 23q-17 7 -56 7h-17l29 92l51 -4l-15 -44q83 -14 83 -80q0 -78 -108 -78q-14 0 -29.5 1t-32.5 4l-3 1v53z" />
    <glyph glyph-name="onesuperior" unicode="&#xb9;" horiz-adv-x="244" 
d="M20 766q45 9 72.5 27t44.5 45h37v-424h-48v347q-17 -14 -43 -23.5t-56 -13.5z" />
    <glyph glyph-name="ordmasculine" unicode="&#xba;" horiz-adv-x="356" 
d="M25 548q0 36 10.5 67t30 54t48.5 36t65 13q35 0 63.5 -13t48 -35.5t30 -53t10.5 -65.5q0 -69 -40 -116t-115 -47q-73 0 -112 45t-39 115zM69 551q0 -61 30 -92t80 -31q49 0 78.5 32t29.5 92q0 65 -31.5 95t-76.5 30q-48 0 -79 -31.5t-31 -94.5z" />
    <glyph glyph-name="guillemotright" unicode="&#xbb;" horiz-adv-x="572" 
d="M223 262l-193 186l47 48l235 -228v-12l-235 -228l-47 48zM441 262l-193 186l47 48l235 -228v-12l-235 -228l-47 48z" />
    <glyph glyph-name="onequarter" unicode="&#xbc;" horiz-adv-x="836" 
d="M429 134q20 29 37 64t29 73.5t18.5 77.5t6.5 76h50q0 -35 -7 -73.5t-19.5 -77t-29.5 -73.5t-37 -63h209v194h48v-194h77v-40h-77v-107h-48v107h-257v36zM511 700h57l-433 -711h-57zM159 708h39v-441h-50v361q-18 -15 -44.5 -24.5t-58.5 -13.5l-7 42q47 10 75.5 28.5
t45.5 47.5z" />
    <glyph glyph-name="onehalf" unicode="&#xbd;" horiz-adv-x="911" 
d="M479 291q0 66 46.5 110t131.5 44q45 0 79.5 -12.5t58 -33.5t35.5 -48.5t12 -57.5q0 -25 -10 -46t-34 -43.5t-63.5 -50.5t-99.5 -68l-67 -46h287v-45h-358v52l127 85q48 31 80 53.5t52 40.5t28.5 34.5t8.5 36.5q0 42 -35 73t-102 31q-54 0 -88.5 -23.5t-34.5 -72.5v-7
q-1 -6 3 -21zM551 700h57l-433 -711h-56zM43 632q37 8 68.5 25.5t52.5 50.5h39v-441h-50v361q-21 -18 -49 -26.5t-54 -11.5z" />
    <glyph glyph-name="threequarters" unicode="&#xbe;" horiz-adv-x="1093" 
d="M80 396q7 -63 47 -91.5t105 -28.5q68 0 109.5 27t41.5 74q0 46 -42.5 68.5t-117.5 22.5h-42v39h42q19 0 43.5 2t46 9.5t36.5 22.5t15 42q0 39 -35 63t-93 24q-23 0 -46.5 -5.5t-42.5 -17.5t-31 -30.5t-12 -44.5q0 -3 0.5 -4.5t0.5 -2.5l-55 10q3 60 52.5 99t135.5 39
q83 0 128.5 -36.5t45.5 -94.5q0 -33 -17.5 -56t-60.5 -37q59 -8 80 -40t21 -77q0 -29 -14.5 -54.5t-40.5 -44.5t-61 -30t-77 -11q-100 0 -154 41t-58 117zM652 150q23 32 41 70.5t31.5 80t20.5 84.5t7 83h54q0 -38 -8 -80t-21.5 -84t-32 -80.5t-40.5 -68.5h228v212h52v-212
h85v-43h-85v-117h-52v117h-280v38zM303 -12l432 712h58l-434 -712h-56z" />
    <glyph glyph-name="questiondown" unicode="&#xbf;" horiz-adv-x="640" 
d="M35 34q0 32 10 57.5t32.5 48t60.5 43t93 42.5q29 12 45 23.5t23.5 28.5t9 41.5t1.5 60.5h94v-27q0 -28 -2 -53t-11.5 -47.5t-28 -41t-51.5 -32.5l-35 -14q-28 -10 -56.5 -22t-51.5 -28t-37.5 -36.5t-14.5 -49.5q0 -32 18 -57.5t46 -43.5t62.5 -27.5t66.5 -9.5
q39 0 75.5 13.5t65.5 34.5t46.5 47.5t17.5 53.5q0 6 -2 18l-4 29l91 -29q-2 -64 -27 -110t-65 -75.5t-90.5 -43.5t-103.5 -14q-54 0 -104 14t-89 42t-62 69t-23 95zM310 521h94v-95h-94v95z" />
    <glyph glyph-name="Agrave" unicode="&#xc0;" horiz-adv-x="908" 
d="M695 161h-481l-92 -161h-110l411 701h62l411 -701h-110zM657 244q-49 89 -99 177t-105 173q-54 -86 -104 -173.5t-100 -176.5h408zM324 935h99l93 -170h-69z" />
    <glyph glyph-name="Aacute" unicode="&#xc1;" horiz-adv-x="908" 
d="M695 161h-481l-92 -161h-110l411 701h62l411 -701h-110zM657 244q-49 89 -99 177t-105 173q-54 -86 -104 -173.5t-100 -176.5h408zM384 757l92 170h99l-122 -170h-69z" />
    <glyph glyph-name="Acircumflex" unicode="&#xc2;" horiz-adv-x="908" 
d="M695 161h-481l-92 -161h-110l411 701h62l411 -701h-110zM657 244q-49 89 -99 177t-105 173q-54 -86 -104 -173.5t-100 -176.5h408zM359 761h-69l119 141h85l119 -141h-69l-92 83z" />
    <glyph glyph-name="Atilde" unicode="&#xc3;" horiz-adv-x="908" 
d="M695 161h-481l-92 -161h-110l411 701h62l411 -701h-110zM657 244q-49 89 -99 177t-105 173q-54 -86 -104 -173.5t-100 -176.5h408zM275 774v8q0 46 22 77.5t73 31.5q29 0 51.5 -8.5t42.5 -19.5q17 -8 32 -14.5t31 -6.5q27 0 31.5 18t4.5 37h63v-20q0 -39 -17 -68t-61 -29
q-18 0 -39.5 6t-57.5 22q-20 9 -38.5 15.5t-34.5 6.5q-14 0 -22 -5.5t-12 -14t-5.5 -18t-2.5 -18.5h-61z" />
    <glyph glyph-name="Adieresis" unicode="&#xc4;" horiz-adv-x="908" 
d="M695 161h-481l-92 -161h-110l411 701h62l411 -701h-110zM657 244q-49 89 -99 177t-105 173q-54 -86 -104 -173.5t-100 -176.5h408zM312 857h82v-88h-82v88zM513 857h82v-88h-82v88z" />
    <glyph glyph-name="Aring" unicode="&#xc5;" horiz-adv-x="908" 
d="M695 161h-481l-92 -161h-110l411 701h62l411 -701h-110zM657 244q-49 89 -99 177t-105 173q-54 -86 -104 -173.5t-100 -176.5h408zM453 769q-30 0 -52.5 10.5t-37.5 27t-22.5 38.5t-7.5 44q0 23 7.5 44.5t22.5 38.5t37.5 27.5t52.5 10.5t52 -10.5t37 -27.5t22.5 -38.5
t7.5 -44.5q0 -22 -7.5 -44t-22.5 -38.5t-37 -27t-52 -10.5zM453 824q32 0 48 20.5t16 44.5q0 25 -16 47.5t-48 22.5t-48.5 -22.5t-16.5 -47.5q0 -24 16.5 -44.5t48.5 -20.5z" />
    <glyph glyph-name="AE" unicode="&#xc6;" horiz-adv-x="1266" 
d="M1220 699v-81h-574v-220h537v-81h-537v-236h574v-81h-667v316h-254l-177 -315h-110l410 698h798zM334 398h219v222h-87z" />
    <glyph glyph-name="Ccedilla" unicode="&#xc7;" horiz-adv-x="926" 
d="M886 191q-22 -56 -63 -99.5t-94.5 -73t-116.5 -45t-131 -15.5l-14 -42q105 -17 105 -101q0 -99 -136 -99q-40 0 -78 7l-4 1v67l5 -1q41 -7 73 -7q10 0 21 1t20.5 5.5t16 12t6.5 21.5q0 20 -20 28q-21 9 -70 9h-21l32 100q-81 7 -148 35.5t-116 75.5t-76 111.5t-27 143.5
q0 89 33.5 158.5t92 117.5t138 73t170.5 25q66 0 127 -13.5t113 -41t92.5 -70t64.5 -99.5l-84 -23q-18 44 -49.5 75t-72.5 51t-90.5 29.5t-102.5 9.5q-67 0 -128.5 -15.5t-108.5 -51t-75 -92t-28 -139.5q0 -71 26.5 -123.5t71.5 -87t105 -51t126 -16.5q116 0 199.5 39.5
t128.5 136.5z" />
    <glyph glyph-name="Egrave" unicode="&#xc8;" horiz-adv-x="799" 
d="M164 619v-220h537v-81h-537v-236h575v-82h-669v700h669v-81h-575zM308 934h99l93 -170h-69z" />
    <glyph glyph-name="Eacute" unicode="&#xc9;" horiz-adv-x="808" 
d="M164 619v-220h537v-81h-537v-236h575v-82h-669v700h669v-81h-575zM311 764l93 170h99l-123 -170h-69z" />
    <glyph glyph-name="Ecircumflex" unicode="&#xca;" horiz-adv-x="808" 
d="M164 619v-220h537v-81h-537v-236h575v-82h-669v700h669v-81h-575zM318 781h-69l119 141h85l119 -141h-69l-92 83z" />
    <glyph glyph-name="Edieresis" unicode="&#xcb;" horiz-adv-x="808" 
d="M164 619v-220h537v-81h-537v-236h575v-82h-669v700h669v-81h-575zM266 859h82v-88h-82v88zM467 859h82v-88h-82v88z" />
    <glyph glyph-name="Igrave" unicode="&#xcc;" horiz-adv-x="263" 
d="M85 700h93v-700h-93v700zM41 930h99l92 -170h-69z" />
    <glyph glyph-name="Iacute" unicode="&#xcd;" horiz-adv-x="263" 
d="M85 700h93v-700h-93v700zM30 764l92 170h99l-122 -170h-69z" />
    <glyph glyph-name="Icircumflex" unicode="&#xce;" horiz-adv-x="263" 
d="M178 700v-700h-93v700h93zM93 905h85l119 -141h-69l-92 83l-93 -83h-69z" />
    <glyph glyph-name="Idieresis" unicode="&#xcf;" horiz-adv-x="263" 
d="M178 700v-700h-93v700h93zM-10 855h82v-87h-82v87zM191 855h82v-87h-82v87z" />
    <glyph glyph-name="Eth" unicode="&#xd0;" horiz-adv-x="1057" 
d="M626 82q82 0 137 13.5t88 45t47 83t14 127.5q0 79 -14.5 130.5t-48 82t-88.5 42.5t-135 12h-373v-229h170v-72h-170v-235h373zM653 700q94 0 161 -19.5t110 -61.5t63 -108.5t20 -159.5t-20 -159.5t-63 -109t-110 -62.5t-161 -20h-494v317h-147v72h147v311h494z" />
    <glyph glyph-name="Ntilde" unicode="&#xd1;" horiz-adv-x="1002" 
d="M917 699v-700h-93l-647 588v-588h-92v700h95l647 -591v591h90zM328 764v8q0 46 22 77.5t73 31.5q29 0 51.5 -9t42.5 -19q17 -8 32 -14.5t31 -6.5q27 0 31.5 18t4.5 37h63v-20q0 -39 -17 -68t-61 -29q-25 0 -49.5 8.5t-47.5 19.5q-29 13 -45 17.5t-28 4.5q-14 0 -22 -5.5
t-12 -14t-5.5 -18t-2.5 -18.5h-61z" />
    <glyph glyph-name="Ograve" unicode="&#xd2;" horiz-adv-x="946" 
d="M472 70q98 0 162 26.5t102 68t53.5 91.5t15.5 96q0 80 -28.5 135t-74.5 88.5t-105 48t-121 14.5q-74 0 -135.5 -19t-106 -55.5t-69 -91t-24.5 -125.5t24.5 -123.5t68.5 -86.5t105 -50.5t133 -16.5zM471 -12q-91 0 -168 25.5t-133.5 72.5t-88 113.5t-31.5 148.5
q0 81 31.5 148.5t88.5 116t135.5 75.5t171.5 27q92 0 169 -26t132.5 -74t86.5 -115t31 -148q0 -83 -32 -150t-88.5 -114.5t-134.5 -73.5t-170 -26zM378 945h99l92 -171h-69z" />
    <glyph glyph-name="Oacute" unicode="&#xd3;" horiz-adv-x="946" 
d="M472 70q98 0 162 26.5t102 68t53.5 91.5t15.5 96q0 80 -28.5 135t-74.5 88.5t-105 48t-121 14.5q-74 0 -135.5 -19t-106 -55.5t-69 -91t-24.5 -125.5t24.5 -123.5t68.5 -86.5t105 -50.5t133 -16.5zM471 -12q-91 0 -168 25.5t-133.5 72.5t-88 113.5t-31.5 148.5
q0 81 31.5 148.5t88.5 116t135.5 75.5t171.5 27q92 0 169 -26t132.5 -74t86.5 -115t31 -148q0 -83 -32 -150t-88.5 -114.5t-134.5 -73.5t-170 -26zM384 791l93 170h99l-123 -170h-69z" />
    <glyph glyph-name="Ocircumflex" unicode="&#xd4;" horiz-adv-x="946" 
d="M472 70q98 0 162 26.5t102 68t53.5 91.5t15.5 96q0 80 -28.5 135t-74.5 88.5t-105 48t-121 14.5q-74 0 -135.5 -19t-106 -55.5t-69 -91t-24.5 -125.5t24.5 -123.5t68.5 -86.5t105 -50.5t133 -16.5zM471 -12q-91 0 -168 25.5t-133.5 72.5t-88 113.5t-31.5 148.5
q0 81 31.5 148.5t88.5 116t135.5 75.5t171.5 27q92 0 169 -26t132.5 -74t86.5 -115t31 -148q0 -83 -32 -150t-88.5 -114.5t-134.5 -73.5t-170 -26zM384 756h-69l119 141h85l119 -141h-69l-92 83z" />
    <glyph glyph-name="Otilde" unicode="&#xd5;" horiz-adv-x="946" 
d="M472 70q98 0 162 26.5t102 68t53.5 91.5t15.5 96q0 80 -28.5 135t-74.5 88.5t-105 48t-121 14.5q-74 0 -135.5 -19t-106 -55.5t-69 -91t-24.5 -125.5t24.5 -123.5t68.5 -86.5t105 -50.5t133 -16.5zM471 -12q-91 0 -168 25.5t-133.5 72.5t-88 113.5t-31.5 148.5
q0 81 31.5 148.5t88.5 116t135.5 75.5t171.5 27q92 0 169 -26t132.5 -74t86.5 -115t31 -148q0 -83 -32 -150t-88.5 -114.5t-134.5 -73.5t-170 -26zM301 757v8q0 46 22 77.5t73 31.5q26 0 48.5 -8.5t45.5 -19.5q16 -8 31 -14.5t31 -6.5q27 0 32 18t5 37h62l1 -20
q0 -39 -17 -68t-62 -29q-24 0 -49 8.5t-48 19.5q-29 13 -44.5 17.5t-27.5 4.5q-26 0 -33.5 -17.5t-9.5 -38.5h-60z" />
    <glyph glyph-name="Odieresis" unicode="&#xd6;" horiz-adv-x="946" 
d="M472 70q98 0 162 26.5t102 68t53.5 91.5t15.5 96q0 80 -28.5 135t-74.5 88.5t-105 48t-121 14.5q-74 0 -135.5 -19t-106 -55.5t-69 -91t-24.5 -125.5t24.5 -123.5t68.5 -86.5t105 -50.5t133 -16.5zM471 -12q-91 0 -168 25.5t-133.5 72.5t-88 113.5t-31.5 148.5
q0 81 31.5 148.5t88.5 116t135.5 75.5t171.5 27q92 0 169 -26t132.5 -74t86.5 -115t31 -148q0 -83 -32 -150t-88.5 -114.5t-134.5 -73.5t-170 -26zM336 870h82v-88h-82v88zM537 870h82v-88h-82v88z" />
    <glyph glyph-name="multiply" unicode="&#xd7;" horiz-adv-x="654" 
d="M173 549l154 -153l154 153l57 -57l-154 -154l154 -153l-57 -58l-154 154l-154 -154l-57 58l154 153l-154 154z" />
    <glyph glyph-name="Oslash" unicode="&#xd8;" horiz-adv-x="957" 
d="M477 61q99 0 164.5 27t104 70t54 95t15.5 103q0 56 -16 99.5t-43.5 75t-65 52.5t-80.5 33l-197 -552zM142 342q0 -107 53.5 -172.5t144.5 -91.5l196 552l-56 2q-74 0 -136 -18.5t-107 -55t-70 -90.5t-25 -126zM638 692q124 -37 196.5 -127t72.5 -218q0 -84 -32.5 -152
t-89.5 -116.5t-136 -74.5t-172 -26q-24 0 -47 2t-46 5l-44 -125h-78l50 142q-59 19 -107.5 51t-83 75.5t-53 97.5t-18.5 117q0 83 32 151t89 117.5t135.5 76.5t171.5 27q44 0 87 -6l46 130h79z" />
    <glyph glyph-name="Ugrave" unicode="&#xd9;" horiz-adv-x="968" 
d="M78 700h93v-428q0 -45 8.5 -83t39.5 -67q40 -38 106 -47t164 -9q48 0 85.5 1t68.5 6.5t57 16t50 29.5q28 23 37.5 64t9.5 89v428h93v-397q0 -105 -27 -167.5t-78 -96t-126 -44t-171 -10.5q-94 0 -169.5 10.5t-129 43.5t-82.5 96t-29 168v397zM499 930l93 -170h-69
l-123 170h99z" />
    <glyph glyph-name="Uacute" unicode="&#xda;" horiz-adv-x="968" 
d="M78 700h93v-428q0 -45 8.5 -83t39.5 -67q40 -38 106 -47t164 -9q48 0 85.5 1t68.5 6.5t57 16t50 29.5q28 23 37.5 64t9.5 89v428h93v-397q0 -105 -27 -167.5t-78 -96t-126 -44t-171 -10.5q-94 0 -169.5 10.5t-129 43.5t-82.5 96t-29 168v397zM475 931h99l-123 -170h-69z
" />
    <glyph glyph-name="Ucircumflex" unicode="&#xdb;" horiz-adv-x="968" 
d="M78 303v397h93v-428q0 -45 8.5 -83t39.5 -67q40 -38 106 -47t164 -9q48 0 85.5 1t68.5 6.5t57 16t50 29.5q28 23 37.5 64t9.5 89v428h93v-397q0 -105 -27 -167.5t-78 -96t-126 -44t-171 -10.5q-94 0 -169.5 10.5t-129 43.5t-82.5 96t-29 168zM446 905h85l119 -141h-69
l-92 83l-93 -83h-69z" />
    <glyph glyph-name="Udieresis" unicode="&#xdc;" horiz-adv-x="968" 
d="M78 700h93v-428q0 -45 8.5 -83t39.5 -67q40 -38 106 -47t164 -9q48 0 85.5 1t68.5 6.5t57 16t50 29.5q28 23 37.5 64t9.5 89v428h93v-397q0 -105 -27 -167.5t-78 -96t-126 -44t-171 -10.5q-94 0 -169.5 10.5t-129 43.5t-82.5 96t-29 168v397zM544 753v88h82v-88h-82z
M343 753v88h81v-88h-81z" />
    <glyph glyph-name="Yacute" unicode="&#xdd;" horiz-adv-x="888" 
d="M134 700l64 -71q63 -69 125 -137.5t122 -139.5q26 32 53 64t62 71.5t81.5 90.5t112.5 122h124l-386 -409v-291h-97v291l-385 409h124zM435 929h99l-123 -170h-69z" />
    <glyph glyph-name="Thorn" unicode="&#xde;" horiz-adv-x="652" 
d="M85 700h74v-129h217q52 0 95.5 -11t74.5 -36t48 -64.5t17 -95.5q0 -59 -19 -100t-52 -66.5t-78.5 -36.5t-99.5 -11h-203v-150h-74v700zM365 219q39 0 72 5.5t56.5 21t36.5 43t13 70.5q0 82 -45 112.5t-119 30.5h-220v-283h206z" />
    <glyph glyph-name="germandbls" unicode="&#xdf;" horiz-adv-x="717" 
d="M266 101q17 -11 40.5 -20t48 -15t46.5 -9t37 -3q46 0 78 10.5t52.5 27.5t29.5 39.5t9 47.5q0 40 -20.5 63t-56 36t-82.5 19t-100 10v83q53 0 95.5 6.5t73 22t47 41.5t16.5 65q0 32 -17 55.5t-46.5 38.5t-67.5 22.5t-80 7.5q-49 0 -89 -10t-69 -32.5t-45 -57.5t-16 -86
v-462h-75v479q4 53 22.5 96t53.5 73t88 46t125 16q69 0 123 -14t91.5 -39t57 -59t19.5 -74q0 -69 -40.5 -118t-137.5 -57v-2q45 -6 82.5 -16t65 -29.5t42.5 -50t15 -78.5q0 -45 -20.5 -79.5t-54.5 -58t-78 -35.5t-92 -12q-51 0 -102.5 9t-98.5 35z" />
    <glyph glyph-name="agrave" unicode="&#xe0;" horiz-adv-x="692" 
d="M296 298q102 9 150 24.5t48 49.5v5q0 16 -13 28t-36 20t-53.5 12t-65.5 4q-63 0 -113 -20.5t-98 -62.5l-59 49q123 105 273 105q119 0 180 -39.5t61 -111.5v-223q0 -43 13 -58t50 -15q17 0 35 3l14 -66q-34 -8 -67 -8q-54 0 -84.5 21.5t-35.5 62.5h-4q-36 -46 -97 -68
t-144 -22q-47 0 -86 10.5t-67.5 29t-44 44t-15.5 56.5q0 37 13.5 66t44.5 50t80 34.5t121 19.5zM124 131q0 -35 37.5 -53.5t100.5 -18.5q60 0 104 15.5t72.5 38.5t42 48.5t13.5 46.5v66q-58 -31 -185 -41q-98 -7 -141.5 -29t-43.5 -73zM354 757l93 -170h-69l-123 170h99z
" />
    <glyph glyph-name="aacute" unicode="&#xe1;" horiz-adv-x="692" 
d="M296 298q102 9 150 24.5t48 49.5v5q0 16 -13 28t-36 20t-53.5 12t-65.5 4q-63 0 -113 -20.5t-98 -62.5l-59 49q123 105 273 105q119 0 180 -39.5t61 -111.5v-223q0 -43 13 -58t50 -15q17 0 35 3l14 -66q-34 -8 -67 -8q-54 0 -84.5 21.5t-35.5 62.5h-4q-36 -46 -97 -68
t-144 -22q-47 0 -86 10.5t-67.5 29t-44 44t-15.5 56.5q0 37 13.5 66t44.5 50t80 34.5t121 19.5zM124 131q0 -35 37.5 -53.5t100.5 -18.5q60 0 104 15.5t72.5 38.5t42 48.5t13.5 46.5v66q-58 -31 -185 -41q-98 -7 -141.5 -29t-43.5 -73zM337 757h99l-123 -170h-69z" />
    <glyph glyph-name="acircumflex" unicode="&#xe2;" horiz-adv-x="692" 
d="M296 298q102 9 150 24.5t48 49.5v5q0 16 -13 28t-36 20t-53.5 12t-65.5 4q-63 0 -113 -20.5t-98 -62.5l-59 49q123 105 273 105q119 0 180 -39.5t61 -111.5v-223q0 -43 13 -58t50 -15q17 0 35 3l14 -66q-34 -8 -67 -8q-54 0 -84.5 21.5t-35.5 62.5h-4q-36 -46 -97 -68
t-144 -22q-47 0 -86 10.5t-67.5 29t-44 44t-15.5 56.5q0 37 13.5 66t44.5 50t80 34.5t121 19.5zM124 131q0 -35 37.5 -53.5t100.5 -18.5q60 0 104 15.5t72.5 38.5t42 48.5t13.5 46.5v66q-58 -31 -185 -41q-98 -7 -141.5 -29t-43.5 -73zM304 735h85l119 -141h-69l-92 83
l-93 -83h-69z" />
    <glyph glyph-name="atilde" unicode="&#xe3;" horiz-adv-x="692" 
d="M296 298q102 9 150 24.5t48 49.5v5q0 16 -13 28t-36 20t-53.5 12t-65.5 4q-63 0 -113 -20.5t-98 -62.5l-59 49q123 105 273 105q119 0 180 -39.5t61 -111.5v-223q0 -43 13 -58t50 -15q17 0 35 3l14 -66q-34 -8 -67 -8q-54 0 -84.5 21.5t-35.5 62.5h-4q-36 -46 -97 -68
t-144 -22q-47 0 -86 10.5t-67.5 29t-44 44t-15.5 56.5q0 37 13.5 66t44.5 50t80 34.5t121 19.5zM124 131q0 -35 37.5 -53.5t100.5 -18.5q60 0 104 15.5t72.5 38.5t42 48.5t13.5 46.5v66q-58 -31 -185 -41q-98 -7 -141.5 -29t-43.5 -73zM261 708q27 0 51.5 -7.5t47.5 -20.5
q27 -15 44.5 -18t28.5 -3q19 0 22.5 17.5t3.5 37.5h62q3 -51 -14 -85t-60 -34q-26 0 -49 8t-50 17q-20 8 -43.5 17t-41.5 10q-19 0 -24.5 -18t-7.5 -40h-60q-1 23 3.5 44.5t15 38t28 26.5t43.5 10z" />
    <glyph glyph-name="adieresis" unicode="&#xe4;" horiz-adv-x="692" 
d="M296 298q102 9 150 24.5t48 49.5v5q0 16 -13 28t-36 20t-53.5 12t-65.5 4q-63 0 -113 -20.5t-98 -62.5l-59 49q123 105 273 105q119 0 180 -39.5t61 -111.5v-223q0 -43 13 -58t50 -15q17 0 35 3l14 -66q-34 -8 -67 -8q-54 0 -84.5 21.5t-35.5 62.5h-4q-36 -46 -97 -68
t-144 -22q-47 0 -86 10.5t-67.5 29t-44 44t-15.5 56.5q0 37 13.5 66t44.5 50t80 34.5t121 19.5zM124 131q0 -35 37.5 -53.5t100.5 -18.5q60 0 104 15.5t72.5 38.5t42 48.5t13.5 46.5v66q-58 -31 -185 -41q-98 -7 -141.5 -29t-43.5 -73zM406 600v88h82v-88h-82zM205 600v88
h81v-88h-81z" />
    <glyph glyph-name="aring" unicode="&#xe5;" horiz-adv-x="692" 
d="M491 78q-36 -46 -97 -68t-144 -22q-47 0 -86 10.5t-67.5 29t-44 44t-15.5 56.5q0 37 13.5 66t44.5 50t80 34.5t121 19.5q102 9 150 24.5t48 49.5v5q0 16 -13 28t-36 20t-53.5 12t-65.5 4q-63 0 -113 -20.5t-98 -62.5l-59 49q123 105 273 105q119 0 180 -39.5t61 -111.5
v-223q0 -43 13 -58t50 -15q17 0 35 3l14 -66q-34 -8 -67 -8q-54 0 -84.5 21.5t-35.5 62.5h-4zM124 131q0 -35 37.5 -53.5t100.5 -18.5q60 0 104 15.5t72.5 38.5t42 48.5t13.5 46.5v66q-58 -31 -185 -41q-98 -7 -141.5 -29t-43.5 -73zM339 563q-30 0 -52.5 10.5t-37.5 27
t-22.5 38.5t-7.5 44q0 23 7.5 44.5t22.5 38t37.5 27t52.5 10.5t52 -10.5t37 -27t22.5 -38t7.5 -44.5q0 -22 -7.5 -44t-22.5 -38.5t-37 -27t-52 -10.5zM339 618q32 0 48 20t16 45t-16 47t-48 22t-48.5 -22t-16.5 -47t16.5 -45t48.5 -20z" />
    <glyph glyph-name="ae" unicode="&#xe6;" horiz-adv-x="1150" 
d="M273 46q52 0 92 13t68.5 33t46 44t23.5 46q-9 36 -9 77v9q-31 -14 -74 -22.5t-103 -13.5q-101 -7 -145.5 -29.5t-44.5 -75.5q0 -35 38.5 -58t107.5 -23zM804 444q-38 0 -73 -6.5t-64 -22t-52 -41t-37 -62.5l-1 -3h441q-11 39 -31.5 65t-48.5 41.5t-62 22t-72 6.5zM808 57
q64 0 119.5 20t93.5 75l74 -17q-18 -39 -50 -67.5t-71.5 -47.5t-83.5 -28.5t-87 -9.5q-37 0 -76 7.5t-75 23t-66.5 39.5t-51.5 58q-15 -25 -30 -37q-37 -48 -100 -70.5t-148 -22.5q-48 0 -88 10.5t-69.5 30t-45.5 46t-16 57.5q0 38 14 67.5t45.5 51.5t82.5 35.5t124 20.5
q105 9 154.5 25t49.5 51v5q0 17 -13.5 29t-37 20.5t-54.5 12.5t-67 4q-65 0 -116.5 -21t-101.5 -64l-61 50q65 55 135.5 81.5t146.5 26.5q89 0 146 -21.5t83 -62.5q45 46 105 64.5t119 18.5t116 -16.5t101.5 -49t72 -81t27.5 -111.5l1 -21h-535q16 -99 77 -140.5t157 -41.5z
" />
    <glyph glyph-name="ccedilla" unicode="&#xe7;" horiz-adv-x="676" 
d="M641 163q-18 -43 -48 -75t-67.5 -53.5t-80.5 -33t-88 -12.5l-15 -46q96 -15 96 -92q0 -92 -125 -92q-17 0 -35 2t-37 5l-4 1v62l5 -1q38 -7 65 -7q20 0 40.5 6.5t20.5 30.5q0 18 -18 26q-19 9 -64 9h-20l32 99q-53 6 -99 25.5t-80.5 52t-54.5 78t-20 103.5q0 64 24 114
t65 84t96 52t117 18q42 0 87.5 -9t86 -29t71.5 -52.5t45 -79.5l-65 -18q-15 33 -40.5 55.5t-56 36t-63 19t-62.5 5.5q-48 0 -89.5 -13t-73 -37.5t-49.5 -61t-18 -83.5q0 -48 18.5 -83t49.5 -58.5t71 -34.5t83 -11q78 0 134.5 25.5t100.5 91.5z" />
    <glyph glyph-name="egrave" unicode="&#xe8;" horiz-adv-x="683" 
d="M84 387q40 58 104.5 88t149.5 30q87 0 152.5 -32.5t107.5 -86t43 -131.5l1 -21h-520q13 -82 66 -129.5t161 -47.5q73 0 123 22.5t84 70.5l73 -17q-29 -61 -105.5 -105t-175.5 -44q-87 0 -158.5 33.5t-108.5 94.5t-37 137q0 79 40 138zM124 302h430q-19 63 -70 96.5
t-140 33.5q-88 0 -142 -33.5t-78 -96.5zM251 757h99l92 -170h-69z" />
    <glyph glyph-name="eacute" unicode="&#xe9;" horiz-adv-x="683" 
d="M44 249q0 79 40 137.5t104.5 88.5t149.5 30q87 0 152.5 -32.5t107.5 -86t43 -131.5l1 -21h-520q13 -82 66 -129.5t161 -47.5q73 0 123 22.5t84 70.5l73 -17q-29 -61 -105.5 -105t-175.5 -44q-87 0 -158.5 33.5t-108.5 94.5t-37 137zM554 302q-19 63 -70 96.5t-140 33.5
q-88 0 -142 -33.5t-78 -96.5h430zM332 757h99l-122 -170h-69z" />
    <glyph glyph-name="ecircumflex" unicode="&#xea;" horiz-adv-x="683" 
d="M44 249q0 79 40 137.5t104.5 88.5t149.5 30q87 0 152.5 -32.5t107.5 -86t43 -131.5l1 -21h-520q13 -82 66 -129.5t161 -47.5q73 0 123 22.5t84 70.5l73 -17q-29 -61 -105.5 -105t-175.5 -44q-87 0 -158.5 33.5t-108.5 94.5t-37 137zM124 302h430q-19 63 -70 96.5
t-140 33.5q-88 0 -142 -33.5t-78 -96.5zM298 739h85l119 -141h-69l-92 83l-93 -83h-69z" />
    <glyph glyph-name="edieresis" unicode="&#xeb;" horiz-adv-x="683" 
d="M84 387q40 58 104.5 88t149.5 30q87 0 152.5 -32.5t107.5 -86t43 -131.5l1 -21h-520q13 -82 66 -129.5t161 -47.5q73 0 123 22.5t84 70.5l73 -17q-29 -61 -105.5 -105t-175.5 -44q-87 0 -158.5 33.5t-108.5 94.5t-37 137q0 79 40 138zM124 302h430q-19 63 -70 96.5
t-140 33.5q-88 0 -142 -33.5t-78 -96.5zM401 600v88h82v-88h-82zM200 688h82v-88h-82v88z" />
    <glyph glyph-name="igrave" unicode="&#xec;" horiz-adv-x="220" 
d="M73 502h77v-502h-77v502zM90 762l93 -171h-70l-123 171h100z" />
    <glyph glyph-name="iacute" unicode="&#xed;" horiz-adv-x="227" 
d="M73 502h77v-502h-77v502zM109 591h-69l93 171h100z" />
    <glyph glyph-name="icircumflex" unicode="&#xee;" horiz-adv-x="223" 
d="M74 503h78v-509h-78v509zM156 756l121 -143h-70l-94 84l-94 -84h-71l122 143h86z" />
    <glyph glyph-name="idieresis" unicode="&#xef;" horiz-adv-x="227" 
d="M77 502h78v-502h-78v502zM176 692h82v-88h-82v88zM-27 692h83v-88h-83v88z" />
    <glyph glyph-name="eth" unicode="&#xf0;" horiz-adv-x="667" 
d="M309 50q46 0 86.5 11.5t71 33t48 51.5t17.5 67q0 24 -15.5 50t-44 47.5t-69 35.5t-90.5 14q-40 0 -77 -10t-64.5 -30t-44 -49.5t-16.5 -67.5q0 -36 15 -64.5t41 -48t62.5 -30t79.5 -10.5zM467 615q142 -112 142 -316q0 -149 -75 -231t-218 -82q-63 0 -113 16t-85.5 45
t-54.5 69.5t-19 88.5q0 49 19 89t53.5 69t83 45t107.5 16q81 0 142 -28.5t90 -76.5q0 89 -31.5 149t-88.5 102l-91 -85l-40 40l80 76q-36 20 -79 35t-94 29l37 49q108 -21 186 -66l60 57l41 -42z" />
    <glyph glyph-name="ntilde" unicode="&#xf1;" horiz-adv-x="778" 
d="M628 253q0 55 -14 92t-41.5 59.5t-67.5 32t-91 9.5q-49 0 -96 -9t-83.5 -31.5t-59 -60.5t-22.5 -96v-249h-78v500h78v-82q54 54 116 74.5t137 20.5q66 0 121 -14t94.5 -45.5t62 -80.5t22.5 -120v-253h-78v253zM209 601v7q0 46 22 78t73 32q26 0 48.5 -8.5t45.5 -19.5
q16 -8 31 -14.5t31 -6.5q27 0 32 18t5 37h62l1 -20q0 -39 -17 -68t-62 -29q-24 0 -49 8.5t-48 18.5q-20 9 -38 16t-34 7q-26 0 -33.5 -18t-9.5 -38h-60z" />
    <glyph glyph-name="ograve" unicode="&#xf2;" horiz-adv-x="698" 
d="M346 56q72 0 117.5 18t72 46.5t36.5 64t10 70.5q0 57 -19.5 94t-51.5 59t-73 31t-85 9q-109 0 -172 -49t-63 -152q0 -51 16.5 -87.5t46.5 -59.5t72 -33.5t93 -10.5zM348 -12q-66 0 -121.5 18.5t-96 52.5t-63.5 82t-23 107t23 107.5t63.5 83.5t97.5 54.5t124 19.5
q66 0 121.5 -19t95.5 -53.5t62.5 -82.5t22.5 -107q0 -60 -23 -108.5t-63.5 -83t-97 -53t-122.5 -18.5zM231 757h99l93 -170h-69z" />
    <glyph glyph-name="oacute" unicode="&#xf3;" horiz-adv-x="698" 
d="M346 56q72 0 117.5 18t72 46.5t36.5 64t10 70.5q0 57 -19.5 94t-51.5 59t-73 31t-85 9q-109 0 -172 -49t-63 -152q0 -51 16.5 -87.5t46.5 -59.5t72 -33.5t93 -10.5zM348 -12q-66 0 -121.5 18.5t-96 52.5t-63.5 82t-23 107t23 107.5t63.5 83.5t97.5 54.5t124 19.5
q66 0 121.5 -19t95.5 -53.5t62.5 -82.5t22.5 -107q0 -60 -23 -108.5t-63.5 -83t-97 -53t-122.5 -18.5zM256 587l92 170h99l-122 -170h-69z" />
    <glyph glyph-name="ocircumflex" unicode="&#xf4;" horiz-adv-x="698" 
d="M346 56q72 0 117.5 18t72 46.5t36.5 64t10 70.5q0 57 -19.5 94t-51.5 59t-73 31t-85 9q-109 0 -172 -49t-63 -152q0 -51 16.5 -87.5t46.5 -59.5t72 -33.5t93 -10.5zM348 -12q-66 0 -121.5 18.5t-96 52.5t-63.5 82t-23 107t23 107.5t63.5 83.5t97.5 54.5t124 19.5
q66 0 121.5 -19t95.5 -53.5t62.5 -82.5t22.5 -107q0 -60 -23 -108.5t-63.5 -83t-97 -53t-122.5 -18.5zM259 611h-69l119 141h85l119 -141h-69l-92 83z" />
    <glyph glyph-name="otilde" unicode="&#xf5;" horiz-adv-x="698" 
d="M346 56q72 0 117.5 18t72 46.5t36.5 64t10 70.5q0 57 -19.5 94t-51.5 59t-73 31t-85 9q-109 0 -172 -49t-63 -152q0 -51 16.5 -87.5t46.5 -59.5t72 -33.5t93 -10.5zM348 -12q-66 0 -121.5 18.5t-96 52.5t-63.5 82t-23 107t23 107.5t63.5 83.5t97.5 54.5t124 19.5
q66 0 121.5 -19t95.5 -53.5t62.5 -82.5t22.5 -107q0 -60 -23 -108.5t-63.5 -83t-97 -53t-122.5 -18.5zM178 601v7q0 46 22 78t73 32q26 0 48.5 -8.5t45.5 -19.5q17 -8 32 -14.5t30 -6.5q27 0 32 18t5 37h62l1 -20q0 -39 -17 -68t-62 -29q-24 0 -49 8.5t-48 18.5
q-20 9 -38 16t-34 7q-26 0 -33.5 -18t-9.5 -38h-60z" />
    <glyph glyph-name="odieresis" unicode="&#xf6;" horiz-adv-x="698" 
d="M346 56q72 0 117.5 18t72 46.5t36.5 64t10 70.5q0 57 -19.5 94t-51.5 59t-73 31t-85 9q-109 0 -172 -49t-63 -152q0 -51 16.5 -87.5t46.5 -59.5t72 -33.5t93 -10.5zM348 -12q-66 0 -121.5 18.5t-96 52.5t-63.5 82t-23 107t23 107.5t63.5 83.5t97.5 54.5t124 19.5
q66 0 121.5 -19t95.5 -53.5t62.5 -82.5t22.5 -107q0 -60 -23 -108.5t-63.5 -83t-97 -53t-122.5 -18.5zM212 668h81v-88h-81v88zM413 668h82v-88h-82v88z" />
    <glyph glyph-name="divide" unicode="&#xf7;" horiz-adv-x="759" 
d="M82 327v76h595v-76h-595zM429 230v-106h-99v106h99zM330 500v106h99v-106h-99z" />
    <glyph glyph-name="oslash" unicode="&#xf8;" horiz-adv-x="714" 
d="M356 47q73 0 119 18.5t72.5 48.5t36.5 66.5t10 72.5q0 42 -10.5 73t-29.5 53.5t-44 37t-55 22.5l-139 -390zM120 245q0 -73 32.5 -117.5t89.5 -63.5l137 385l-21 1q-108 0 -173 -50t-65 -155zM476 500q90 -27 142 -93t52 -158q0 -61 -23.5 -111t-65.5 -85.5t-99.5 -54.5
t-125.5 -19q-30 0 -63 5l-33 -92h-79l39 110q-81 30 -128.5 93t-47.5 151q0 60 23.5 110t65 86t99 56t124.5 20q24 0 46 -3l36 102h80z" />
    <glyph glyph-name="ugrave" unicode="&#xf9;" horiz-adv-x="778" 
d="M150 247q0 -56 14.5 -93t42 -59.5t67.5 -31.5t90 -9q53 0 100.5 10t83 33t56.5 61t21 93v249h78v-500h-78v82q-49 -49 -108.5 -72t-145.5 -23q-149 0 -224 66.5t-75 193.5v253h78v-253zM268 757h99l93 -170h-69z" />
    <glyph glyph-name="uacute" unicode="&#xfa;" horiz-adv-x="778" 
d="M150 247q0 -56 14.5 -93t42 -59.5t67.5 -31.5t90 -9q53 0 100.5 10t83 33t56.5 61t21 93v249h78v-500h-78v82q-49 -49 -108.5 -72t-145.5 -23q-149 0 -224 66.5t-75 193.5v253h78v-253zM299 587l93 170h99l-123 -170h-69z" />
    <glyph glyph-name="ucircumflex" unicode="&#xfb;" horiz-adv-x="778" 
d="M150 247q0 -56 14.5 -93t42 -59.5t67.5 -31.5t90 -9q53 0 100.5 10t83 33t56.5 61t21 93v249h78v-500h-78v82q-49 -49 -108.5 -72t-145.5 -23q-149 0 -224 66.5t-75 193.5v253h78v-253zM280 597h-69l119 141h85l119 -141h-69l-92 83z" />
    <glyph glyph-name="udieresis" unicode="&#xfc;" horiz-adv-x="778" 
d="M150 247q0 -56 14.5 -93t42 -59.5t67.5 -31.5t90 -9q53 0 100.5 10t83 33t56.5 61t21 93v249h78v-500h-78v82q-49 -49 -108.5 -72t-145.5 -23q-149 0 -224 66.5t-75 193.5v253h78v-253zM233 689h82v-88h-82v88zM434 689h82v-88h-82v88z" />
    <glyph glyph-name="yacute" unicode="&#xfd;" horiz-adv-x="672" 
d="M397 32l-26 -49q-16 -32 -35 -65t-43 -59.5t-54.5 -43.5t-71.5 -17q-26 0 -56.5 6.5t-56.5 16.5l22 64q20 -8 42 -13t44 -5q21 0 37.5 5.5t32 19.5t32 38.5t37.5 62.5l-287 506h95q59 -109 116 -217.5t113 -218.5q57 111 116 219t120 217h88zM285 587l93 170h99
l-123 -170h-69z" />
    <glyph glyph-name="thorn" unicode="&#xfe;" horiz-adv-x="760" 
d="M643 249q0 39 -15.5 75.5t-47 65t-77.5 46t-108 17.5q-48 0 -91.5 -12t-77.5 -36t-54 -61t-20 -87q0 -49 19.5 -86.5t52.5 -63t77 -38.5t93 -13q48 0 93 12.5t79.5 37t55.5 60.5t21 83zM716 259q0 -60 -23.5 -110t-65.5 -85.5t-99.5 -55t-125.5 -19.5q-85 0 -143.5 23
t-106.5 71v-334h-78v951h78v-276q39 46 102 69.5t144 23.5q73 0 131.5 -18.5t100 -52.5t64 -81.5t22.5 -105.5z" />
    <glyph glyph-name="ydieresis" unicode="&#xff;" horiz-adv-x="672" 
d="M397 32l-26 -49q-16 -32 -35 -65t-43 -59.5t-54.5 -43.5t-71.5 -17q-26 0 -56.5 6.5t-56.5 16.5l22 64q20 -8 42 -13t44 -5q21 0 37.5 5.5t32 19.5t32 38.5t37.5 62.5l-287 506h95q59 -109 116 -217.5t113 -218.5q57 111 116 219t120 217h88zM198 688h82v-88h-82v88z
M400 688h81v-88h-81v88z" />
    <glyph glyph-name="Amacron" unicode="&#x100;" horiz-adv-x="908" 
d="M695 161h-481l-92 -161h-110l411 701h62l411 -701h-110zM657 244q-49 89 -99 177t-105 173q-54 -86 -104 -173.5t-100 -176.5h408zM312 842h276v-66h-276v66z" />
    <glyph glyph-name="amacron" unicode="&#x101;" horiz-adv-x="692" 
d="M296 298q102 9 150 24.5t48 49.5v5q0 16 -13 28t-36 20t-53.5 12t-65.5 4q-63 0 -113 -20.5t-98 -62.5l-59 49q123 105 273 105q119 0 180 -39.5t61 -111.5v-223q0 -43 13 -58t50 -15q17 0 35 3l14 -66q-34 -8 -67 -8q-54 0 -84.5 21.5t-35.5 62.5h-4q-36 -46 -97 -68
t-144 -22q-47 0 -86 10.5t-67.5 29t-44 44t-15.5 56.5q0 37 13.5 66t44.5 50t80 34.5t121 19.5zM124 131q0 -35 37.5 -53.5t100.5 -18.5q60 0 104 15.5t72.5 38.5t42 48.5t13.5 46.5v66q-58 -31 -185 -41q-98 -7 -141.5 -29t-43.5 -73zM487 684v-66h-276v66h276z" />
    <glyph glyph-name="Abreve" unicode="&#x102;" horiz-adv-x="908" 
d="M695 161h-481l-92 -161h-110l411 701h62l411 -701h-110zM657 244q-49 89 -99 177t-105 173q-54 -86 -104 -173.5t-100 -176.5h408zM589 900q0 -5 -2.5 -27t-15.5 -46t-40.5 -43t-77.5 -19q-65 0 -102.5 35.5t-39.5 99.5l45 13q0 -4 1.5 -20t10.5 -34t29 -32.5t56 -14.5
q32 0 50 11t28 26.5t12.5 31.5t2.5 25v7z" />
    <glyph glyph-name="abreve" unicode="&#x103;" horiz-adv-x="692" 
d="M296 298q102 9 150 24.5t48 49.5v5q0 16 -13 28t-36 20t-53.5 12t-65.5 4q-63 0 -113 -20.5t-98 -62.5l-59 49q123 105 273 105q119 0 180 -39.5t61 -111.5v-223q0 -43 13 -58t50 -15q17 0 35 3l14 -66q-34 -8 -67 -8q-54 0 -84.5 21.5t-35.5 62.5h-4q-36 -46 -97 -68
t-144 -22q-47 0 -86 10.5t-67.5 29t-44 44t-15.5 56.5q0 37 13.5 66t44.5 50t80 34.5t121 19.5zM262 59q60 0 104 15.5t72.5 38.5t42 48.5t13.5 46.5v66q-58 -31 -185 -41q-98 -7 -141.5 -29t-43.5 -73q0 -35 37.5 -53.5t100.5 -18.5zM207 724l45 14q0 -4 1.5 -20t10.5 -34
t29 -32.5t56 -14.5q32 0 50.5 11.5t28 27t12 31.5t2.5 24v7l43 -14q0 -5 -2.5 -26.5t-16 -45.5t-41 -43t-78.5 -19t-79 19t-41.5 43t-16.5 45.5t-3 26.5z" />
    <glyph glyph-name="Aogonek" unicode="&#x104;" horiz-adv-x="912" 
d="M249 244h406l-120 213l-84 137l-81 -135zM956 -172q-14 -9 -39.5 -16t-54.5 -7q-21 0 -41.5 5t-36 17t-25.5 32.5t-10 50.5q0 4 3 19t7.5 30.5t10.5 28t13 12.5v2l-90 160h-480l-91 -160h-110l410 698h61l410 -698h-31q-16 -16 -28 -36.5t-12 -43.5q0 -4 1 -6v-5
q4 -26 19.5 -35.5t35.5 -9.5q24 0 46 8t25 10z" />
    <glyph glyph-name="aogonek" unicode="&#x105;" horiz-adv-x="706" 
d="M501 277q-57 -32 -187 -42q-101 -8 -144.5 -30t-43.5 -74q0 -35 38 -57.5t106 -22.5q59 0 102.5 17t72 41.5t42.5 51.5t14 48v68zM717 -180q-14 -8 -39 -15t-53 -7q-20 0 -39 4.5t-34 15.5t-24 29.5t-9 45.5q0 38 14.5 64.5t30.5 43.5q-55 20 -61 76h-4q-37 -47 -99 -69
t-146 -22q-48 0 -87.5 10.5t-68.5 29.5t-45 45t-16 57q0 38 14 67.5t45 50.5t81 35t123 20q103 9 152 24.5t49 50.5v5q0 17 -13.5 29t-36.5 20t-54 12t-66 4q-63 0 -114.5 -20.5t-100.5 -63.5l-60 50q125 106 278 106q121 0 183 -39.5t62 -113.5v-227q0 -44 13 -59t51 -15
q17 0 36 3l13 -67q-27 -6 -59 -8q-17 -15 -30.5 -36.5t-13.5 -47.5q0 -51 54 -51q23 0 44 7.5t24 9.5z" />
    <glyph glyph-name="Cacute" unicode="&#x106;" horiz-adv-x="909" 
d="M462 -13q-89 0 -164.5 25t-130.5 71.5t-86 113.5t-31 151q0 87 33 155t90.5 115t135 71.5t166.5 24.5q64 0 124 -13.5t111 -40.5t90.5 -68t63.5 -97l-82 -23q-18 43 -48.5 73.5t-71 50t-89 29t-100.5 9.5q-66 0 -126 -15.5t-105.5 -50t-73 -90.5t-27.5 -137
q0 -70 26 -121t70 -84.5t102.5 -50t123.5 -16.5q113 0 195 38.5t126 133.5l85 -26q-22 -56 -63.5 -98.5t-95 -71.5t-117 -43.5t-131.5 -14.5zM393 771l92 170h99l-122 -170h-69z" />
    <glyph glyph-name="cacute" unicode="&#x107;" horiz-adv-x="676" 
d="M344 -16q-60 0 -114.5 17t-96 50t-65.5 82.5t-24 113.5t24 114t65.5 84t96.5 52t117 18q42 0 87 -9t85.5 -29t72 -52.5t44.5 -79.5l-64 -18q-15 33 -40.5 55t-57 35t-66 18.5t-68.5 5.5q-44 0 -84 -12.5t-70.5 -37t-48.5 -61t-18 -83.5q0 -48 18.5 -83.5t49.5 -59t71 -35
t83 -11.5q78 0 134.5 27t100.5 93l65 -20q-19 -45 -50 -77.5t-70.5 -54t-84.5 -32t-92 -10.5zM289 581l93 170h99l-123 -170h-69z" />
    <glyph glyph-name="Ccircumflex" unicode="&#x108;" horiz-adv-x="909" 
d="M462 -13q-89 0 -164.5 25t-130.5 71.5t-86 113.5t-31 151q0 87 33 155t90.5 115t135 71.5t166.5 24.5q64 0 124 -13.5t111 -40.5t90.5 -68t63.5 -97l-82 -23q-18 43 -48.5 73.5t-71 50t-89 29t-100.5 9.5q-66 0 -126 -15.5t-105.5 -50t-73 -90.5t-27.5 -137
q0 -70 26 -121t70 -84.5t102.5 -50t123.5 -16.5q113 0 195 38.5t126 133.5l85 -26q-22 -56 -63.5 -98.5t-95 -71.5t-117 -43.5t-131.5 -14.5zM370 759h-69l119 141h85l119 -141h-69l-92 83z" />
    <glyph glyph-name="ccircumflex" unicode="&#x109;" horiz-adv-x="676" 
d="M344 -16q-60 0 -114.5 17t-96 50t-65.5 82.5t-24 113.5t24 114t65.5 84t96.5 52t117 18q42 0 87 -9t85.5 -29t72 -52.5t44.5 -79.5l-64 -18q-15 33 -40.5 55t-57 35t-66 18.5t-68.5 5.5q-44 0 -84 -12.5t-70.5 -37t-48.5 -61t-18 -83.5q0 -48 18.5 -83.5t49.5 -59t71 -35
t83 -11.5q78 0 134.5 27t100.5 93l65 -20q-19 -45 -50 -77.5t-70.5 -54t-84.5 -32t-92 -10.5zM252 603h-69l119 141h85l119 -141h-69l-92 83z" />
    <glyph glyph-name="Cdotaccent" unicode="&#x10a;" horiz-adv-x="909" 
d="M462 -13q-89 0 -164.5 25t-130.5 71.5t-86 113.5t-31 151q0 87 33 155t90.5 115t135 71.5t166.5 24.5q64 0 124 -13.5t111 -40.5t90.5 -68t63.5 -97l-82 -23q-18 43 -48.5 73.5t-71 50t-89 29t-100.5 9.5q-66 0 -126 -15.5t-105.5 -50t-73 -90.5t-27.5 -137
q0 -70 26 -121t70 -84.5t102.5 -50t123.5 -16.5q113 0 195 38.5t126 133.5l85 -26q-22 -56 -63.5 -98.5t-95 -71.5t-117 -43.5t-131.5 -14.5zM434 860h73v-78h-73v78z" />
    <glyph glyph-name="cdotaccent" unicode="&#x10b;" horiz-adv-x="676" 
d="M344 -16q-60 0 -114.5 17t-96 50t-65.5 82.5t-24 113.5t24 114t65.5 84t96.5 52t117 18q42 0 87 -9t85.5 -29t72 -52.5t44.5 -79.5l-64 -18q-15 33 -40.5 55t-57 35t-66 18.5t-68.5 5.5q-44 0 -84 -12.5t-70.5 -37t-48.5 -61t-18 -83.5q0 -48 18.5 -83.5t49.5 -59t71 -35
t83 -11.5q78 0 134.5 27t100.5 93l65 -20q-19 -45 -50 -77.5t-70.5 -54t-84.5 -32t-92 -10.5zM313 706h73v-79h-73v79z" />
    <glyph glyph-name="Ccaron" unicode="&#x10c;" horiz-adv-x="909" 
d="M462 -13q-89 0 -164.5 25t-130.5 71.5t-86 113.5t-31 151q0 87 33 155t90.5 115t135 71.5t166.5 24.5q64 0 124 -13.5t111 -40.5t90.5 -68t63.5 -97l-82 -23q-18 43 -48.5 73.5t-71 50t-89 29t-100.5 9.5q-66 0 -126 -15.5t-105.5 -50t-73 -90.5t-27.5 -137
q0 -70 26 -121t70 -84.5t102.5 -50t123.5 -16.5q113 0 195 38.5t126 133.5l85 -26q-22 -56 -63.5 -98.5t-95 -71.5t-117 -43.5t-131.5 -14.5zM313 902h69l93 -83l92 83h69l-119 -141h-85z" />
    <glyph glyph-name="ccaron" unicode="&#x10d;" horiz-adv-x="676" 
d="M344 -16q-60 0 -114.5 17t-96 50t-65.5 82.5t-24 113.5t24 114t65.5 84t96.5 52t117 18q42 0 87 -9t85.5 -29t72 -52.5t44.5 -79.5l-64 -18q-15 33 -40.5 55t-57 35t-66 18.5t-68.5 5.5q-44 0 -84 -12.5t-70.5 -37t-48.5 -61t-18 -83.5q0 -48 18.5 -83.5t49.5 -59t71 -35
t83 -11.5q78 0 134.5 27t100.5 93l65 -20q-19 -45 -50 -77.5t-70.5 -54t-84.5 -32t-92 -10.5zM183 750h69l93 -83l92 83h69l-119 -141h-85z" />
    <glyph glyph-name="Dcaron" unicode="&#x10e;" horiz-adv-x="983" 
d="M552 81q82 0 137 13.5t88.5 45t47.5 83.5t14 128q0 79 -14.5 130.5t-48.5 82t-89 42.5t-135 12h-372v-537h372zM85 699h494q95 0 162 -19.5t109.5 -61.5t62.5 -108.5t20 -159.5t-20 -159.5t-62.5 -109t-109.5 -62.5t-162 -20h-494v700zM325 892h69l93 -83l92 83h69
l-119 -141h-85z" />
    <glyph glyph-name="dcaron" unicode="&#x10f;" horiz-adv-x="817" 
d="M122 259q0 -39 15.5 -76t46 -65.5t77 -46t108.5 -17.5q48 0 93 11.5t79 36t54.5 61.5t20.5 88q0 50 -20 88t-53.5 64t-78 39.5t-93.5 13.5t-94 -13t-79.5 -38t-55 -61.5t-20.5 -84.5zM44 249q0 61 24 111.5t66.5 86.5t101 56t127.5 20q85 0 144.5 -23.5t108.5 -72.5v274
h78v-700h-78v80q-40 -46 -103.5 -70t-146.5 -24q-73 0 -132.5 19t-101.5 53.5t-65 82.5t-23 107zM780 523v177h81l-27 -177h-54z" />
    <glyph glyph-name="Dcroat" unicode="&#x110;" horiz-adv-x="1057" 
d="M626 82q82 0 137 13.5t88 45t47 83t14 127.5q0 79 -14.5 130.5t-48 82t-88.5 42.5t-135 12h-373v-229h170v-72h-170v-235h373zM653 700q94 0 161 -19.5t110 -61.5t63 -108.5t20 -159.5t-20 -159.5t-63 -109t-110 -62.5t-161 -20h-494v317h-147v72h147v311h494z" />
    <glyph glyph-name="dcroat" unicode="&#x111;" horiz-adv-x="803" 
d="M369 53q49 0 93.5 11.5t78.5 35.5t54.5 61t20.5 88q0 50 -19.5 88.5t-53.5 64.5t-78 39.5t-94 13.5q-49 0 -94 -13t-79.5 -38t-55 -61.5t-20.5 -84.5q0 -39 15.5 -76t46 -65.5t77 -46t108.5 -17.5zM803 648v-66h-108v-583h-79v81q-39 -47 -102.5 -71t-147.5 -24
q-73 0 -132.5 19t-101.5 53.5t-65 83t-23 107.5q0 61 24 111.5t66.5 86.5t101 56t127.5 20q86 0 145.5 -23.5t107.5 -72.5v156h-148v66h148v52h79v-52h108z" />
    <glyph glyph-name="Emacron" unicode="&#x112;" horiz-adv-x="808" 
d="M164 619v-220h537v-81h-537v-236h575v-82h-669v700h669v-81h-575zM266 835h276v-66h-276v66z" />
    <glyph glyph-name="emacron" unicode="&#x113;" horiz-adv-x="683" 
d="M84 387q40 58 104.5 88t149.5 30q87 0 152.5 -32.5t107.5 -86t43 -131.5l1 -21h-520q13 -82 66 -129.5t161 -47.5q73 0 123 22.5t84 70.5l73 -17q-29 -61 -105.5 -105t-175.5 -44q-87 0 -158.5 33.5t-108.5 94.5t-37 137q0 79 40 138zM124 302h430q-19 63 -70 96.5
t-140 33.5q-88 0 -142 -33.5t-78 -96.5zM204 596v66h276v-66h-276z" />
    <glyph glyph-name="Ebreve" unicode="&#x114;" horiz-adv-x="808" 
d="M164 619v-220h537v-81h-537v-236h575v-82h-669v700h669v-81h-575zM542 888q0 -5 -2.5 -27t-16 -46t-41 -43t-78.5 -19t-79 19t-41.5 43t-16 46t-2.5 27l44 13q0 -4 1.5 -20t10.5 -34t29 -32.5t56 -14.5q34 0 53 13t28 29.5t11 32.5t2 23v3z" />
    <glyph glyph-name="ebreve" unicode="&#x115;" horiz-adv-x="683" 
d="M84 387q40 58 104.5 88t149.5 30q87 0 152.5 -32.5t107.5 -86t43 -131.5l1 -21h-520q13 -82 66 -129.5t161 -47.5q73 0 123 22.5t84 70.5l73 -17q-29 -61 -105.5 -105t-175.5 -44q-87 0 -158.5 33.5t-108.5 94.5t-37 137q0 79 40 138zM124 302h430q-19 63 -70 96.5
t-140 33.5q-88 0 -142 -33.5t-78 -96.5zM203 694l44 14q0 -4 1.5 -20t10.5 -34t29 -32.5t56 -14.5q34 0 53 13t28 29.5t11 32.5t2 23v3l42 -14q0 -5 -2.5 -26.5t-16 -45.5t-41 -43t-78.5 -19t-79 19t-41.5 43t-16 45.5t-2.5 26.5z" />
    <glyph glyph-name="Edotaccent" unicode="&#x116;" horiz-adv-x="808" 
d="M164 619v-220h537v-81h-537v-236h575v-82h-669v700h669v-81h-575zM371 836h74v-79h-74v79z" />
    <glyph glyph-name="edotaccent" unicode="&#x117;" horiz-adv-x="683" 
d="M44 249q0 79 40 137.5t104.5 88.5t149.5 30q87 0 152.5 -32.5t107.5 -86t43 -131.5l1 -21h-520q13 -82 66 -129.5t161 -47.5q73 0 123 22.5t84 70.5l73 -17q-29 -61 -105.5 -105t-175.5 -44q-87 0 -158.5 33.5t-108.5 94.5t-37 137zM554 302q-19 63 -70 96.5t-140 33.5
q-88 0 -142 -33.5t-78 -96.5h430zM305 617v79h73v-79h-73z" />
    <glyph glyph-name="Eogonek" unicode="&#x118;" horiz-adv-x="797" 
d="M752 619h-574v-219h537v-82h-537v-235h574v-82h-70q-11 -7 -27 -19t-30.5 -28.5t-25 -36.5t-10.5 -44q0 -28 16.5 -44t46.5 -16q26 0 50 9t28 11l8 -63q-16 -9 -44 -16.5t-59 -7.5q-24 0 -47 5.5t-41 18t-29 33.5t-11 52q0 28 8.5 51.5t20 42t24.5 31.5t22 21h-497v699
h667v-81z" />
    <glyph glyph-name="eogonek" unicode="&#x119;" horiz-adv-x="683" 
d="M346 433q-75 0 -135 -29t-86 -103h430q-11 38 -31.5 63.5t-47.5 40.5t-60.5 21.5t-69.5 6.5zM353 56q62 0 114 19.5t91 73.5l72 -17q-12 -25 -31 -46.5t-43 -39t-51 -30t-53 -20.5q-22 -16 -45 -42.5t-23 -61.5q0 -24 14.5 -38t40.5 -14q23 0 44.5 8t24.5 10l7 -56
q-14 -8 -39.5 -15t-54.5 -7q-20 0 -39.5 4.5t-35 16t-25 30t-9.5 46.5q0 36 13.5 62.5t29.5 43.5q-61 0 -117.5 16t-99.5 49t-68.5 83t-25.5 117q0 65 24 113.5t64.5 80t93 47t109.5 15.5t112.5 -15.5t98.5 -47t69.5 -78.5t26.5 -109l1 -21h-521q16 -96 76.5 -136.5
t154.5 -40.5z" />
    <glyph glyph-name="Ecaron" unicode="&#x11a;" horiz-adv-x="808" 
d="M164 619v-220h537v-81h-537v-236h575v-82h-669v700h669v-81h-575zM241 905h69l93 -83l92 83h69l-119 -141h-85z" />
    <glyph glyph-name="ecaron" unicode="&#x11b;" horiz-adv-x="683" 
d="M84 387q40 58 104.5 88t149.5 30q87 0 152.5 -32.5t107.5 -86t43 -131.5l1 -21h-520q13 -82 66 -129.5t161 -47.5q73 0 123 22.5t84 70.5l73 -17q-29 -61 -105.5 -105t-175.5 -44q-87 0 -158.5 33.5t-108.5 94.5t-37 137q0 79 40 138zM124 302h430q-19 63 -70 96.5
t-140 33.5q-88 0 -142 -33.5t-78 -96.5zM249 741l93 -83l92 83h69l-119 -141h-85l-119 141h69z" />
    <glyph glyph-name="Gcircumflex" unicode="&#x11c;" horiz-adv-x="956" 
d="M473 714q57 0 118 -10t117 -35t102 -67t71 -107l-80 -23q-22 50 -60 81t-83 49t-91.5 24.5t-86.5 6.5q-65 0 -126 -15.5t-108.5 -50.5t-76.5 -91.5t-29 -138.5q0 -73 24 -124.5t67.5 -83t104 -46t133.5 -14.5q96 0 160.5 25.5t102.5 59.5t54 68t16 52v16h-369v81h463
v-371h-82v136q-22 -36 -58.5 -63.5t-82 -46.5t-98.5 -28.5t-109 -9.5q-79 0 -153.5 20t-133 62.5t-94 109t-35.5 160.5q0 93 35 163t94 117t135.5 70.5t158.5 23.5zM436 935h85l119 -141h-69l-92 83l-93 -83h-69z" />
    <glyph glyph-name="gcircumflex" unicode="&#x11d;" horiz-adv-x="696" 
d="M621 500v-431q0 -71 -22 -124.5t-62.5 -89.5t-97.5 -54t-126 -18q-141 0 -248 73l45 55q92 -56 206 -56q102 0 164.5 48.5t62.5 155.5v50q-38 -38 -93.5 -59.5t-124.5 -21.5q-60 0 -111.5 17t-89 48t-58.5 75.5t-21 98.5t21 99t59 77t90 50t113 18q67 0 122 -21t93 -59
v69h78zM332 92q65 0 106 16.5t64 42.5t32 58t9 64q0 51 -17.5 85t-46 53.5t-66 27.5t-76.5 8q-99 0 -156.5 -43.5t-57.5 -137.5q0 -93 57.5 -133.5t151.5 -40.5zM258 594h-69l119 141h85l119 -141h-69l-92 83z" />
    <glyph glyph-name="Gbreve" unicode="&#x11e;" horiz-adv-x="956" 
d="M473 714q57 0 118 -10t117 -35t102 -67t71 -107l-80 -23q-22 50 -60 81t-83 49t-91.5 24.5t-86.5 6.5q-65 0 -126 -15.5t-108.5 -50.5t-76.5 -91.5t-29 -138.5q0 -73 24 -124.5t67.5 -83t104 -46t133.5 -14.5q96 0 160.5 25.5t102.5 59.5t54 68t16 52v16h-369v81h463
v-371h-82v136q-22 -36 -58.5 -63.5t-82 -46.5t-98.5 -28.5t-109 -9.5q-79 0 -153.5 20t-133 62.5t-94 109t-35.5 160.5q0 93 35 163t94 117t135.5 70.5t158.5 23.5zM336 901l45 14q0 -4 1.5 -20t10.5 -34t28 -32.5t55 -14.5q33 0 52 12.5t29 29.5t12 33.5t2 25.5l43 -14
q0 -5 -2.5 -26.5t-16 -45.5t-41 -43t-78.5 -19t-79 19t-41.5 43t-16.5 45.5t-3 26.5z" />
    <glyph glyph-name="gbreve" unicode="&#x11f;" horiz-adv-x="696" 
d="M621 500v-431q0 -71 -22 -124.5t-62.5 -89.5t-97.5 -54t-126 -18q-141 0 -248 73l45 55q92 -56 206 -56q102 0 164.5 48.5t62.5 155.5v50q-38 -38 -93.5 -59.5t-124.5 -21.5q-60 0 -111.5 17t-89 48t-58.5 75.5t-21 98.5t21 99t59 77t90 50t113 18q67 0 122 -21t93 -59
v69h78zM332 92q65 0 106 16.5t64 42.5t32 58t9 64q0 51 -17.5 85t-46 53.5t-66 27.5t-76.5 8q-99 0 -156.5 -43.5t-57.5 -137.5q0 -93 57.5 -133.5t151.5 -40.5zM467 724q0 -5 -2.5 -26.5t-15.5 -45.5t-40.5 -43t-77.5 -19q-65 0 -102.5 35.5t-39.5 98.5l45 14
q0 -4 1.5 -20.5t10.5 -34.5t29 -32t56 -14q34 0 53 13t28 29.5t11 32.5t2 23v3z" />
    <glyph glyph-name="Gdotaccent" unicode="&#x120;" horiz-adv-x="956" 
d="M473 714q57 0 118 -10t117 -35t102 -67t71 -107l-80 -23q-22 50 -60 81t-83 49t-91.5 24.5t-86.5 6.5q-65 0 -126 -15.5t-108.5 -50.5t-76.5 -91.5t-29 -138.5q0 -73 24 -124.5t67.5 -83t104 -46t133.5 -14.5q96 0 160.5 25.5t102.5 59.5t54 68t16 52v16h-369v81h463
v-371h-82v136q-22 -36 -58.5 -63.5t-82 -46.5t-98.5 -28.5t-109 -9.5q-79 0 -153.5 20t-133 62.5t-94 109t-35.5 160.5q0 93 35 163t94 117t135.5 70.5t158.5 23.5zM515 852v-79h-74v79h74z" />
    <glyph glyph-name="gdotaccent" unicode="&#x121;" horiz-adv-x="696" 
d="M621 500v-431q0 -71 -22 -124.5t-62.5 -89.5t-97.5 -54t-126 -18q-141 0 -248 73l45 55q92 -56 206 -56q102 0 164.5 48.5t62.5 155.5v50q-38 -38 -93.5 -59.5t-124.5 -21.5q-60 0 -111.5 17t-89 48t-58.5 75.5t-21 98.5t21 99t59 77t90 50t113 18q67 0 122 -21t93 -59
v69h78zM332 92q65 0 106 16.5t64 42.5t32 58t9 64q0 51 -17.5 85t-46 53.5t-66 27.5t-76.5 8q-99 0 -156.5 -43.5t-57.5 -137.5q0 -93 57.5 -133.5t151.5 -40.5zM298 706h73v-79h-73v79z" />
    <glyph glyph-name="uni0122" unicode="&#x122;" horiz-adv-x="956" 
d="M473 714q57 0 118 -10t117 -35t102 -67t71 -107l-80 -23q-22 50 -60 81t-83 49t-91.5 24.5t-86.5 6.5q-65 0 -126 -15.5t-108.5 -50.5t-76.5 -91.5t-29 -138.5q0 -73 24 -124.5t67.5 -83t104 -46t133.5 -14.5q96 0 160.5 25.5t102.5 59.5t54 68t16 52v16h-369v81h463
v-371h-82v136q-22 -36 -58.5 -63.5t-82 -46.5t-98.5 -28.5t-109 -9.5q-79 0 -153.5 20t-133 62.5t-94 109t-35.5 160.5q0 93 35 163t94 117t135.5 70.5t158.5 23.5zM430 -164v104h97v-94q0 -49 -11 -83.5t-44 -66.5l-36 29q26 26 34.5 45.5t8.5 47.5v18h-49z" />
    <glyph glyph-name="uni0123" unicode="&#x123;" horiz-adv-x="696" 
d="M621 500v-431q0 -71 -22 -124.5t-62.5 -89.5t-97.5 -54t-126 -18q-141 0 -248 73l45 55q92 -56 206 -56q102 0 164.5 48.5t62.5 155.5v50q-38 -38 -93.5 -59.5t-124.5 -21.5q-60 0 -111.5 17t-89 48t-58.5 75.5t-21 98.5t21 99t59 77t90 50t113 18q67 0 122 -21t93 -59
v69h78zM332 92q65 0 106 16.5t64 42.5t32 58t9 64q0 51 -17.5 85t-46 53.5t-66 27.5t-76.5 8q-99 0 -156.5 -43.5t-57.5 -137.5q0 -93 57.5 -133.5t151.5 -40.5zM277 577v94q0 49 11 83.5t44 66.5l36 -29q-26 -26 -34.5 -45.5t-8.5 -47.5v-18h49v-104h-97z" />
    <glyph glyph-name="Hcircumflex" unicode="&#x124;" horiz-adv-x="963" 
d="M85 701h90v-302h613v302h90v-701h-90v318h-613v-318h-90v701zM320 765l119 141h85l119 -141h-69l-92 83l-93 -83h-69z" />
    <glyph glyph-name="hcircumflex" unicode="&#x125;" horiz-adv-x="778" 
d="M628 253q0 56 -14.5 93t-42 59.5t-67.5 31.5t-90 9q-53 0 -100.5 -10t-83 -33t-56.5 -60.5t-21 -93.5v-249h-78v700h78v-282q49 49 108.5 72t144.5 23q150 0 225 -67.5t75 -192.5v-253h-78v253zM20 761h-69l119 141h85l119 -141h-69l-92 83z" />
    <glyph glyph-name="Hbar" unicode="&#x126;" horiz-adv-x="1091" 
d="M942 700v-116h137v-66h-137v-518h-90v318h-612v-318h-90v518h-138v66h138v116h90v-116h612v116h90zM240 398h612v120h-612v-120z" />
    <glyph glyph-name="hbar" unicode="&#x127;" horiz-adv-x="788" 
d="M416 513q150 0 225 -67t75 -192v-253h-78v253q0 56 -14.5 93t-42 59.5t-67.5 31.5t-90 9q-53 0 -100.5 -10t-83 -33t-56.5 -60.5t-21 -93.5v-249h-78v580h-100v66h100v53h78v-53h160v-66h-160v-162q49 48 108.5 71t144.5 23z" />
    <glyph glyph-name="Itilde" unicode="&#x128;" horiz-adv-x="263" 
d="M85 700h93v-700h-93v700zM46 889q27 0 52 -7.5t48 -20.5q27 -15 44.5 -18t28.5 -3q18 0 21.5 17.5t3.5 37.5h63q2 -51 -14.5 -85t-59.5 -34q-26 0 -49.5 8t-49.5 18q-20 7 -43.5 16.5t-42.5 9.5t-24 -17.5t-8 -40.5h-60q-1 23 3 44.5t14.5 38t28.5 26.5t44 10z" />
    <glyph glyph-name="itilde" unicode="&#x129;" horiz-adv-x="223" 
d="M73 499h77v-499h-77v499zM-64 591q0 22 4.5 43t15 37.5t28.5 26.5t46 10q24 0 48.5 -7.5t47.5 -20.5q27 -15 43.5 -18t21.5 -3q25 0 29 17.5t4 37.5h63v-16q0 -46 -18 -73.5t-60 -27.5q-19 0 -37 5t-35 11l-39 14q-19 7 -36.5 12.5t-29.5 6.5q-21 0 -27 -17t-8 -38h-61z
" />
    <glyph glyph-name="Imacron" unicode="&#x12a;" horiz-adv-x="263" 
d="M85 700h93v-700h-93v700zM-7 862h277v-66h-277v66z" />
    <glyph glyph-name="imacron" unicode="&#x12b;" horiz-adv-x="223" 
d="M72 502h77v-502h-77v502zM-28 666h278v-67h-278v67z" />
    <glyph glyph-name="Ibreve" unicode="&#x12c;" horiz-adv-x="263" 
d="M85 0v700h93v-700h-93zM37 890q1 -28 12 -50q9 -20 29 -35.5t56 -15.5q37 0 56 15.5t27 35.5q10 22 11 50l42 -14q-3 -38 -18 -67q-14 -25 -41.5 -46t-78.5 -21t-79 21t-41 46q-16 29 -19 67z" />
    <glyph glyph-name="ibreve" unicode="&#x12d;" horiz-adv-x="223" 
d="M74 499h77v-499h-77v499zM252 724q0 -5 -2.5 -26.5t-15.5 -45.5t-40.5 -43t-77.5 -19q-65 0 -102.5 35.5t-39.5 98.5l45 14q0 -4 1.5 -20.5t10.5 -34.5t29 -32t56 -14q34 0 53 13t28 29.5t11 32.5t2 23v3z" />
    <glyph glyph-name="Iogonek" unicode="&#x12e;" horiz-adv-x="272" 
d="M219 -208q-14 -8 -38.5 -15t-52.5 -7q-20 0 -40 5t-35.5 16t-25 30t-9.5 46q0 30 11 54t24.5 41t25.5 27t15 12v701h93v-701h-3q-4 -2 -19.5 -11.5t-32 -25t-30 -36.5t-13.5 -45q0 -3 1 -5v-6q4 -25 19 -34t34 -9q23 0 44.5 8t24.5 10z" />
    <glyph glyph-name="iogonek" unicode="&#x12f;" horiz-adv-x="242" 
d="M77 700h78v-89h-78v89zM202 -204q-14 -8 -38 -14.5t-50 -6.5q-20 0 -39.5 4.5t-35 15.5t-25 28t-9.5 43q0 40 21.5 76t51.5 59v499h77v-499q-3 -2 -16 -11t-27 -24.5t-25.5 -36t-11.5 -44.5q0 -53 54 -53q23 0 43 7.5t23 9.5z" />
    <glyph glyph-name="Idotaccent" unicode="&#x130;" horiz-adv-x="263" 
d="M84 700h94v-704h-94v704zM84 876h93v-100h-93v100z" />
    <glyph glyph-name="dotlessi" unicode="&#x131;" horiz-adv-x="223" 
d="M74 499h77v-499h-77v499z" />
    <glyph glyph-name="IJ" unicode="&#x132;" horiz-adv-x="951" 
d="M223 310l3 35l86 17q-3 -15 -3 -35l2 -55q0 -50 18 -88.5t50.5 -65t76 -40t94.5 -13.5q44 0 85.5 11t73.5 34t51 58.5t19 85.5v446h94v-451q0 -64 -27 -113.5t-71 -83t-101.5 -50.5t-119.5 -17q-60 0 -119.5 16.5t-106 50.5t-75.5 84.5t-29 119.5v24q-1 7 -1 14.5v15.5z
M171 700v-700h-93v700h93z" />
    <glyph glyph-name="ij" unicode="&#x133;" horiz-adv-x="384" 
d="M150 499v-499h-77v499h77zM72 698h78v-89h-78v89zM312 499v-518q0 -80 -36 -126.5t-103 -46.5q-20 0 -45 5t-54 16l17 67q20 -8 40 -12t34 -4q37 0 53.5 26t16.5 80v513h77zM312 598h-77v102h77v-102z" />
    <glyph glyph-name="Jcircumflex" unicode="&#x134;" horiz-adv-x="768" 
d="M40 310l3 35l86 17q-3 -15 -3 -35l2 -55q0 -50 18 -88.5t50.5 -65t76 -40t94.5 -13.5q44 0 85.5 11t73.5 34t51 58.5t19 85.5v446h94v-451q0 -64 -27 -113.5t-71 -83t-101.5 -50.5t-119.5 -17q-60 0 -119.5 16.5t-106 50.5t-75.5 84.5t-29 119.5v24q-1 7 -1 14.5v15.5z
M482 768l119 141h85l119 -141h-69l-92 83l-93 -83h-69z" />
    <glyph glyph-name="jcircumflex" unicode="&#x135;" horiz-adv-x="274" 
d="M101 499h76v-520q0 -80 -35.5 -126t-102.5 -46q-20 0 -45 5t-54 16l17 66q20 -8 40 -12t34 -4q37 0 53.5 26t16.5 80v515zM229 605l-91 83l-93 -83h-69l119 141h85l118 -141h-69z" />
    <glyph glyph-name="uni0136" unicode="&#x136;" horiz-adv-x="936" 
d="M85 700h93v-385l562 385h154l-397 -262l419 -438h-110l-380 387l-248 -171v-216h-93v700zM420 -164v104h97v-94q0 -49 -11 -83.5t-44 -66.5l-36 29q26 26 34.5 45.5t8.5 47.5v18h-49z" />
    <glyph glyph-name="uni0137" unicode="&#x137;" horiz-adv-x="702" 
d="M265 257l-113 -78v-179h-77v700h77v-441l363 240h119l-306 -201l359 -298h-112zM312 -275q26 26 34.5 45.5t8.5 47.5v18h-49v104h97v-94q0 -49 -11 -83.5t-44 -66.5z" />
    <glyph glyph-name="kgreenlandic" unicode="&#x138;" horiz-adv-x="527" 
d="M70 500h64v-305l248 164h101l-223 -146l257 -213h-94l-215 179l-74 -51v-128h-64v500z" />
    <glyph glyph-name="Lacute" unicode="&#x139;" horiz-adv-x="743" 
d="M85 701h94v-620h539v-81h-633v701zM55 762l93 170h99l-123 -170h-69z" />
    <glyph glyph-name="lacute" unicode="&#x13a;" horiz-adv-x="227" 
d="M75 0v700h77v-700h-77zM37 765l92 170h99l-122 -170h-69z" />
    <glyph glyph-name="uni013B" unicode="&#x13b;" horiz-adv-x="743" 
d="M85 701h94v-620h539v-81h-633v701zM323 -164v104h97v-94q0 -49 -11 -83.5t-44 -66.5l-36 29q26 26 34.5 45.5t8.5 47.5v18h-49z" />
    <glyph glyph-name="uni013C" unicode="&#x13c;" horiz-adv-x="227" 
d="M75 700h77v-700h-77v700zM162 -60v-94q0 -49 -11 -83.5t-44 -66.5l-36 29q26 26 34.5 45.5t8.5 47.5v18h-49v104h97z" />
    <glyph glyph-name="Lcaron" unicode="&#x13d;" horiz-adv-x="743" 
d="M85 701h94v-620h539v-81h-633v701zM407 524v177h81l-27 -177h-54z" />
    <glyph glyph-name="lcaron" unicode="&#x13e;" horiz-adv-x="277" 
d="M152 700v-700h-77v700h77zM314 700l-27 -177h-54v177h81z" />
    <glyph glyph-name="Ldot" unicode="&#x13f;" horiz-adv-x="743" 
d="M85 701h94v-620h539v-81h-633v701zM393 409h95v-102h-95v102z" />
    <glyph glyph-name="ldot" unicode="&#x140;" horiz-adv-x="356" 
d="M75 0v700h77v-700h-77zM226 394h95v-102h-95v102z" />
    <glyph glyph-name="Lslash" unicode="&#x141;" horiz-adv-x="788" 
d="M224 700v-278l171 143v-98l-171 -143v-243h539v-81h-633v246l-115 -97v98l115 97v356h94z" />
    <glyph glyph-name="lslash" unicode="&#x142;" horiz-adv-x="254" 
d="M166 700v-261l83 50v-75l-83 -50v-364h-77v318l-84 -50v75l84 50v307h77z" />
    <glyph glyph-name="Nacute" unicode="&#x143;" horiz-adv-x="1002" 
d="M917 699v-700h-93l-647 588v-588h-92v700h95l647 -591v591h90zM410 776l93 170h99l-123 -170h-69z" />
    <glyph glyph-name="nacute" unicode="&#x144;" horiz-adv-x="778" 
d="M628 253q0 56 -14.5 93t-42 59.5t-67.5 31.5t-90 9q-53 0 -100.5 -10t-83 -33t-56.5 -60.5t-21 -93.5v-249h-78v500h78v-82q49 49 108.5 72t145.5 23q149 0 224 -66.5t75 -193.5v-253h-78v253zM318 587l93 170h99l-123 -170h-69z" />
    <glyph glyph-name="uni0145" unicode="&#x145;" horiz-adv-x="1002" 
d="M917 699v-700h-93l-647 588v-588h-92v700h95l647 -591v591h90zM459 -275q26 26 34.5 45.5t8.5 47.5v18h-49v104h97v-94q0 -49 -11 -83.5t-44 -66.5z" />
    <glyph glyph-name="uni0146" unicode="&#x146;" horiz-adv-x="778" 
d="M628 253q0 56 -14.5 93t-42 59.5t-67.5 31.5t-90 9q-53 0 -100.5 -10t-83 -33t-56.5 -60.5t-21 -93.5v-249h-78v500h78v-82q49 49 108.5 72t145.5 23q149 0 224 -66.5t75 -193.5v-253h-78v253zM364 -275q26 26 34.5 45.5t8.5 47.5v18h-49v104h97v-94q0 -49 -11 -83.5
t-44 -66.5z" />
    <glyph glyph-name="Ncaron" unicode="&#x147;" horiz-adv-x="1002" 
d="M917 699v-700h-93l-647 588v-588h-92v700h95l647 -591v591h90zM546 771h-85l-119 141h69l92 -83l93 83h69z" />
    <glyph glyph-name="ncaron" unicode="&#x148;" horiz-adv-x="778" 
d="M628 253q0 56 -14.5 93t-42 59.5t-67.5 31.5t-90 9q-53 0 -100.5 -10t-83 -33t-56.5 -60.5t-21 -93.5v-249h-78v500h78v-82q49 49 108.5 72t145.5 23q149 0 224 -66.5t75 -193.5v-253h-78v253zM246 742h69l93 -83l92 83h69l-119 -141h-85z" />
    <glyph glyph-name="napostrophe" unicode="&#x149;" horiz-adv-x="788" 
d="M628 253q0 56 -14.5 93t-42 59.5t-67.5 31.5t-90 9q-53 0 -100.5 -10t-83 -33t-56.5 -60.5t-21 -93.5v-249h-78v500h78v-82q49 49 108.5 72t145.5 23q149 0 224 -66.5t75 -193.5v-253h-78v253zM54 648l-29 -178h-56v178h85z" />
    <glyph glyph-name="Eng" unicode="&#x14a;" horiz-adv-x="1003" 
d="M828 700h90v-769q0 -95 -41 -150t-113 -55q-32 0 -62.5 5.5t-65.5 19.5l20 79q24 -10 47.5 -14.5t40.5 -4.5q44 0 63.5 31t19.5 95v62h-2l-648 589v-589h-92v701h95l648 -593v593z" />
    <glyph glyph-name="eng" unicode="&#x14b;" horiz-adv-x="778" 
d="M708 -27q0 -38 -3 -78.5t-16.5 -73.5t-41.5 -54.5t-78 -21.5q-27 0 -52.5 6t-48.5 15l17 67q17 -7 35.5 -11.5t35.5 -4.5q24 0 38.5 9.5t22 25t10 34.5t2.5 38v328q0 57 -15 94t-42.5 59t-67 31t-88.5 9q-52 0 -99.5 -9.5t-83.5 -32.5t-57.5 -61t-21.5 -94v-250h-78v501
h78v-82q54 55 116 75t137 20q61 0 114.5 -12.5t93.5 -40.5t64.5 -74t28.5 -112v-300z" />
    <glyph glyph-name="Omacron" unicode="&#x14c;" horiz-adv-x="946" 
d="M472 70q98 0 162 26.5t102 68t53.5 91.5t15.5 96q0 80 -28.5 135t-74.5 88.5t-105 48t-121 14.5q-74 0 -135.5 -19t-106 -55.5t-69 -91t-24.5 -125.5t24.5 -123.5t68.5 -86.5t105 -50.5t133 -16.5zM471 -12q-91 0 -168 25.5t-133.5 72.5t-88 113.5t-31.5 148.5
q0 81 31.5 148.5t88.5 116t135.5 75.5t171.5 27q92 0 169 -26t132.5 -74t86.5 -115t31 -148q0 -83 -32 -150t-88.5 -114.5t-134.5 -73.5t-170 -26zM337 856h276v-66h-276v66z" />
    <glyph glyph-name="omacron" unicode="&#x14d;" horiz-adv-x="698" 
d="M346 56q72 0 117.5 18t72 46.5t36.5 64t10 70.5q0 57 -19.5 94t-51.5 59t-73 31t-85 9q-109 0 -172 -49t-63 -152q0 -51 16.5 -87.5t46.5 -59.5t72 -33.5t93 -10.5zM348 -12q-66 0 -121.5 18.5t-96 52.5t-63.5 82t-23 107t23 107.5t63.5 83.5t97.5 54.5t124 19.5
q66 0 121.5 -19t95.5 -53.5t62.5 -82.5t22.5 -107q0 -60 -23 -108.5t-63.5 -83t-97 -53t-122.5 -18.5zM215 662h276v-66h-276v66z" />
    <glyph glyph-name="Obreve" unicode="&#x14e;" horiz-adv-x="946" 
d="M472 70q98 0 162 26.5t102 68t53.5 91.5t15.5 96q0 80 -28.5 135t-74.5 88.5t-105 48t-121 14.5q-74 0 -135.5 -19t-106 -55.5t-69 -91t-24.5 -125.5t24.5 -123.5t68.5 -86.5t105 -50.5t133 -16.5zM471 -12q-91 0 -168 25.5t-133.5 72.5t-88 113.5t-31.5 148.5
q0 81 31.5 148.5t88.5 116t135.5 75.5t171.5 27q92 0 169 -26t132.5 -74t86.5 -115t31 -148q0 -83 -32 -150t-88.5 -114.5t-134.5 -73.5t-170 -26zM613 909q0 -5 -2.5 -27t-16 -46t-41.5 -43t-79 -19t-79 19t-41.5 43t-16 46t-2.5 27l45 13q0 -4 1.5 -20t10.5 -34t29 -32
t56 -14q32 0 50 11t28 26.5t12.5 31t2.5 24.5v7z" />
    <glyph glyph-name="obreve" unicode="&#x14f;" horiz-adv-x="698" 
d="M346 56q72 0 117.5 18t72 46.5t36.5 64t10 70.5q0 57 -19.5 94t-51.5 59t-73 31t-85 9q-109 0 -172 -49t-63 -152q0 -51 16.5 -87.5t46.5 -59.5t72 -33.5t93 -10.5zM348 -12q-66 0 -121.5 18.5t-96 52.5t-63.5 82t-23 107t23 107.5t63.5 83.5t97.5 54.5t124 19.5
q66 0 121.5 -19t95.5 -53.5t62.5 -82.5t22.5 -107q0 -60 -23 -108.5t-63.5 -83t-97 -53t-122.5 -18.5zM483 719q0 -63 -38 -98.5t-103 -35.5q-50 0 -77.5 19t-41 43t-16 45.5t-2.5 26.5l45 14q0 -4 1.5 -20.5t10.5 -34.5t28.5 -32t55.5 -14q35 0 54 13t28 29.5t10.5 32.5
t1.5 23v3z" />
    <glyph glyph-name="Ohungarumlaut" unicode="&#x150;" horiz-adv-x="946" 
d="M472 70q98 0 162 26.5t102 68t53.5 91.5t15.5 96q0 80 -28.5 135t-74.5 88.5t-105 48t-121 14.5q-74 0 -135.5 -19t-106 -55.5t-69 -91t-24.5 -125.5t24.5 -123.5t68.5 -86.5t105 -50.5t133 -16.5zM471 -12q-91 0 -168 25.5t-133.5 72.5t-88 113.5t-31.5 148.5
q0 81 31.5 148.5t88.5 116t135.5 75.5t171.5 27q92 0 169 -26t132.5 -74t86.5 -115t31 -148q0 -83 -32 -150t-88.5 -114.5t-134.5 -73.5t-170 -26zM510 928l-121 -162h-68l90 162h99zM706 928l-120 -162h-68l90 162h98z" />
    <glyph glyph-name="ohungarumlaut" unicode="&#x151;" horiz-adv-x="698" 
d="M346 56q72 0 117.5 18t72 46.5t36.5 64t10 70.5q0 57 -19.5 94t-51.5 59t-73 31t-85 9q-109 0 -172 -49t-63 -152q0 -51 16.5 -87.5t46.5 -59.5t72 -33.5t93 -10.5zM348 -12q-66 0 -121.5 18.5t-96 52.5t-63.5 82t-23 107t23 107.5t63.5 83.5t97.5 54.5t124 19.5
q66 0 121.5 -19t95.5 -53.5t62.5 -82.5t22.5 -107q0 -60 -23 -108.5t-63.5 -83t-97 -53t-122.5 -18.5zM405 750l-120 -162h-68l90 162h98zM602 750l-120 -162h-68l90 162h98z" />
    <glyph glyph-name="OE" unicode="&#x152;" horiz-adv-x="1515" 
d="M471 65q96 0 160 26t102.5 67t54 90.5t15.5 95.5v7q0 79 -28.5 132t-75 85.5t-105 46t-119.5 13.5q-73 0 -135 -18t-106 -54t-69 -90t-25 -125t24.5 -123t69 -86t105 -50.5t132.5 -16.5zM1470 613h-574v-219h536v-81h-536v-237h574v-80h-667v115q-57 -61 -142.5 -94
t-190.5 -33q-91 0 -168 25.5t-133 72.5t-87.5 113.5t-31.5 147.5t31.5 148.5t88 116t134 75t170.5 26.5q103 0 187.5 -33t141.5 -93v111h667v-81z" />
    <glyph glyph-name="oe" unicode="&#x153;" horiz-adv-x="1240" 
d="M353 53q68 0 112.5 16t71.5 42t39 58t14 65v40q-3 53 -24 87t-52.5 54.5t-72 28.5t-82.5 8q-110 0 -175 -49t-65 -154q0 -52 17 -89.5t47.5 -61t74 -34.5t95.5 -11zM897 439q-78 0 -138 -29.5t-88 -104.5h439q-11 38 -32 64t-48.5 41.5t-61.5 22t-71 6.5zM902 55
q63 0 117.5 20t92.5 75l74 -18q-18 -38 -50 -66.5t-71 -47.5t-83 -28t-86 -9q-38 0 -77 7.5t-75 23.5t-66 40.5t-51 58.5q-40 -60 -111 -93t-162 -33q-67 0 -124 19t-98 53.5t-64.5 83t-23.5 108.5t23.5 110t65 86t99 55.5t125.5 19.5q92 0 163 -34.5t109 -96.5
q42 66 111 94.5t145 28.5q59 0 115 -16t100 -48t71 -80t27 -111l1 -22h-530q15 -97 76 -138.5t157 -41.5z" />
    <glyph glyph-name="Racute" unicode="&#x154;" horiz-adv-x="924" 
d="M571 387h14t12 -1q24 0 41.5 0.5t31.5 3t27 8.5t29 17q18 13 30 37.5t12 59.5q0 20 -11.5 37.5t-30.5 36.5q-10 11 -28 17t-37.5 10t-38.5 5t-33 1h-408v-232h390zM764 -1l-278 307h-305v-307h-96v701h556q46 0 85 -12.5t67 -36.5t43.5 -59t15.5 -81q0 -55 -21 -93.5
t-56 -63.5t-79.5 -36.5t-92.5 -11.5l281 -307h-120zM394 765l92 170h99l-122 -170h-69z" />
    <glyph glyph-name="racute" unicode="&#x155;" horiz-adv-x="402" 
d="M75 500h77v-84h5q33 55 97 76t140 21v-68q-55 0 -99.5 -15t-76 -42.5t-49 -65.5t-17.5 -85v-237h-77v500zM118 587l93 170h99l-123 -170h-69z" />
    <glyph glyph-name="uni0156" unicode="&#x156;" horiz-adv-x="924" 
d="M571 387h14t12 -1q24 0 41.5 0.5t31.5 3t27 8.5t29 17q18 13 30 37.5t12 59.5q0 20 -11.5 37.5t-30.5 36.5q-10 11 -28 17t-37.5 10t-38.5 5t-33 1h-408v-232h390zM764 -1l-278 307h-305v-307h-96v701h556q46 0 85 -12.5t67 -36.5t43.5 -59t15.5 -81q0 -55 -21 -93.5
t-56 -63.5t-79.5 -36.5t-92.5 -11.5l281 -307h-120zM424 -275q26 26 34.5 45.5t8.5 47.5v18h-49v104h97v-94q0 -49 -11 -83.5t-44 -66.5z" />
    <glyph glyph-name="uni0157" unicode="&#x157;" horiz-adv-x="402" 
d="M75 500h77v-84h5q33 55 97 76t140 21v-68q-55 0 -99.5 -15t-76 -42.5t-49 -65.5t-17.5 -85v-237h-77v500zM123 -275q26 26 34.5 45.5t8.5 47.5v18h-49v104h97v-94q0 -49 -11 -83.5t-44 -66.5z" />
    <glyph glyph-name="Rcaron" unicode="&#x158;" horiz-adv-x="924" 
d="M571 387h14t12 -1q24 0 41.5 0.5t31.5 3t27 8.5t29 17q18 13 30 37.5t12 59.5q0 20 -11.5 37.5t-30.5 36.5q-10 11 -28 17t-37.5 10t-38.5 5t-33 1h-408v-232h390zM764 -1l-278 307h-305v-307h-96v701h556q46 0 85 -12.5t67 -36.5t43.5 -59t15.5 -81q0 -55 -21 -93.5
t-56 -63.5t-79.5 -36.5t-92.5 -11.5l281 -307h-120zM292 908h69l93 -83l92 83h69l-119 -141h-85z" />
    <glyph glyph-name="rcaron" unicode="&#x159;" horiz-adv-x="402" 
d="M75 500h77v-84h5q33 55 97 76t140 21v-68q-55 0 -99.5 -15t-76 -42.5t-49 -65.5t-17.5 -85v-237h-77v500zM57 750h69l93 -83l92 83h69l-119 -141h-85z" />
    <glyph glyph-name="Sacute" unicode="&#x15a;" horiz-adv-x="770" 
d="M386 -8q-120 0 -201.5 34t-147.5 113l72 45q29 -29 54.5 -50.5t56.5 -35.5t71.5 -21t98.5 -7q67 0 114.5 11t77.5 30t44 45.5t14 56.5q0 28 -12.5 48t-41 33.5t-75.5 22t-117 13.5q-57 4 -115.5 10.5t-105.5 25t-77 53t-30 93.5q0 98 85 147t239 49q99 0 184 -32t149 -95
l-74 -53q-30 29 -58.5 48.5t-59 31.5t-66 17t-80.5 5q-111 0 -169 -30t-58 -92q0 -29 13.5 -46t40.5 -26.5t67 -14t93 -8.5l65 -6q155 -13 225 -55t70 -134q0 -51 -20.5 -92.5t-63 -71.5t-108 -46t-154.5 -16zM344 759l93 171h99l-123 -171h-69z" />
    <glyph glyph-name="sacute" unicode="&#x15b;" horiz-adv-x="618" 
d="M314 -11q-36 0 -77.5 5t-81 16t-72 28.5t-50.5 42.5l52 42q15 -18 42.5 -32t60.5 -23.5t66.5 -14.5t59.5 -5q94 0 145.5 29t51.5 69q0 24 -18.5 39.5t-48 24.5t-67 12.5t-75.5 3.5q-119 0 -185.5 31.5t-66.5 94.5q0 46 21 76t56.5 48t82.5 25t99 7q75 0 139.5 -22.5
t108.5 -57.5l-47 -42q-38 32 -90 44t-117 12q-35 0 -67.5 -3t-57 -11.5t-39.5 -24t-15 -41.5q0 -25 14 -39t39.5 -21t62.5 -8.5t83 -1.5q262 0 262 -146q0 -71 -66 -114t-205 -43zM254 587l92 170h99l-122 -170h-69z" />
    <glyph glyph-name="Scircumflex" unicode="&#x15c;" horiz-adv-x="770" 
d="M386 -8q-120 0 -201.5 34t-147.5 113l72 45q29 -29 54.5 -50.5t56.5 -35.5t71.5 -21t98.5 -7q67 0 114.5 11t77.5 30t44 45.5t14 56.5q0 28 -12.5 48t-41 33.5t-75.5 22t-117 13.5q-57 4 -115.5 10.5t-105.5 25t-77 53t-30 93.5q0 98 85 147t239 49q99 0 184 -32t149 -95
l-74 -53q-30 29 -58.5 48.5t-59 31.5t-66 17t-80.5 5q-111 0 -169 -30t-58 -92q0 -29 13.5 -46t40.5 -26.5t67 -14t93 -8.5l65 -6q155 -13 225 -55t70 -134q0 -51 -20.5 -92.5t-63 -71.5t-108 -46t-154.5 -16zM292 767h-69l119 141h85l119 -141h-69l-92 83z" />
    <glyph glyph-name="scircumflex" unicode="&#x15d;" horiz-adv-x="618" 
d="M314 -11q-36 0 -77.5 5t-81 16t-72 28.5t-50.5 42.5l52 42q15 -18 42.5 -32t60.5 -23.5t66.5 -14.5t59.5 -5q94 0 145.5 29t51.5 69q0 24 -18.5 39.5t-48 24.5t-67 12.5t-75.5 3.5q-119 0 -185.5 31.5t-66.5 94.5q0 46 21 76t56.5 48t82.5 25t99 7q75 0 139.5 -22.5
t108.5 -57.5l-47 -42q-38 32 -90 44t-117 12q-35 0 -67.5 -3t-57 -11.5t-39.5 -24t-15 -41.5q0 -25 14 -39t39.5 -21t62.5 -8.5t83 -1.5q262 0 262 -146q0 -71 -66 -114t-205 -43zM216 589h-69l119 141h85l119 -141h-69l-92 83z" />
    <glyph glyph-name="Scedilla" unicode="&#x15e;" horiz-adv-x="770" 
d="M735 209q0 -63 -29 -105t-75 -66.5t-102.5 -35t-111.5 -10.5l-15 -47q43 -7 72.5 -28.5t29.5 -69.5q0 -29 -11.5 -48t-30.5 -30t-43 -15t-50 -4q-36 0 -78 8v65q19 -3 38 -5.5t37 -2.5q10 0 21.5 1.5t21 5t15.5 10.5t6 19q0 14 -8.5 22t-21 12t-27.5 5t-28 1h-23l32 102
q-99 4 -174 36.5t-140 109.5l72 45q35 -35 64.5 -57t61 -35t68.5 -17.5t87 -4.5q35 0 78.5 5t81.5 19t64 40t26 69q0 38 -21.5 60.5t-57 35.5t-82 18.5t-96.5 9.5q-57 5 -114 12.5t-102 26t-73 52.5t-28 92q0 63 32 101.5t80.5 60t105.5 28.5t106 7q93 0 179 -30t153 -96
l-74 -54q-31 30 -60 49.5t-59.5 31.5t-65.5 17t-77 5q-28 0 -67 -3.5t-75 -15t-61 -34t-25 -61.5q0 -33 20 -53t53 -31t76.5 -15.5t90.5 -8.5q59 -5 118.5 -12.5t107.5 -27.5t78 -57.5t30 -101.5z" />
    <glyph glyph-name="scedilla" unicode="&#x15f;" horiz-adv-x="618" 
d="M583 146q0 -68 -59 -110t-182 -47l-15 -44q102 -17 102 -98q0 -97 -132 -97q-39 0 -77 7l-3 1v65l5 -1q39 -7 70 -7q9 0 20 1t20.5 5t16 12t6.5 21q0 18 -19 28q-21 9 -68 9h-21l31 99q-34 2 -71 8t-70.5 17t-61 27t-43.5 38l52 42q15 -18 42.5 -32t60.5 -23.5
t66.5 -14.5t59.5 -5q93 0 144 29t51 69q0 24 -18 39.5t-47.5 24.5t-66 12.5t-74.5 3.5q-120 0 -186.5 31t-66.5 95q0 46 21 76t56.5 48t82.5 25t99 7q75 0 138.5 -22.5t107.5 -57.5l-47 -42q-38 32 -89.5 44t-115.5 12q-35 0 -67.5 -2.5t-57 -11t-39.5 -24.5t-15 -43
q0 -25 14 -39t39.5 -21t62 -8.5t82.5 -1.5q130 0 196 -35.5t66 -108.5z" />
    <glyph glyph-name="Scaron" unicode="&#x160;" horiz-adv-x="770" 
d="M386 -8q-120 0 -201.5 34t-147.5 113l72 45q29 -29 54.5 -50.5t56.5 -35.5t71.5 -21t98.5 -7q67 0 114.5 11t77.5 30t44 45.5t14 56.5q0 28 -12.5 48t-41 33.5t-75.5 22t-117 13.5q-57 4 -115.5 10.5t-105.5 25t-77 53t-30 93.5q0 98 85 147t239 49q99 0 184 -32t149 -95
l-74 -53q-30 29 -58.5 48.5t-59 31.5t-66 17t-80.5 5q-111 0 -169 -30t-58 -92q0 -29 13.5 -46t40.5 -26.5t67 -14t93 -8.5l65 -6q155 -13 225 -55t70 -134q0 -51 -20.5 -92.5t-63 -71.5t-108 -46t-154.5 -16zM229 902h69l93 -83l92 83h69l-119 -141h-85z" />
    <glyph glyph-name="scaron" unicode="&#x161;" horiz-adv-x="618" 
d="M314 -11q-36 0 -77.5 5t-81 16t-72 28.5t-50.5 42.5l52 42q15 -18 42.5 -32t60.5 -23.5t66.5 -14.5t59.5 -5q94 0 145.5 29t51.5 69q0 24 -18.5 39.5t-48 24.5t-67 12.5t-75.5 3.5q-119 0 -185.5 31.5t-66.5 94.5q0 46 21 76t56.5 48t82.5 25t99 7q75 0 139.5 -22.5
t108.5 -57.5l-47 -42q-38 32 -90 44t-117 12q-35 0 -67.5 -3t-57 -11.5t-39.5 -24t-15 -41.5q0 -25 14 -39t39.5 -21t62.5 -8.5t83 -1.5q262 0 262 -146q0 -71 -66 -114t-205 -43zM141 733h69l93 -83l92 83h69l-119 -141h-85z" />
    <glyph glyph-name="uni0162" unicode="&#x162;" horiz-adv-x="826" 
d="M461 2h-15l-14 -46q102 -15 102 -98q0 -97 -133 -97q-39 0 -77 7l-4 1v65l6 -1q21 -3 39 -5t32 -2q10 0 21 1t20 5.5t15 12t6 21.5q0 19 -18 27q-21 9 -69 9h-21l32 100h-18v617h-349v81h794v-81h-349v-617z" />
    <glyph glyph-name="uni0163" unicode="&#x163;" horiz-adv-x="420" 
d="M277 -61q106 -15 106 -100q0 -100 -137 -100q-35 0 -78 8h-4v67l6 -1q22 -3 39.5 -5t30.5 -2q21 0 43 7t22 33q0 20 -19 29q-21 9 -69 9h-21l32 103q-47 11 -76.5 44t-29.5 83v311h-117v78h117v173h78v-173h175v-78h-175v-284q0 -43 18 -67t55 -24q24 0 46.5 10t52.5 33
l37 -56q-53 -43 -117 -52z" />
    <glyph glyph-name="Tcaron" unicode="&#x164;" horiz-adv-x="826" 
d="M15 619v81h796v-81h-350v-619h-96v619h-350zM321 902l93 -83l92 83h69l-119 -141h-85l-119 141h69z" />
    <glyph glyph-name="tcaron" unicode="&#x165;" horiz-adv-x="426" 
d="M405 39q-32 -26 -68 -40t-73 -14q-60 0 -101.5 35.5t-41.5 94.5v308h-116v77h116v172h77v-172h174v-77h-174v-281q0 -43 18 -67t56 -24q24 0 46 10t51 33zM303 596v177h81l-27 -177h-54z" />
    <glyph glyph-name="Tbar" unicode="&#x166;" horiz-adv-x="826" 
d="M811 700v-81h-350v-244h238v-66h-238v-309h-96v309h-238v66h238v244h-350v81h796z" />
    <glyph glyph-name="tbar" unicode="&#x167;" horiz-adv-x="420" 
d="M408 30q-32 -26 -69 -40.5t-75 -14.5q-62 0 -104 36t-42 96v140h-118v67h118v107h-118v79h118v175h79v-175h177v-79h-177v-107h176v-67h-176v-112q0 -44 18.5 -68.5t56.5 -24.5q25 0 47 10.5t52 33.5z" />
    <glyph glyph-name="Utilde" unicode="&#x168;" horiz-adv-x="968" 
d="M78 303v397h93v-428q0 -45 8.5 -83t39.5 -67q40 -38 106 -47t164 -9q48 0 85.5 1t68.5 6.5t57 16t50 29.5q28 23 37.5 64t9.5 89v428h93v-397q0 -105 -27 -167.5t-78 -96t-126 -44t-171 -10.5q-94 0 -169.5 10.5t-129 43.5t-82.5 96t-29 168zM399 878q27 0 51.5 -7.5
t47.5 -20.5q27 -15 44.5 -18t28.5 -3q19 0 22.5 17.5t3.5 37.5h62q3 -51 -14 -85t-60 -34q-26 0 -49 8t-50 17q-20 8 -43.5 17t-41.5 10q-19 0 -24.5 -18t-7.5 -40h-60q-1 23 3.5 44.5t15 38t28 26.5t43.5 10z" />
    <glyph glyph-name="utilde" unicode="&#x169;" horiz-adv-x="778" 
d="M150 247q0 -55 14 -92t41.5 -59.5t67.5 -32t91 -9.5q49 0 96 9t83.5 31.5t59 60.5t22.5 96v249h78v-500h-78v82q-54 -54 -116 -74.5t-137 -20.5q-66 0 -121 14t-94.5 45.5t-62 81t-22.5 119.5v253h78v-253zM198 601v7q0 46 22 78t73 32q26 0 48 -8t42 -18
q27 -14 41 -18.5t26 -4.5q27 0 31.5 18t4.5 37h63v-20q0 -39 -17 -68t-62 -29q-18 0 -39.5 6t-56.5 21q-20 9 -38.5 16t-34.5 7q-26 0 -33 -18t-10 -38h-60z" />
    <glyph glyph-name="Umacron" unicode="&#x16a;" horiz-adv-x="968" 
d="M78 700h93v-428q0 -45 8.5 -83t39.5 -67q40 -38 106 -47t164 -9q48 0 85.5 1t68.5 6.5t57 16t50 29.5q28 23 37.5 64t9.5 89v428h93v-397q0 -105 -27 -167.5t-78 -96t-126 -44t-171 -10.5q-94 0 -169.5 10.5t-129 43.5t-82.5 96t-29 168v397zM622 862v-66h-276v66h276z
" />
    <glyph glyph-name="umacron" unicode="&#x16b;" horiz-adv-x="778" 
d="M150 247q0 -56 14.5 -93t42 -59.5t67.5 -31.5t90 -9q53 0 100.5 10t83 33t56.5 61t21 93v249h78v-500h-78v82q-49 -49 -108.5 -72t-145.5 -23q-149 0 -224 66.5t-75 193.5v253h78v-253zM252 662h276v-66h-276v66z" />
    <glyph glyph-name="Ubreve" unicode="&#x16c;" horiz-adv-x="968" 
d="M78 303v397h93v-428q0 -45 8.5 -83t39.5 -67q40 -38 106 -47t164 -9q48 0 85.5 1t68.5 6.5t57 16t50 29.5q28 23 37.5 64t9.5 89v428h93v-397q0 -105 -27 -167.5t-78 -96t-126 -44t-171 -10.5q-94 0 -169.5 10.5t-129 43.5t-82.5 96t-29 168zM390 908q0 -4 1.5 -20
t10.5 -34t29 -32.5t56 -14.5q32 0 50.5 11.5t28 27t12 31.5t2.5 24v7l43 -14q0 -5 -2.5 -26.5t-16 -45.5t-41 -43t-78.5 -19t-79 19t-41.5 43t-16.5 45.5t-3 26.5z" />
    <glyph glyph-name="ubreve" unicode="&#x16d;" horiz-adv-x="778" 
d="M150 247q0 -56 14.5 -93t42 -59.5t67.5 -31.5t90 -9q53 0 100.5 10t83 33t56.5 61t21 93v249h78v-500h-78v82q-49 -49 -108.5 -72t-145.5 -23q-149 0 -224 66.5t-75 193.5v253h78v-253zM527 724q0 -5 -2.5 -26.5t-15.5 -45.5t-40.5 -43t-77.5 -19q-65 0 -102.5 35.5
t-39.5 98.5l45 14q0 -4 1.5 -20.5t10.5 -34.5t29 -32t56 -14q34 0 53 13t28 29.5t11 32.5t2 23v3z" />
    <glyph glyph-name="Uring" unicode="&#x16e;" horiz-adv-x="968" 
d="M171 700v-428q0 -46 8.5 -83.5t39.5 -66.5q40 -38 106 -47t164 -9q48 0 85.5 1t68.5 6.5t57 16t50 29.5q28 23 37.5 64t9.5 89v428h93v-397q0 -105 -27 -167.5t-78 -96t-126 -44t-171 -10.5q-94 0 -169.5 10.5t-129 43.5t-82.5 96t-29 168v397h93zM488 748
q-30 0 -52 10.5t-37 27t-22.5 38.5t-7.5 44q0 23 7.5 44.5t22.5 38.5t37 27.5t52 10.5t52.5 -10.5t37.5 -27.5t22.5 -38.5t7.5 -44.5q0 -22 -7.5 -44t-22.5 -38.5t-37.5 -27t-52.5 -10.5zM488 803q33 0 49 20.5t16 44.5q0 25 -16 47.5t-49 22.5q-32 0 -48 -22.5t-16 -47.5
q0 -24 16 -44.5t48 -20.5z" />
    <glyph glyph-name="uring" unicode="&#x16f;" horiz-adv-x="778" 
d="M150 247q0 -56 14.5 -93t42 -59.5t67.5 -31.5t90 -9q53 0 100.5 10t83 33t56.5 61t21 93v249h78v-500h-78v82q-49 -49 -108.5 -72t-145.5 -23q-149 0 -224 66.5t-75 193.5v253h78v-253zM373 563q-30 0 -52 10.5t-37 27t-22.5 38.5t-7.5 44q0 23 7.5 44.5t22 38t37 27
t52.5 10.5t52 -10.5t37 -27t22.5 -38t7.5 -44.5q0 -22 -7.5 -44t-22.5 -38.5t-37 -27t-52 -10.5zM373 618q32 0 48.5 20t16.5 45t-16.5 47t-48.5 22t-48.5 -22t-16.5 -47t16.5 -45t48.5 -20z" />
    <glyph glyph-name="Uhungarumlaut" unicode="&#x170;" horiz-adv-x="968" 
d="M171 700v-428q0 -46 8.5 -83.5t39.5 -66.5q40 -38 106 -47t164 -9q48 0 85.5 1t68.5 6.5t57 16t50 29.5q28 23 37.5 64t9.5 89v428h93v-397q0 -105 -27 -167.5t-78 -96t-126 -44t-171 -10.5q-94 0 -169.5 10.5t-129 43.5t-82.5 96t-29 168v397h93zM489 921l-120 -162h-68
l90 162h98zM686 921l-120 -162h-68l90 162h98z" />
    <glyph glyph-name="uhungarumlaut" unicode="&#x171;" horiz-adv-x="778" 
d="M150 247q0 -56 14.5 -93t42 -59.5t67.5 -31.5t90 -9q53 0 100.5 10t83 33t56.5 61t21 93v249h78v-500h-78v82q-49 -49 -108.5 -72t-145.5 -23q-149 0 -224 66.5t-75 193.5v253h78v-253zM396 750l-121 -162h-67l90 162h98zM593 750l-121 -162h-68l90 162h99z" />
    <glyph glyph-name="Uogonek" unicode="&#x172;" horiz-adv-x="968" 
d="M797 700h93v-397q0 -64 -10 -115t-35 -89t-68 -63.5t-109 -37.5q-10 -7 -26 -18.5t-30 -27t-24.5 -35t-10.5 -42.5q0 -26 15 -42t44 -16q26 0 48.5 8.5t25.5 10.5l8 -59q-15 -9 -42 -16.5t-57 -7.5q-22 0 -43.5 5.5t-38.5 17.5t-27.5 32t-10.5 50q0 46 21 78.5t40 49.5
h-70q-96 0 -172.5 10.5t-130 44t-82 96t-28.5 166.5v397h93v-428q0 -46 8.5 -83.5t40.5 -66.5q40 -38 105.5 -47t164.5 -9q48 0 85.5 1t68.5 6t57 15.5t50 29.5q28 23 37.5 64.5t9.5 89.5v428z" />
    <glyph glyph-name="uogonek" unicode="&#x173;" horiz-adv-x="778" 
d="M761 -223q-14 -9 -40.5 -16t-55.5 -7q-22 0 -43.5 5t-38 17t-27 31.5t-10.5 48.5q0 32 11.5 58t26.5 44.5t28 29t16 12.5v82q-49 -49 -109 -72t-146 -23q-149 0 -224.5 66.5t-75.5 193.5v254h79v-254q0 -56 14.5 -93t42 -59.5t67.5 -31.5t90 -9q53 0 100.5 10t83.5 33
t57 61t21 93v250h78v-501q-31 -20 -57 -53t-26 -72v-12q5 -27 21 -37t36 -10q25 0 47.5 8.5t25.5 10.5z" />
    <glyph glyph-name="Wcircumflex" unicode="&#x174;" horiz-adv-x="1333" 
d="M28 700h95l242 -620l242 620h116l240 -620l250 620h92l-282 -699h-122l-235 606l-237 -606h-122zM623 900h85l119 -141h-69l-92 83l-93 -83h-69z" />
    <glyph glyph-name="wcircumflex" unicode="&#x175;" horiz-adv-x="897" 
d="M874 499l-199 -501h-66l-156 418l-151 -418h-66l-213 501h91l153 -410q34 104 72.5 206.5t80.5 203.5h66q42 -101 81.5 -202.5t74.5 -204.5q38 102 74 203t71 204h87zM361 601h-69l119 141h85l119 -141h-69l-92 83z" />
    <glyph glyph-name="Ycircumflex" unicode="&#x176;" horiz-adv-x="888" 
d="M10 700h124l64 -71q63 -69 125 -137.5t122 -139.5q26 32 53 64t62 71.5t81.5 90.5t112.5 122h124l-386 -409v-291h-97v291zM283 763l119 141h85l119 -141h-69l-92 83l-93 -83h-69z" />
    <glyph glyph-name="ycircumflex" unicode="&#x177;" horiz-adv-x="672" 
d="M397 32l-26 -49q-16 -32 -35 -65t-43 -59.5t-54.5 -43.5t-71.5 -17q-26 0 -56.5 6.5t-56.5 16.5l22 64q20 -8 42 -13t44 -5q21 0 37.5 5.5t32 19.5t32 38.5t37.5 62.5l-287 506h95q59 -109 116 -217.5t113 -218.5q57 111 116 219t120 217h88zM239 597h-69l119 141h85
l119 -141h-69l-92 83z" />
    <glyph glyph-name="Ydieresis" unicode="&#x178;" horiz-adv-x="888" 
d="M134 700l64 -71q63 -69 125 -137.5t122 -139.5q26 32 53 64t62 71.5t81.5 90.5t112.5 122h124l-386 -409v-291h-97v291l-385 409h124zM504 770v88h82v-88h-82zM303 770v88h81v-88h-81z" />
    <glyph glyph-name="Zacute" unicode="&#x179;" horiz-adv-x="858" 
d="M654 616h-608v85h761v-65l-623 -551h638v-85h-792v67zM353 767l93 170h99l-123 -170h-69z" />
    <glyph glyph-name="zacute" unicode="&#x17a;" horiz-adv-x="663" 
d="M503 427h-451v72h573v-63l-464 -364h475v-72h-608v58zM266 597l92 170h99l-122 -170h-69z" />
    <glyph glyph-name="Zdotaccent" unicode="&#x17b;" horiz-adv-x="858" 
d="M654 616h-608v85h761v-65l-623 -551h638v-85h-792v67zM392 856h74v-79h-74v79z" />
    <glyph glyph-name="zdotaccent" unicode="&#x17c;" horiz-adv-x="663" 
d="M503 427h-451v72h573v-63l-464 -364h475v-72h-608v58zM295 699h73v-79h-73v79z" />
    <glyph glyph-name="Zcaron" unicode="&#x17d;" horiz-adv-x="858" 
d="M30 67l624 549h-608v85h761v-65l-623 -551h638v-85h-792v67zM268 906h69l93 -83l92 83h69l-119 -141h-85z" />
    <glyph glyph-name="zcaron" unicode="&#x17e;" horiz-adv-x="663" 
d="M503 427h-451v72h573v-63l-464 -364h475v-72h-608v58zM239 742l93 -83l92 83h69l-119 -141h-85l-119 141h69z" />
    <glyph glyph-name="longs" unicode="&#x17f;" horiz-adv-x="326" 
d="M148 0h-77v520q0 81 36 127.5t104 46.5q20 0 45 -5t54 -16l-17 -68q-20 9 -40 13t-34 4q-38 0 -54.5 -26.5t-16.5 -80.5v-515z" />
    <glyph glyph-name="florin" unicode="&#x192;" horiz-adv-x="456" 
d="M-26 -173q19 -7 36.5 -10t31.5 -3q42 0 59 24.5t22 66.5l45 401h-121l28 78h103l22 190q8 66 52.5 103t111.5 37q25 0 52.5 -5t51.5 -16l-20 -73q-48 21 -87 21q-43 0 -61 -26t-22 -68l-20 -163h145l-29 -78h-125l-52 -429q-8 -66 -53 -102t-109 -36q-22 0 -44.5 4
t-45.5 10z" />
    <glyph glyph-name="Aringacute" unicode="&#x1fa;" horiz-adv-x="901" 
d="M248 242h404l-119 212l-83 136l-81 -135zM450 829q-32 0 -48.5 -20t-16.5 -44q0 -25 16.5 -45t48.5 -20t48 20t16 44t-16 44.5t-48 20.5zM889 0h-109l-90 160h-477l-92 -160h-109l385 656q-33 15 -49.5 45.5t-16.5 63.5q0 38 20 69l89 164h99l-83 -114q28 -1 49 -11.5
t35 -27t21 -37.5t7 -43q0 -33 -16 -62.5t-48 -45.5z" />
    <glyph glyph-name="aringacute" unicode="&#x1fb;" horiz-adv-x="693" 
d="M683 -1q-32 -8 -67 -8q-54 0 -84.5 21.5t-35.5 62.5h-4q-36 -46 -97 -68t-144 -22q-47 0 -86 10.5t-67.5 29t-44.5 44t-16 56.5q0 37 14 66t44.5 50t80 34.5t120.5 19.5q103 9 151 24.5t48 50.5v5q0 16 -13 28t-36 20t-53.5 12t-65.5 4q-63 0 -113.5 -20.5t-98.5 -63.5
l-59 50q63 54 131.5 79.5t142.5 25.5q119 0 180.5 -39.5t61.5 -111.5v-224q0 -43 12.5 -58t50.5 -15q17 0 35 3zM267 49q59 0 101.5 16.5t71 40.5t42 51t13.5 48v66q-58 -31 -185 -41q-99 -7 -142.5 -29t-43.5 -73q0 -35 38 -57t105 -22zM346 612q33 0 49.5 20.5t16.5 45.5
t-16.5 45.5t-49.5 20.5q-32 0 -48.5 -20.5t-16.5 -45.5t16.5 -45.5t48.5 -20.5zM439 915l-83 -115q56 -4 83.5 -40.5t27.5 -81.5q0 -22 -7.5 -44t-22.5 -39t-38 -27.5t-53 -10.5t-52.5 10.5t-38 27.5t-23 39t-7.5 45q1 23 8.5 44.5t21.5 38.5l84 153h100z" />
    <glyph glyph-name="AEacute" unicode="&#x1fc;" horiz-adv-x="1269" 
d="M423 701h801v-82h-576v-220h538v-82h-538v-235h576v-82h-669v316h-256l-177 -315h-110zM335 399h220v222h-87zM919 935l-123 -171h-69l93 171h99z" />
    <glyph glyph-name="aeacute" unicode="&#x1fd;" horiz-adv-x="1150" 
d="M273 46q52 0 92 13t68.5 33t46 44t23.5 46q-9 36 -9 77v9q-31 -14 -74 -22.5t-103 -13.5q-101 -7 -145.5 -29.5t-44.5 -75.5q0 -35 38.5 -58t107.5 -23zM804 444q-38 0 -73 -6.5t-64 -22t-52 -41t-37 -62.5l-1 -3h441q-11 39 -31.5 65t-48.5 41.5t-62 22t-72 6.5zM808 57
q64 0 119.5 20t93.5 75l74 -17q-18 -39 -50 -67.5t-71.5 -47.5t-83.5 -28.5t-87 -9.5q-37 0 -76 7.5t-75 23t-66.5 39.5t-51.5 58q-15 -25 -30 -37q-37 -48 -100 -70.5t-148 -22.5q-48 0 -88 10.5t-69.5 30t-45.5 46t-16 57.5q0 38 14 67.5t45.5 51.5t82.5 35.5t124 20.5
q105 9 154.5 25t49.5 51v5q0 17 -13.5 29t-37 20.5t-54.5 12.5t-67 4q-65 0 -116.5 -21t-101.5 -64l-61 50q65 55 135.5 81.5t146.5 26.5q89 0 146 -21.5t83 -62.5q45 46 105 64.5t119 18.5t116 -16.5t101.5 -49t72 -81t27.5 -111.5l1 -21h-535q16 -99 77 -140.5t157 -41.5z
M484 587l93 170h99l-123 -170h-69z" />
    <glyph glyph-name="Oslashacute" unicode="&#x1fe;" horiz-adv-x="957" 
d="M477 61q99 0 164.5 27t104 70t54 95t15.5 103q0 56 -16 99.5t-43.5 75t-65 52.5t-80.5 33l-197 -552zM142 342q0 -107 53.5 -172.5t144.5 -91.5l196 552l-56 2q-74 0 -136 -18.5t-107 -55t-70 -90.5t-25 -126zM638 692q124 -37 196.5 -127t72.5 -218q0 -84 -32.5 -152
t-89.5 -116.5t-136 -74.5t-172 -26q-24 0 -47 2t-46 5l-44 -125h-78l50 142q-59 19 -107.5 51t-83 75.5t-53 97.5t-18.5 117q0 83 32 151t89 117.5t135.5 76.5t171.5 27q44 0 87 -6l46 130h79zM426 772l92 170h99l-122 -170h-69z" />
    <glyph glyph-name="oslashacute" unicode="&#x1ff;" horiz-adv-x="714" 
d="M286 587l93 170h99l-123 -170h-69zM356 47q73 0 119 18.5t72.5 48.5t36.5 66.5t10 72.5q0 42 -10.5 73t-29.5 53.5t-44 37t-55 22.5l-139 -390zM120 245q0 -73 32.5 -117.5t89.5 -63.5l137 385l-21 1q-108 0 -173 -50t-65 -155zM476 500q90 -27 142 -93t52 -158
q0 -61 -23.5 -111t-65.5 -85.5t-99.5 -54.5t-125.5 -19q-30 0 -63 5l-33 -92h-79l39 110q-81 30 -128.5 93t-47.5 151q0 60 23.5 110t65 86t99 56t124.5 20q24 0 46 -3l36 102h80z" />
    <glyph glyph-name="uni0218" unicode="&#x218;" horiz-adv-x="770" 
d="M386 -8q-120 0 -201.5 34t-147.5 113l72 45q29 -29 54.5 -50.5t56.5 -35.5t71.5 -21t98.5 -7q67 0 114.5 11t77.5 30t44 45.5t14 56.5q0 28 -12.5 48t-41 33.5t-75.5 22t-117 13.5q-57 4 -115.5 10.5t-105.5 25t-77 53t-30 93.5q0 98 85 147t239 49q99 0 184 -32t149 -95
l-74 -53q-30 29 -58.5 48.5t-59 31.5t-66 17t-80.5 5q-111 0 -169 -30t-58 -92q0 -29 13.5 -46t40.5 -26.5t67 -14t93 -8.5l65 -6q155 -13 225 -55t70 -134q0 -51 -20.5 -92.5t-63 -71.5t-108 -46t-154.5 -16zM346 -275q26 26 34.5 45.5t8.5 47.5v18h-49v104h97v-94
q0 -49 -11 -83.5t-44 -66.5z" />
    <glyph glyph-name="uni0219" unicode="&#x219;" horiz-adv-x="618" 
d="M314 -11q-36 0 -77.5 5t-81 16t-72 28.5t-50.5 42.5l52 42q15 -18 42.5 -32t60.5 -23.5t66.5 -14.5t59.5 -5q94 0 145.5 29t51.5 69q0 24 -18.5 39.5t-48 24.5t-67 12.5t-75.5 3.5q-119 0 -185.5 31.5t-66.5 94.5q0 46 21 76t56.5 48t82.5 25t99 7q75 0 139.5 -22.5
t108.5 -57.5l-47 -42q-38 32 -90 44t-117 12q-35 0 -67.5 -3t-57 -11.5t-39.5 -24t-15 -41.5q0 -25 14 -39t39.5 -21t62.5 -8.5t83 -1.5q262 0 262 -146q0 -71 -66 -114t-205 -43zM272 -275q26 26 34.5 45.5t8.5 47.5v18h-49v104h97v-94q0 -49 -11 -83.5t-44 -66.5z" />
    <glyph glyph-name="uni021A" unicode="&#x21a;" horiz-adv-x="826" 
d="M811 700v-81h-350v-619h-96v619h-350v81h796zM462 -60v-94q0 -49 -11 -83.5t-44 -66.5l-36 29q26 26 34.5 45.5t8.5 47.5v18h-49v104h97z" />
    <glyph glyph-name="uni021B" unicode="&#x21b;" horiz-adv-x="420" 
d="M405 39q-32 -26 -68 -40t-73 -14q-60 0 -101.5 35.5t-41.5 94.5v308h-116v77h116v172h77v-172h174v-77h-174v-281q0 -43 18 -67t56 -24q24 0 46 10t51 33zM216 -275q26 26 34.5 45.5t8.5 47.5v18h-49v104h97v-94q0 -49 -11 -83.5t-44 -66.5z" />
    <glyph glyph-name="uni0237" unicode="&#x237;" horiz-adv-x="264" 
d="M119 500h77v-520q0 -81 -36 -127.5t-104 -46.5q-20 0 -45 5t-54 16l17 67q20 -8 40 -12t34 -4q38 0 54.5 26t16.5 81v515z" />
    <glyph glyph-name="circumflex" unicode="&#x2c6;" horiz-adv-x="424" 
d="M170 882h85l119 -141h-69l-92 83l-93 -83h-69z" />
    <glyph glyph-name="caron" unicode="&#x2c7;" horiz-adv-x="1" 
d="M-161 882h69l93 -83l92 83h69l-119 -141h-85z" />
    <glyph glyph-name="uni02C9" unicode="&#x2c9;" horiz-adv-x="377" 
d="M64 669h291v-66h-291v66z" />
    <glyph glyph-name="breve" unicode="&#x2d8;" horiz-adv-x="374" 
d="M93 738q0 -4 1.5 -20t10.5 -34t29 -32.5t56 -14.5q34 0 53 13t28 29.5t10.5 32.5t1.5 23v3l43 -14q0 -5 -2.5 -26.5t-16 -45.5t-41.5 -43t-79 -19t-79 19t-41.5 43t-16 45.5t-2.5 26.5z" />
    <glyph glyph-name="dotaccent" unicode="&#x2d9;" horiz-adv-x="401" 
d="M164 706h73v-79h-73v79z" />
    <glyph glyph-name="ring" unicode="&#x2da;" 
d="M0 563q-30 0 -52 10.5t-37 27t-22.5 38.5t-7.5 44q0 23 7.5 44.5t22.5 38t37 27t52 10.5t52.5 -10.5t37 -27t22 -38t7.5 -44.5q0 -22 -7.5 -44t-22 -38.5t-37 -27t-52.5 -10.5zM0 618q32 0 48.5 20t16.5 45t-16.5 47t-48.5 22t-48 -22t-16 -47t16 -45t48 -20z" />
    <glyph glyph-name="ogonek" unicode="&#x2db;" 
d="M-14 1h78q-28 -14 -55 -40t-27 -60v-5q1 -2 1 -5q3 -22 16 -29.5t29 -7.5q20 0 38 6.5t21 8.5l5 -47q-11 -7 -32 -12.5t-44 -5.5q-18 0 -34.5 4t-30 13.5t-21.5 25.5t-8 39q0 35 18 65t46 50z" />
    <glyph glyph-name="tilde" unicode="&#x2dc;" horiz-adv-x="410" 
d="M124 718q26 0 48.5 -8.5t45.5 -19.5q17 -8 32 -14.5t31 -6.5q27 0 31.5 18t4.5 37h63v-20q0 -39 -17 -68t-62 -29q-18 0 -39.5 6t-56.5 21q-20 9 -38.5 16t-34.5 7q-26 0 -33 -18t-10 -38h-60v7q0 46 22 78t73 32z" />
    <glyph glyph-name="hungarumlaut" unicode="&#x2dd;" horiz-adv-x="433" 
d="M212 750l-120 -162h-68l90 162h98zM409 750l-120 -162h-68l90 162h98z" />
    <glyph glyph-name="gravecomb" unicode="&#x300;" 
d="M4 757l93 -171h-70l-123 171h100z" />
    <glyph glyph-name="acutecomb" unicode="&#x301;" 
d="M97 757l-124 -171h-69l93 171h100z" />
    <glyph glyph-name="uni0302" unicode="&#x302;" 
d="M-44 750h85l119 -141h-69l-92 83l-93 -83h-69z" />
    <glyph glyph-name="tildecomb" unicode="&#x303;" 
d="M-82 718q24 0 48.5 -7.5t47.5 -20.5q27 -15 43.5 -18t21.5 -3q24 0 28.5 17.5t4.5 37.5h63v-13q2 -46 -16.5 -75t-62.5 -29q-20 0 -39 5.5t-39 13.5h-1q-1 0 -2 1q-2 0 -6 2l-30 11q-17 7 -32.5 11.5t-26.5 5.5q-17 0 -24.5 -12t-11.5 -44h-60q-1 22 3.5 43t15 37.5
t29 26.5t46.5 10z" />
    <glyph glyph-name="uni0304" unicode="&#x304;" 
d="M-138 662h276v-66h-276v66z" />
    <glyph glyph-name="uni0306" unicode="&#x306;" 
d="M-94 738q0 -4 1.5 -20t10.5 -34t28.5 -32.5t56.5 -14.5q34 0 53 13t28 29.5t10.5 32.5t1.5 23v3l43 -14q0 -5 -2.5 -26.5t-16 -45.5t-41.5 -43t-79 -19t-79 19t-41.5 43t-16 45.5t-2.5 26.5z" />
    <glyph glyph-name="uni0307" unicode="&#x307;" 
d="M-37 706h73v-79h-73v79z" />
    <glyph glyph-name="uni0308" unicode="&#x308;" 
d="M-141 688h82v-88h-82v88zM60 600v88h82v-88h-82z" />
    <glyph glyph-name="uni030A" unicode="&#x30a;" 
d="M0 563q-30 0 -52 10.5t-37 27t-22.5 38.5t-7.5 44q0 23 7.5 44.5t22.5 38t37 27t52 10.5t52.5 -10.5t37 -27t22 -38t7.5 -44.5q0 -22 -7.5 -44t-22 -38.5t-37 -27t-52.5 -10.5zM0 618q32 0 48.5 20t16.5 45t-16.5 47t-48.5 22t-48 -22t-16 -47t16 -45t48 -20z" />
    <glyph glyph-name="uni030B" unicode="&#x30b;" 
d="M-3 757h100l-124 -171h-69z" />
    <glyph glyph-name="uni030C" unicode="&#x30c;" horiz-adv-x="1" 
d="M-161 750h69l93 -83l92 83h69l-119 -141h-85z" />
    <glyph glyph-name="uni0312" unicode="&#x312;" 
d="M-49 653q0 49 11 83.5t45 66.5l36 -29q-26 -26 -35 -45.5t-9 -47.5v-18h50v-104h-98v94z" />
    <glyph glyph-name="uni0326" unicode="&#x326;" horiz-adv-x="250" 
d="M174 -60v-94q0 -49 -11 -83.5t-44 -66.5l-36 29q26 26 34.5 45.5t8.5 47.5v18h-49v104h97z" />
    <glyph glyph-name="uni0327" unicode="&#x327;" 
d="M-96 -168q40 -6 65 -6q19 0 40 6.5t21 30.5q0 18 -18 26q-21 8 -65 8h-19l34 107l58 -5l-16 -51q96 -15 96 -92q0 -92 -125 -92q-37 0 -72 7l-4 1v61z" />
    <glyph glyph-name="uni0328" unicode="&#x328;" 
d="M-25 1h94q-4 -2 -19.5 -11t-33 -24.5t-31.5 -37t-14 -48.5q0 -8 1 -12q4 -26 19.5 -35t34.5 -9q24 0 45.5 8t24.5 10l7 -56q-14 -8 -39 -15t-53 -7q-21 0 -41.5 5t-36 16.5t-25.5 30.5t-10 47q0 42 22 78t55 60z" />
    <glyph glyph-name="Alpha" unicode="&#x391;" horiz-adv-x="908" 
d="M695 161h-481l-92 -161h-110l411 701h62l411 -701h-110zM657 244q-49 89 -99 177t-105 173q-54 -86 -104 -173.5t-100 -176.5h408z" />
    <glyph glyph-name="Beta" unicode="&#x392;" horiz-adv-x="949" 
d="M591 82q65 0 109 3.5t71 15.5t39 34.5t12 60.5t-11.5 62t-37 38t-66.5 19t-101 5h-427v-238h412zM613 400q52 0 87.5 5.5t57 18.5t31 35t9.5 54q0 34 -10 55t-31.5 32t-54 15t-77.5 4h-446v-219h434zM85 701h586q109 0 164.5 -45t55.5 -126q0 -63 -31.5 -108.5
t-85.5 -54.5v-3q74 -16 107 -58.5t33 -110.5q0 -94 -58.5 -144.5t-170.5 -50.5h-600v701z" />
    <glyph glyph-name="Gamma" unicode="&#x393;" horiz-adv-x="790" 
d="M729 700v-82h-575v-618h-94v700h669z" />
    <glyph glyph-name="uni0394" unicode="&#x394;" horiz-adv-x="928" 
d="M509 700l407 -700h-904l400 700h97zM156 75h612l-307 535z" />
    <glyph glyph-name="Zeta" unicode="&#x396;" horiz-adv-x="858" 
d="M654 616h-608v85h761v-65l-623 -551h638v-85h-792v67z" />
    <glyph glyph-name="uni03A9" unicode="&#x3a9;" horiz-adv-x="946" 
d="M898 348q0 -82 -31 -148.5t-87 -114.5h126v-85h-290v85q55 18 91.5 47.5t58.5 66t31.5 77.5t9.5 81q0 77 -28.5 129.5t-75 84.5t-105.5 46t-121 14q-74 0 -136 -18.5t-106.5 -54.5t-69.5 -89.5t-25 -124.5q0 -104 50.5 -168t136.5 -91v-85h-286v85h124q-55 48 -85.5 114
t-30.5 146q0 81 32 149t89 116.5t135.5 75.5t171.5 27t170 -26.5t133 -74.5t87 -115t31 -149z" />
    <glyph glyph-name="uni03BC" unicode="&#x3bc;" horiz-adv-x="782" 
d="M628 500h79v-503h-79v82q-49 -49 -108.5 -72t-146.5 -23q-146 0 -222 64v-287h-79v739h79v-269q0 -52 15.5 -86.5t43.5 -55.5t67.5 -29.5t88.5 -8.5q53 0 100.5 10t83.5 33t57 61t21 94v251z" />
    <glyph glyph-name="pi" unicode="&#x3c0;" horiz-adv-x="646" 
d="M621 500v-70h-81v-430h-76v430h-282v-430h-76v430h-81v70h596z" />
    <glyph glyph-name="Wgrave" unicode="&#x1e80;" horiz-adv-x="1333" 
d="M123 700l242 -620l242 620h116l240 -620l250 620h92l-282 -699h-122l-235 606l-237 -606h-122l-279 699h95zM670 927l92 -170h-69l-122 170h99z" />
    <glyph glyph-name="wgrave" unicode="&#x1e81;" horiz-adv-x="897" 
d="M874 499l-199 -501h-66l-156 418l-151 -418h-66l-213 501h91l153 -410q34 104 72.5 206.5t80.5 203.5h66q42 -101 81.5 -202.5t74.5 -204.5q38 102 74 203t71 204h87zM340 757h99l92 -170h-69z" />
    <glyph glyph-name="Wacute" unicode="&#x1e82;" horiz-adv-x="1333" 
d="M123 700l242 -620l242 620h116l240 -620l250 620h92l-282 -699h-122l-235 606l-237 -606h-122l-279 699h95zM663 927h99l-122 -170h-69z" />
    <glyph glyph-name="wacute" unicode="&#x1e83;" horiz-adv-x="897" 
d="M874 499l-199 -501h-66l-156 418l-151 -418h-66l-213 501h91l153 -410q34 104 72.5 206.5t80.5 203.5h66q42 -101 81.5 -202.5t74.5 -204.5q38 102 74 203t71 204h87zM376 587l93 170h99l-123 -170h-69z" />
    <glyph glyph-name="Wdieresis" unicode="&#x1e84;" horiz-adv-x="1333" 
d="M28 700h95l242 -620l242 620h116l240 -620l250 620h92l-282 -699h-122l-235 606l-237 -606h-122zM808 858v-88h-82v88h82zM607 858v-88h-82v88h82z" />
    <glyph glyph-name="wdieresis" unicode="&#x1e85;" horiz-adv-x="897" 
d="M874 499l-199 -501h-66l-156 418l-151 -418h-66l-213 501h91l153 -410q34 104 72.5 206.5t80.5 203.5h66q42 -101 81.5 -202.5t74.5 -204.5q38 102 74 203t71 204h87zM309 688h81v-88h-81v88zM510 688h82v-88h-82v88z" />
    <glyph glyph-name="Ygrave" unicode="&#x1ef2;" horiz-adv-x="888" 
d="M134 700l64 -71q63 -69 125 -137.5t122 -139.5q26 32 53 64t62 71.5t81.5 90.5t112.5 122h124l-386 -409v-291h-97v291l-385 409h124zM447 932l93 -170h-69l-123 170h99z" />
    <glyph glyph-name="ygrave" unicode="&#x1ef3;" horiz-adv-x="672" 
d="M397 32l-26 -49q-16 -32 -35 -65t-43 -59.5t-54.5 -43.5t-71.5 -17q-26 0 -56.5 6.5t-56.5 16.5l22 64q20 -8 42 -13t44 -5q21 0 37.5 5.5t32 19.5t32 38.5t37.5 62.5l-287 506h95q59 -109 116 -217.5t113 -218.5q57 111 116 219t120 217h88zM215 757h99l93 -170h-69z
" />
    <glyph glyph-name="endash" unicode="&#x2013;" horiz-adv-x="592" 
d="M0 294h592v-75h-592v75z" />
    <glyph glyph-name="emdash" unicode="&#x2014;" horiz-adv-x="895" 
d="M0 294h895v-75h-895v75z" />
    <glyph glyph-name="quoteleft" unicode="&#x2018;" horiz-adv-x="206" 
d="M55 550q0 49 11 83.5t44 66.5l36 -29q-26 -26 -34.5 -45.5t-8.5 -47.5v-18h49v-104h-97v94z" />
    <glyph glyph-name="quoteright" unicode="&#x2019;" horiz-adv-x="206" 
d="M151 700v-94q0 -49 -11 -83.5t-44 -66.5l-36 29q26 26 34.5 45.5t8.5 47.5v18h-49v104h97z" />
    <glyph glyph-name="quotesinglbase" unicode="&#x201a;" horiz-adv-x="206" 
d="M151 104v-94q0 -49 -11 -83.5t-44 -66.5l-36 29q26 26 34.5 45.5t8.5 47.5v18h-49v104h97z" />
    <glyph glyph-name="quotedblleft" unicode="&#x201c;" horiz-adv-x="354" 
d="M203 456v94q0 49 11 83.5t44 66.5l36 -29q-26 -26 -34.5 -45.5t-8.5 -47.5v-18h49v-104h-97zM55 550q0 49 11 83.5t44 66.5l36 -29q-26 -26 -34.5 -45.5t-8.5 -47.5v-18h49v-104h-97v94z" />
    <glyph glyph-name="quotedblright" unicode="&#x201d;" horiz-adv-x="354" 
d="M202 700h97v-94q0 -49 -11 -83.5t-44 -66.5l-36 29q26 26 34.5 45.5t8.5 47.5v18h-49v104zM54 596v104h97v-94q0 -49 -11 -83.5t-44 -66.5l-36 29q26 26 34.5 45.5t8.5 47.5v18h-49z" />
    <glyph glyph-name="quotedblbase" unicode="&#x201e;" horiz-adv-x="354" 
d="M202 -145h97v-94q0 -49 -11 -83.5t-44 -66.5l-36 29q26 26 34.5 45.5t8.5 47.5v18h-49v104zM54 -249v104h97v-94q0 -49 -11 -83.5t-44 -66.5l-36 29q26 26 34.5 45.5t8.5 47.5v18h-49z" />
    <glyph glyph-name="dagger" unicode="&#x2020;" horiz-adv-x="406" 
d="M165 257l16 264l-156 -14v75l155 -12l-15 147h77l-15 -147l154 12v-74l-156 13l16 -264h-76z" />
    <glyph glyph-name="daggerdbl" unicode="&#x2021;" horiz-adv-x="408" 
d="M25 505v76l156 -12l-15 147h77l-15 -147l155 12v-75l-157 13v-233l157 15v-76l-156 11l15 -146h-77l15 146l-155 -11v75l157 -14v233z" />
    <glyph glyph-name="bullet" unicode="&#x2022;" horiz-adv-x="403" 
d="M65 325q0 29 10.5 54t29.5 43.5t44 29t53 10.5t53 -10.5t43.5 -29t29 -43.5t10.5 -54t-10.5 -54t-29 -43.5t-43.5 -29t-53 -10.5t-53 10.5t-44 29t-29.5 43.5t-10.5 54z" />
    <glyph glyph-name="ellipsis" unicode="&#x2026;" horiz-adv-x="906" 
d="M58 102h95v-102h-95v102zM203 102h95v-102h-95v102zM348 102h95v-102h-95v102z" />
    <glyph glyph-name="perthousand" unicode="&#x2030;" horiz-adv-x="1363" 
d="M707 399q44 0 79 -16t59.5 -43.5t37.5 -65t13 -80.5q0 -57 -21.5 -100t-51.5 -69q-22 -18 -51.5 -26.5t-64.5 -8.5t-65 8.5t-52 26.5q-30 25 -51 68.5t-21 100.5q0 42 13.5 79t38 65t59.5 44.5t78 16.5zM955 194q0 42 13.5 79t38 65t59.5 44.5t78 16.5q44 0 79 -16
t59.5 -43.5t37.5 -65t13 -80.5q0 -57 -21.5 -100t-51.5 -69q-22 -18 -51.5 -26.5t-64.5 -8.5t-65 8.5t-52 26.5q-30 25 -51 68.5t-21 100.5zM219 718q44 0 79 -16t59.5 -43.5t37.5 -65t13 -80.5q0 -57 -21 -100t-52 -68q-22 -18 -51.5 -26.5t-64.5 -8.5t-64.5 8t-52.5 26
q-30 26 -51 69t-21 100q0 42 13 79.5t38 65t60 44t78 16.5zM1145 31q60 0 101.5 44t41.5 119q0 39 -12 69.5t-32 51.5t-46 32t-53 11q-28 0 -54.5 -11.5t-46.5 -32.5t-32 -51.5t-12 -68.5t11.5 -68.5t31 -51.5t46 -32t56.5 -11zM708 31q60 0 101.5 44t41.5 119
q0 39 -12 69.5t-32 51.5t-46 32t-53 11q-28 0 -54.5 -11.5t-46.5 -32.5t-32 -51.5t-12 -68.5t11.5 -68.5t31 -51.5t46 -32t56.5 -11zM220 350q60 0 102 44t42 119q0 39 -12 70t-32.5 52t-46.5 32t-53 11q-28 0 -54.5 -11.5t-46.5 -33t-32 -52t-12 -68.5t11.5 -68.5t31 -51.5
t46 -32t56.5 -11zM647 700h57l-434 -712h-56z" />
    <glyph glyph-name="guilsinglleft" unicode="&#x2039;" horiz-adv-x="354" 
d="M265 28l-235 228v12l235 228l47 -48l-193 -186l193 -186z" />
    <glyph glyph-name="guilsinglright" unicode="&#x203a;" horiz-adv-x="354" 
d="M42 76l193 186l-193 186l47 48l235 -228v-12l-235 -228z" />
    <glyph glyph-name="fraction" unicode="&#x2044;" horiz-adv-x="159" 
d="M267 700h58l-434 -711h-56z" />
    <glyph glyph-name="uni2070" unicode="&#x2070;" horiz-adv-x="495" 
d="M248 378q-54 0 -95 18.5t-68 50t-40.5 75t-13.5 92.5t13.5 92t41 75t68 50.5t94.5 18.5t94.5 -18.5t68 -50.5t41 -75t13.5 -92t-13.5 -92t-40.5 -75t-68 -50.5t-95 -18.5zM249 423q42 0 72.5 16.5t50.5 43t29.5 61t9.5 70.5t-9.5 70.5t-29 61t-50.5 43t-73 16.5
q-43 0 -74 -16t-51 -43t-29.5 -61.5t-9.5 -70.5t9.5 -70.5t30 -61.5t51.5 -43t73 -16z" />
    <glyph glyph-name="uni2074" unicode="&#x2074;" horiz-adv-x="431" 
d="M106 837h51q0 -36 -7 -76t-20 -79.5t-30.5 -75.5t-37.5 -65h215v200h49v-200h80v-41h-80v-110h-49v110h-265v37q43 60 68.5 141.5t25.5 158.5z" />
    <glyph glyph-name="uni2075" unicode="&#x2075;" horiz-adv-x="465" 
d="M35 507l57 9q12 -41 45 -67t93 -26q64 0 106.5 33t42.5 90q0 54 -38.5 81.5t-98.5 27.5q-54 0 -88.5 -21t-51.5 -56l-48 6l14 250h324v-45h-274l-9 -141q24 23 54.5 36.5t75.5 13.5q42 0 77 -11.5t60.5 -32t39.5 -48.5t14 -62q0 -25 -9.5 -54t-32.5 -53.5t-62 -40.5
t-98 -16q-81 0 -129 32.5t-64 94.5z" />
    <glyph glyph-name="uni2076" unicode="&#x2076;" horiz-adv-x="458" 
d="M30 600q0 124 57 187t166 63q61 0 103 -28t57 -70l-50 -16q-5 32 -35.5 52t-81.5 20q-75 0 -118 -47t-43 -146q20 32 62 51.5t96 19.5q41 0 74.5 -11t58.5 -30.5t38.5 -47t13.5 -60.5t-14 -60.5t-39 -47.5t-60 -31t-77 -11q-98 0 -153 56.5t-55 156.5zM91 533
q0 -22 12 -40.5t32 -32t48 -21.5t59 -8q59 0 97 27t38 78q0 26 -11 46t-30 33.5t-44 20.5t-52 7q-34 0 -61.5 -9.5t-47 -25.5t-30 -35.5t-10.5 -39.5z" />
    <glyph glyph-name="uni2077" unicode="&#x2077;" horiz-adv-x="410" 
d="M15 796v50h365v-38q-91 -98 -140 -201t-62 -215h-57q9 59 24 111t38 101t55 96.5t75 95.5h-298z" />
    <glyph glyph-name="uni2078" unicode="&#x2078;" horiz-adv-x="458" 
d="M32 516q0 43 30 72t85 41q-47 12 -70.5 39.5t-23.5 62.5q0 53 49.5 86t127.5 33q38 0 70.5 -8.5t55.5 -24.5t36 -37t13 -47q0 -35 -24 -63t-68 -39q50 -11 81.5 -42t31.5 -75q0 -29 -14.5 -53t-40.5 -41.5t-62 -27t-79 -9.5t-79.5 9.5t-63 27t-41 42t-14.5 54.5zM81 520
q0 -45 42.5 -69t104.5 -24q63 0 104.5 25t41.5 71q0 42 -38 63t-104 21q-69 0 -110 -22t-41 -65zM105 729q0 -35 32.5 -56.5t92.5 -21.5q59 0 91.5 21t32.5 53q0 20 -11 35t-30 26t-42.5 16.5t-49.5 5.5q-50 0 -83 -20.5t-33 -58.5z" />
    <glyph glyph-name="uni2079" unicode="&#x2079;" horiz-adv-x="460" 
d="M30 707q0 33 14 61.5t39 48.5t60.5 31.5t77.5 11.5q98 0 153.5 -58.5t55.5 -159.5q0 -124 -57.5 -187.5t-166.5 -63.5q-61 0 -103 28t-57 71l50 16q5 -32 35 -52t83 -20q75 0 117.5 47t42.5 147q-20 -33 -61.5 -52t-96.5 -19q-40 0 -74.5 11t-59 30.5t-38.5 47t-14 61.5z
M219 600q34 0 62 9.5t47.5 24.5t30 33t10.5 34q0 26 -12 47t-32.5 36t-48 23t-59.5 8q-60 0 -98 -28.5t-38 -79.5q0 -26 11.5 -46t30.5 -33.5t44 -20.5t52 -7z" />
    <glyph glyph-name="uni2080" unicode="&#x2080;" horiz-adv-x="495" 
d="M247 -219q-54 0 -95 18.5t-68 50t-40.5 74.5t-13.5 93q0 49 13.5 92t41 75t68 50.5t94.5 18.5t94.5 -18.5t68 -51t41 -75.5t13.5 -91q0 -50 -13.5 -93t-41 -74.5t-68 -50t-94.5 -18.5zM248 -174q42 0 72.5 16.5t50.5 43t29.5 61t9.5 70.5t-9.5 70t-29 61t-50.5 43.5
t-73 16.5q-43 0 -74 -16.5t-51 -43t-29.5 -61t-9.5 -70.5t9.5 -70.5t29.5 -61.5t51 -43t74 -16z" />
    <glyph glyph-name="uni2081" unicode="&#x2081;" horiz-adv-x="254" 
d="M20 167q48 10 77.5 29t47.5 48h40v-452h-52v370q-18 -16 -46 -25.5t-60 -13.5z" />
    <glyph glyph-name="uni2082" unicode="&#x2082;" horiz-adv-x="453" 
d="M219 304q35 0 68.5 -9.5t59.5 -28t42.5 -46t16.5 -63.5q0 -43 -9 -75t-26.5 -57.5t-42.5 -47t-57 -45.5l-141 -97h288v-45h-360v52l147 101q44 31 73 57t46 50t24.5 49t7.5 54t-12.5 49t-32 33t-44 19t-48.5 6q-25 0 -47.5 -6t-39.5 -18.5t-27.5 -31.5t-10.5 -45
q0 -8 1 -13.5t3 -10.5l-58 15q0 40 15.5 69t40.5 48t57 28t66 9z" />
    <glyph glyph-name="uni2083" unicode="&#x2083;" horiz-adv-x="453" 
d="M78 -65q6 -60 44.5 -88t101.5 -28q64 0 104 26t40 71t-40.5 66.5t-112.5 21.5h-41v37h41q63 0 99 16t36 54t-33 61.5t-90 23.5q-42 0 -77.5 -16.5t-46.5 -63.5q-2 -8 -2 -15q0 -4 1 -5l-53 9q3 57 50 95t130 38q79 0 123 -35t44 -90q0 -32 -17 -54.5t-58 -35.5
q57 -8 77 -38t20 -73q0 -29 -14 -53t-38.5 -42t-58.5 -28t-74 -10q-96 0 -147.5 38.5t-55.5 110.5z" />
    <glyph glyph-name="uni2084" unicode="&#x2084;" horiz-adv-x="430" 
d="M106 236h51q0 -36 -7.5 -76t-20 -79t-30 -75.5t-38.5 -64.5h216v200h48v-200h80v-41h-80v-110h-48v110h-265v36q21 30 38.5 66t29.5 75.5t19 80t7 78.5z" />
    <glyph glyph-name="uni2085" unicode="&#x2085;" horiz-adv-x="464" 
d="M51 -90l57 9q12 -41 46 -67t100 -26q59 0 100.5 33t41.5 90q0 54 -39.5 81.5t-107.5 27.5q-47 0 -80.5 -21t-50.5 -56l-48 6l14 251h325v-45h-275l-9 -142q24 23 54.5 36.5t76.5 13.5q41 0 76 -11.5t60.5 -31.5t40 -48.5t14.5 -62.5q0 -25 -9.5 -54t-31.5 -53.5
t-59 -40.5t-93 -16q-88 0 -137.5 32.5t-65.5 94.5z" />
    <glyph glyph-name="uni2086" unicode="&#x2086;" horiz-adv-x="458" 
d="M30 -9q0 124 57 187t166 63q61 0 103 -27.5t57 -70.5l-50 -15q-5 31 -35 51t-78 20q-78 0 -120 -47t-45 -146q20 32 61.5 51.5t95.5 19.5q82 0 134 -40.5t52 -105.5q0 -69 -52.5 -110.5t-139.5 -41.5q-97 0 -151.5 56t-54.5 156zM91 -66q0 -51 44 -81.5t107 -30.5
q59 0 97.5 28t37.5 81q-1 50 -42 76.5t-101 26.5q-32 0 -58.5 -9.5t-45 -24.5t-29 -32.5t-10.5 -33.5z" />
    <glyph glyph-name="uni2087" unicode="&#x2087;" horiz-adv-x="411" 
d="M15 196v50h366v-38q-91 -98 -140 -202t-62 -216h-58q9 59 24.5 111.5t38.5 102t55 97t75 95.5h-299z" />
    <glyph glyph-name="uni2088" unicode="&#x2088;" horiz-adv-x="456" 
d="M32 -88q0 43 29.5 72t84.5 41q-46 13 -69.5 40.5t-23.5 62.5q0 53 49 86t127 33q77 0 125.5 -33t48.5 -84q0 -35 -24 -62.5t-67 -40.5q50 -11 81 -42t31 -75q0 -29 -14.5 -52t-40.5 -40t-61.5 -26t-78.5 -9t-79 9t-62.5 26t-41 41t-14.5 53zM81 -84q0 -45 42 -69t104 -24
q63 0 104.5 25t41.5 71q0 42 -38 62.5t-104 20.5q-69 0 -109.5 -21.5t-40.5 -64.5zM104 126q0 -35 32.5 -56.5t92.5 -21.5q59 0 91 21t32 54q0 19 -11 34.5t-29.5 26t-42 16t-49.5 5.5q-50 0 -83 -20.5t-33 -58.5z" />
    <glyph glyph-name="uni2089" unicode="&#x2089;" horiz-adv-x="458" 
d="M30 94q0 32 14 58.5t39 45.5t60.5 30t77.5 11q97 0 152 -57.5t55 -161.5t-57 -162.5t-166 -58.5q-61 0 -102.5 27t-56.5 67l50 15q5 -29 35 -48t82 -19q75 0 116 43.5t44 134.5q-20 -29 -61.5 -46t-97.5 -17q-40 0 -73.5 9.5t-58 28t-38.5 44t-14 56.5zM219 -4
q68 0 108.5 29t40.5 69q0 21 -12 40t-32.5 32.5t-48 21.5t-59.5 8q-59 0 -97 -27.5t-38 -76.5q0 -25 11 -43t30 -30t44 -17.5t53 -5.5z" />
    <glyph glyph-name="franc" unicode="&#x20a3;" horiz-adv-x="857" 
d="M822 700v-82h-575v-218h537v-82h-537v-113h195v-72h-195v-133h-94v133h-93v72h93v495h669z" />
    <glyph glyph-name="lira" unicode="&#x20a4;" horiz-adv-x="651" 
d="M618 73v-73h-586v72q25 0 45.5 2t36 10.5t26 25t15.5 44.5h-123v72h121q-2 9 -4.5 17.5t-5.5 16.5l-5 17h-106v73h87l-13 34q-13 31 -24 63.5t-11 64.5q0 59 22.5 98.5t60 63t86 33t100.5 9.5q58 0 108.5 -11.5t88 -38.5t59 -71t21.5 -109v-6l-74 -23l2 36q0 44 -15 73.5
t-41.5 47.5t-63.5 26t-82 8q-33 0 -67.5 -5t-62.5 -19t-46 -39t-18 -65q0 -30 9.5 -58t21.5 -56q6 -14 11.5 -28t9.5 -28h310v-73h-294q8 -27 12 -51h280v-72h-280q-2 -26 -11 -46.5t-31 -34.5h431z" />
    <glyph glyph-name="peseta" unicode="&#x20a7;" horiz-adv-x="1312" 
d="M70 -3v703h514q118 0 176.5 -52t58.5 -154q0 -106 -63 -158.5t-186 -52.5h-405v-286h-95zM165 366h386q89 0 136.5 24.5t47.5 99.5q0 69 -41.5 97.5t-127.5 28.5h-401v-250zM1242 36q-32 -26 -68.5 -40t-73.5 -14q-30 0 -56 9.5t-45.5 26.5t-31 41t-11.5 53v310h-116v77
h116v173h78v-173h174v-77h-174v-282q0 -44 18 -68t56 -24q24 0 46 10t51 33z" />
    <glyph glyph-name="Euro" unicode="&#x20ac;" horiz-adv-x="868" 
d="M30 268l25 58h53v21v13t1 13h-78l25 58h59q13 68 47 118t84 84t115.5 50.5t141.5 16.5q45 0 91 -6t89 -19.5t81 -34.5t65 -51l-33 -91q-9 17 -31.5 39.5t-58.5 42.5t-87 34t-119 14q-126 0 -206 -51.5t-99 -145.5h551l-22 -58h-537v-23v-12t1 -12h507l-22 -58h-476
q13 -51 45 -88t75 -61t94 -35.5t102 -11.5q41 0 83.5 7.5t82 21.5t74 35.5t60.5 48.5v-107q-69 -45 -150 -61.5t-166 -16.5q-83 0 -148.5 19.5t-113.5 55t-78 85t-42 108.5h-85z" />
    <glyph glyph-name="uni2113" unicode="&#x2113;" horiz-adv-x="399" 
d="M204 450q40 0 67.5 28t27.5 67q0 40 -27.5 68t-67.5 28q-39 0 -67 -28t-28 -68h1v-95h94zM204 700q32 0 60 -12t49 -33t33.5 -49.5t12.5 -60.5t-12.5 -60t-33.5 -49t-49 -33t-60 -12h-94v-391h-60v545q0 32 12 60.5t33 49.5t49 33t60 12z" />
    <glyph glyph-name="trademark" unicode="&#x2122;" horiz-adv-x="1328" 
d="M1248 700v-445h-59v206l5 149l-263 -355h-41l-263 355l6 -149v-206h-59v445h56l282 -379l278 379h58zM243 649h-223v51h506v-51h-222v-394h-61v394z" />
    <glyph glyph-name="estimated" unicode="&#x212e;" horiz-adv-x="696" 
d="M348 440q-42 0 -82.5 -9t-74.5 -33v-93h306v95q-32 24 -71.5 32t-77.5 8zM353 55q65 0 119 19.5t93 75.5l74 -18q-18 -37 -49.5 -65.5t-69.5 -48t-80.5 -29t-81.5 -9.5q-65 0 -122.5 16.5t-101 50t-68.5 84t-25 117.5q0 68 25.5 118t68 82.5t97 48t112.5 15.5
q61 0 116 -17t102 -55h2v-2q28 -24 44.5 -45.5t25 -45t12 -50.5t6.5 -62h-461v-135q33 -28 76.5 -36.5t85.5 -8.5z" />
    <glyph glyph-name="oneeighth" unicode="&#x215b;" horiz-adv-x="847" 
d="M423 113q0 42 29.5 71t84.5 40q-46 12 -70 39t-24 62q0 26 13 48t36.5 38t56 25t71.5 9q77 0 126 -33.5t49 -84.5q0 -35 -24.5 -62t-67.5 -39q50 -11 81 -41.5t31 -73.5q0 -29 -14.5 -53t-40 -41.5t-61.5 -27t-79 -9.5q-88 0 -142.5 36.5t-54.5 96.5zM472 117
q0 -45 42 -69t104 -24q63 0 104.5 25t41.5 70q0 42 -38.5 62.5t-104.5 20.5q-69 0 -109 -21.5t-40 -63.5zM91 -11l433 711h57l-433 -711h-57zM620 246q59 0 91 21t32 53q0 19 -11 34t-29.5 25.5t-42 16t-49.5 5.5q-50 0 -83 -20t-33 -57q0 -35 32.5 -56.5t92.5 -21.5z
M20 633q48 10 77.5 29.5t47.5 48.5h40v-455h-51v372q-39 -31 -107 -39z" />
    <glyph glyph-name="threeeighths" unicode="&#x215c;" horiz-adv-x="1071" 
d="M647 112q0 43 30 72t84 41q-46 13 -69.5 40.5t-23.5 62.5q0 53 49 86t127 33q38 0 70.5 -8.5t55.5 -24.5t36 -37t13 -47q0 -35 -24.5 -62.5t-67.5 -40.5q50 -11 81 -42t31 -74q0 -58 -54 -93t-141 -35q-43 0 -79 9t-62.5 26t-41 41t-14.5 53zM30 398l49 6
q6 -60 44.5 -87.5t103.5 -27.5q64 0 104 26t40 71t-41 66.5t-114 21.5h-41v37h41q64 0 100.5 16t36.5 55q0 38 -33.5 62t-90.5 24q-43 0 -78.5 -17t-46.5 -65q-1 0 -1 -2q0 -3 -1 -4v-13l-52 9q2 57 49.5 95.5t131.5 38.5q80 0 124 -35t44 -91q0 -32 -17 -54.5t-59 -36.5
q58 -8 78 -38.5t20 -73.5q0 -28 -14 -52.5t-39 -43t-59 -29t-74 -10.5q-97 0 -149 39.5t-56 112.5zM842 23q63 0 104.5 25t41.5 71q0 42 -38 62.5t-104 20.5q-69 0 -109.5 -21.5t-40.5 -64.5q0 -45 42.5 -69t103.5 -24zM291 -11l433 711h57l-434 -711h-56zM844 248
q59 0 91.5 21t32.5 54q0 19 -11 34.5t-30 26t-42.5 16t-49.5 5.5q-49 0 -82.5 -20.5t-33.5 -58.5q0 -35 32.5 -56.5t92.5 -21.5z" />
    <glyph glyph-name="fiveeighths" unicode="&#x215d;" horiz-adv-x="1069" 
d="M646 112q0 43 29.5 72t84.5 41q-46 13 -69.5 40.5t-23.5 62.5q0 53 49 86t126 33q38 0 70.5 -8.5t55.5 -24.5t36 -37t13 -47q0 -35 -24 -62.5t-67 -40.5q49 -11 80 -42t31 -74q0 -58 -54 -93t-141 -35q-86 0 -141 35t-55 94zM35 381l57 9q12 -41 45 -67t93 -26
q64 0 106.5 33t42.5 90q0 54 -38.5 82t-98.5 28q-54 0 -88.5 -21t-51.5 -56l-48 5l14 250h324v-45h-274l-9 -140q24 23 54.5 36.5t75.5 13.5q42 0 77 -11.5t60.5 -32t39.5 -48.5t14 -62q0 -25 -9.5 -54t-32.5 -53.5t-62 -40.5t-98 -16q-81 0 -129 32.5t-64 93.5zM841 23
q63 0 104 25t41 71q0 42 -38 62.5t-104 20.5q-69 0 -109.5 -21.5t-40.5 -64.5q0 -45 42.5 -69t104.5 -24zM290 -11l432 711h57l-433 -711h-56zM718 326q0 -35 32 -56.5t92 -21.5t92 21t32 54q0 19 -11 34.5t-29.5 26t-42.5 16t-49 5.5q-50 0 -83 -20.5t-33 -58.5z" />
    <glyph glyph-name="seveneighths" unicode="&#x215e;" horiz-adv-x="934" 
d="M511 112q0 43 29.5 72t84.5 41q-47 13 -70 40.5t-23 62.5q0 53 49 86t126 33q38 0 70.5 -8.5t55.5 -24.5t36 -37t13 -47q0 -35 -24.5 -62.5t-67.5 -40.5q50 -11 81 -42t31 -74q0 -58 -54 -93t-141 -35t-141.5 35t-54.5 94zM706 23q63 0 104 25t41 71q0 42 -38 62.5
t-104 20.5q-69 0 -109.5 -21.5t-40.5 -64.5q0 -45 42.5 -69t104.5 -24zM15 656v50h365v-38q-91 -98 -140 -201t-62 -215h-57q9 59 24 111t38 101t55 96.5t75 95.5h-298zM587 700h57l-433 -711h-56zM583 326q0 -35 32 -56.5t92 -21.5t92 21t32 54q0 19 -11 34.5t-30 26
t-42.5 16t-49.5 5.5q-49 0 -82 -20.5t-33 -58.5z" />
    <glyph glyph-name="partialdiff" unicode="&#x2202;" horiz-adv-x="654" 
d="M504 217q0 41 -14.5 74t-39 56t-57.5 35.5t-70 12.5q-43 0 -79.5 -10.5t-63 -32.5t-41.5 -55.5t-15 -80.5t15.5 -79.5t42.5 -53t64.5 -30t81.5 -9.5q81 0 128.5 49t47.5 124zM219 717q46 -14 86.5 -36.5t81.5 -47.5q209 -131 209 -377q0 -66 -20 -117t-57.5 -86
t-89.5 -53t-117 -18q-52 0 -100.5 16t-85.5 46.5t-59.5 75t-22.5 102.5q0 57 21.5 101t58.5 74.5t85.5 46t102.5 15.5q47 0 90 -12t78 -41q-21 51 -54 89.5t-74 67.5t-88 50.5t-97 38.5z" />
    <glyph glyph-name="product" unicode="&#x220f;" horiz-adv-x="877" 
d="M792 700v-700h-80v622h-546v-622h-81v700h707z" />
    <glyph glyph-name="summation" unicode="&#x2211;" horiz-adv-x="670" 
d="M616 700v-81h-451l298 -335l-298 -352h460v-81h-575v65l311 367l-311 352v65h566z" />
    <glyph glyph-name="minus" unicode="&#x2212;" horiz-adv-x="600" 
d="M82 392h436v-73h-436v73z" />
    <glyph glyph-name="uni2215" unicode="&#x2215;" horiz-adv-x="562" 
d="M50 0l388 700h84l-388 -700h-84z" />
    <glyph glyph-name="uni2219" unicode="&#x2219;" horiz-adv-x="222" 
d="M35 353q0 32 22 54t54 22t54 -22t22 -54t-22 -54.5t-54 -22.5t-54 22.5t-22 54.5z" />
    <glyph glyph-name="radical" unicode="&#x221a;" horiz-adv-x="713" 
d="M693 700l-308 -807h-74l-170 315h-106v76h164l145 -287l262 703h87z" />
    <glyph glyph-name="infinity" unicode="&#x221e;" horiz-adv-x="755" 
d="M337 343q-26 31 -60 57.5t-77 26.5q-37 0 -62.5 -23t-25.5 -61t25 -61t63 -23q43 0 77 26.5t60 57.5zM643 343q0 38 -25.5 61t-62.5 23q-42 0 -76.5 -27t-60.5 -57q26 -31 60 -57.5t77 -26.5q38 0 63 23t25 61zM547 495q36 0 67 -11t53.5 -31t35 -48.5t12.5 -63.5
q0 -34 -12.5 -61.5t-34.5 -47t-52.5 -30.5t-66.5 -11q-56 0 -94.5 25t-76.5 69q-38 -45 -77 -69.5t-94 -24.5q-36 0 -66.5 11t-53 31t-35 48t-12.5 62t12.5 62t35 48t53 31t66.5 11q55 0 94 -24.5t77 -69.5q38 45 76.5 69.5t92.5 24.5z" />
    <glyph glyph-name="integral" unicode="&#x222b;" horiz-adv-x="372" 
d="M15 -100q11 -3 23 -5t24 -2q22 0 36.5 8.5t23.5 23t12.5 32.5t3.5 37v584q0 72 44.5 104.5t111.5 32.5q22 0 43 -3v-79q-10 2 -20 3t-18 1q-43 0 -66 -21t-23 -63v-582q0 -72 -36 -113t-112 -41q-11 0 -23 1t-24 3v79z" />
    <glyph glyph-name="approxequal" unicode="&#x2248;" horiz-adv-x="587" 
d="M65 142q0 57 29.5 95.5t89.5 38.5q32 0 62 -10.5t59 -24.5q35 -17 53.5 -22.5t33.5 -5.5q17 0 27 6.5t14.5 16.5t5.5 22.5t1 25.5h82q0 -27 -2.5 -54.5t-12.5 -49t-29.5 -35t-54.5 -13.5q-33 0 -64 11t-60 24q-26 11 -50 20t-47 9q-35 0 -45 -21.5t-14 -50.5h-78v18z
M184 527q32 0 62 -11t59 -25q35 -16 53.5 -22t33.5 -6q17 0 27 6.5t14.5 16.5t5.5 23t1 26h82q0 -28 -2.5 -55t-12.5 -49t-29.5 -35.5t-54.5 -13.5q-33 0 -64 11t-60 24q-26 11 -50 20.5t-47 9.5q-18 0 -28.5 -6t-16.5 -16t-9 -23t-5 -28h-78v18q0 57 29.5 96t89.5 39z" />
    <glyph glyph-name="notequal" unicode="&#x2260;" horiz-adv-x="534" 
d="M406 644l-53 -149h99v-66h-122l-57 -159h179v-66h-203l-56 -159h-65l56 159h-102v66h125l57 159h-182v66h205l53 149h66z" />
    <glyph glyph-name="lessequal" unicode="&#x2264;" horiz-adv-x="610" 
d="M87 111h436v-73h-436v73zM491 519l37 -66l-332 -130l332 -130l-35 -66l-411 174v44z" />
    <glyph glyph-name="greaterequal" unicode="&#x2265;" horiz-adv-x="610" 
d="M87 110h436v-73h-436v73zM414 323l-332 130l37 66l409 -174v-44l-411 -174l-35 66z" />
    <glyph glyph-name="lozenge" unicode="&#x25ca;" horiz-adv-x="544" 
d="M300 680l209 -316l-210 -321h-58l-206 323l208 314h57zM274 119l155 247l-158 237l-161 -239z" />
    <glyph glyph-name="uniF8FF" unicode="&#xf8ff;" horiz-adv-x="333" 
 />
    <glyph glyph-name="f_f" unicode="&#xfb00;" horiz-adv-x="774" 
d="M547 511h174v-68h-174v-443h-76v443h-278v-443h-76v443h-117v68h117v48q0 32 12 56t32 40.5t47 24.5t58 8q55 0 109 -23l-25 -65q-19 11 -39.5 17.5t-44.5 6.5q-32 0 -52.5 -15.5t-20.5 -53.5v-44h278v77q0 32 12 56t32 40.5t47.5 24.5t58.5 8q54 0 108 -23l-25 -65
q-19 11 -39.5 17.5t-44.5 6.5q-32 0 -52.5 -15.5t-20.5 -53.5v-73z" />
    <glyph glyph-name="fi" unicode="&#xfb01;" horiz-adv-x="617" 
d="M203 506h335v-506h-74v438h-261v-438h-74v438h-122v68h122v74q0 37 15.5 63t40.5 42t57 23t65 7q60 0 126 -21l9 -2l-23 -70l-9 3q-60 22 -111 22q-17 0 -34.5 -3.5t-31 -11.5t-22 -21t-8.5 -33v-72z" />
    <glyph glyph-name="fl" unicode="&#xfb02;" horiz-adv-x="667" 
d="M515 701h77v-701h-77v444h-314v-444h-77v444h-117v68h117v77q0 33 12 57t33 40.5t48.5 24.5t57.5 8q51 0 108 -23l-25 -65q-43 23 -84 23h-5q-33 -2 -50.5 -18.5t-17.5 -50.5v-73h314v189z" />
    <glyph glyph-name="f_f_i" unicode="&#xfb03;" horiz-adv-x="968" 
d="M556 512h339v-514h-76v445h-263v-444h-76v444h-280v-444h-76v444h-117v68h117v48q0 32 12 56.5t32.5 41t47.5 25t58 8.5q27 0 55 -6t54 -17l-25 -66q-19 10 -39.5 17t-44.5 7q-33 0 -53.5 -16t-20.5 -54v-44h280v77q0 32 12 56.5t32 41t47 25t58 8.5q27 0 54.5 -6
t53.5 -17l-25 -66q-18 11 -39 17.5t-44 6.5q-32 0 -52.5 -16t-20.5 -54v-72z" />
    <glyph glyph-name="f_f_l" unicode="&#xfb04;" horiz-adv-x="996" 
d="M845 700h76v-700h-76v446h-288v-445h-76v445h-280v-445h-76v445h-118v68h118v49q0 32 12 56t32 40.5t47.5 25t58.5 8.5q54 0 109 -23l-25 -65q-19 10 -40 16.5t-44 6.5q-33 0 -53.5 -16t-20.5 -54v-44h280v78q0 32 12 56t32 40.5t47.5 25t58.5 8.5q54 0 108 -23l-25 -65
q-19 10 -39.5 16.5t-44.5 6.5q-32 0 -52.5 -15.5t-20.5 -53.5v-73h288v185z" />
    <glyph glyph-name="longs_t" unicode="&#xfb05;" horiz-adv-x="612" 
d="M378 603v-152h154v-68h-154v-249q0 -38 16.5 -59.5t49.5 -21.5q21 0 40.5 9.5t45.5 29.5l32 -49q-29 -23 -61 -35.5t-64 -12.5q-54 0 -90.5 31.5t-36.5 83.5v273h-103v68h103v152q0 12 -8.5 20.5t-20.5 14t-25.5 8.5t-23.5 3q-6 0 -9 -1q-35 -2 -54 -17.5t-19 -50.5v-581
h-76v585q0 34 12.5 58.5t34 40t50.5 23t61 7.5q24 0 50 -5t47.5 -17t35 -33.5t13.5 -54.5z" />
    <glyph glyph-name="uni030C.alt" 
d="M-30 522v177h81l-27 -177h-54z" />
    <glyph glyph-name="grave.case" horiz-adv-x="250" 
d="M49 752h99l93 -170h-69z" />
    <glyph glyph-name="dieresis.case" horiz-adv-x="250" 
d="M267 722v-88h-82v88h82zM-17 722h82v-88h-82v88z" />
    <glyph glyph-name="macron.case" horiz-adv-x="250" 
d="M-13 814h276v-66h-276v66z" />
    <glyph glyph-name="acute.case" horiz-adv-x="250" 
d="M49 605l93 170h99l-123 -170h-69z" />
    <glyph glyph-name="circumflex.case" horiz-adv-x="250" 
d="M83 748h85l119 -141h-69l-92 83l-93 -83h-70z" />
    <glyph glyph-name="caron.case" horiz-adv-x="250" 
d="M-37 747h70l93 -83l92 83h69l-119 -141h-85z" />
    <glyph glyph-name="breve.case" horiz-adv-x="250" 
d="M31 750q0 -4 1.5 -20t10.5 -34t29 -32.5t56 -14.5q34 0 53 13t28 29.5t10.5 32.5t1.5 23v3l43 -14q0 -5 -2.5 -26.5t-16 -45.5t-41 -43t-78.5 -19t-79 19t-42 43t-16.5 45.5t-2.5 26.5z" />
    <glyph glyph-name="dotaccent.case" horiz-adv-x="250" 
d="M88 733h74v-78h-74v78z" />
    <glyph glyph-name="ring.case" horiz-adv-x="260" 
d="M0 563q-30 0 -52 10.5t-37 27t-22.5 38.5t-7.5 44q0 23 7.5 44.5t22.5 38t37 27t52 10.5t52.5 -10.5t37 -27t22 -38t7.5 -44.5q0 -22 -7.5 -44t-22 -38.5t-37 -27t-52.5 -10.5zM0 618q32 0 48.5 20t16.5 45t-16.5 47t-48.5 22t-48 -22t-16 -47t16 -45t48 -20z" />
    <glyph glyph-name="tilde.case" horiz-adv-x="250" 
d="M44 732q24 0 48 -7.5t47 -20.5q27 -15 43.5 -18t21.5 -3q25 0 29.5 17.5t4.5 37.5h62l1 -13q2 -46 -17 -75t-62 -29q-20 0 -39 5.5t-39 13.5h-2q-3 1 -7 3l-30 11q-18 6 -33.5 11t-26.5 6q-16 0 -23.5 -12t-11.5 -44h-60q-1 22 3 43t15 37.5t29.5 26.5t46.5 10z" />
    <glyph glyph-name="hungarumlaut.case" horiz-adv-x="250" 
d="M212 750l-120 -162h-68l90 162h98zM409 750l-120 -162h-68l90 162h98z" />
    <glyph glyph-name="caron.salt" horiz-adv-x="1" 
d="M-161 753h69l93 -83l92 83h69l-119 -141h-85z" />
    <glyph glyph-name="uni0326.salt" horiz-adv-x="250" 
d="M174 -60v-94q0 -49 -11 -83.5t-44 -66.5l-36 29q26 26 34.5 45.5t8.5 47.5v18h-49v104h97z" />
    <glyph glyph-name="i.locTRK" horiz-adv-x="223" 
d="M150 499v-499h-77v499h77zM72 698h78v-89h-78v89z" />
    <glyph glyph-name="g.alt" horiz-adv-x="665" 
d="M498 321q0 38 -13.5 62t-37 38t-54.5 19.5t-66 5.5q-34 0 -65.5 -5.5t-54.5 -19.5t-37 -38.5t-14 -62.5q0 -40 15 -64.5t39 -38t54.5 -18.5t61.5 -5q32 0 62.5 5t55 18.5t39.5 38.5t15 65zM125 -93q0 -36 24 -56t57 -29.5t66.5 -11t52.5 -1.5q30 0 68.5 2t73.5 12.5
t59 32t24 59.5q0 43 -29 57t-67 14h-224q-44 0 -74.5 -19t-30.5 -60zM655 559v-86q-32 0 -61 -4.5t-52 -30.5q20 -26 29.5 -57.5t9.5 -65.5q0 -55 -22 -92.5t-57.5 -60t-80.5 -32.5t-92 -10q-35 0 -77.5 5.5t-73.5 19.5q-14 -5 -25.5 -16.5t-11.5 -29.5q0 -22 17 -31t37 -9
h256q34 0 66.5 -7t58 -23.5t41.5 -44.5t16 -69q0 -58 -29.5 -93.5t-74 -55t-97 -26t-99.5 -6.5q-40 0 -90 3.5t-94 18.5t-74 45t-30 83q0 40 19 70.5t51 46.5q-26 14 -39.5 37t-13.5 49q0 34 19.5 57.5t46.5 35.5q-55 55 -55 141q0 56 21 94t55.5 61.5t79 34t91.5 10.5
q48 0 98.5 -10.5t85.5 -35.5q19 41 52.5 62.5t78.5 21.5h20z" />
    <glyph glyph-name="gbreve.alt" horiz-adv-x="696" 
d="M498 321q0 38 -13.5 62t-37 38t-54.5 19.5t-66 5.5q-34 0 -65.5 -5.5t-54.5 -19.5t-37 -38.5t-14 -62.5q0 -40 15 -64.5t39 -38t54.5 -18.5t61.5 -5q32 0 62.5 5t55 18.5t39.5 38.5t15 65zM125 -93q0 -36 24 -56t57 -29.5t66.5 -11t52.5 -1.5q30 0 68.5 2t73.5 12.5
t59 32t24 59.5q0 43 -29 57t-67 14h-224q-44 0 -74.5 -19t-30.5 -60zM655 559v-86q-32 0 -61 -4.5t-52 -30.5q20 -26 29.5 -57.5t9.5 -65.5q0 -55 -22 -92.5t-57.5 -60t-80.5 -32.5t-92 -10q-35 0 -77.5 5.5t-73.5 19.5q-14 -5 -25.5 -16.5t-11.5 -29.5q0 -22 17 -31t37 -9
h256q34 0 66.5 -7t58 -23.5t41.5 -44.5t16 -69q0 -58 -29.5 -93.5t-74 -55t-97 -26t-99.5 -6.5q-40 0 -90 3.5t-94 18.5t-74 45t-30 83q0 40 19 70.5t51 46.5q-26 14 -39.5 37t-13.5 49q0 34 19.5 57.5t46.5 35.5q-55 55 -55 141q0 56 21 94t55.5 61.5t79 34t91.5 10.5
q48 0 98.5 -10.5t85.5 -35.5q19 41 52.5 62.5t78.5 21.5h20zM457 724q0 -63 -38 -98.5t-103 -35.5q-50 0 -77.5 19t-41 43t-16 45.5t-2.5 26.5l44 14q0 -4 1.5 -20.5t10.5 -34.5t29 -32t56 -14q34 0 53 13t28 29.5t11 32.5t2 23v3z" />
    <glyph glyph-name="uni0123.alt" horiz-adv-x="696" 
d="M498 321q0 38 -13.5 62t-37 38t-54.5 19.5t-66 5.5q-34 0 -65.5 -5.5t-54.5 -19.5t-37 -38.5t-14 -62.5q0 -40 15 -64.5t39 -38t54.5 -18.5t61.5 -5q32 0 62.5 5t55 18.5t39.5 38.5t15 65zM125 -93q0 -36 24 -56t57 -29.5t66.5 -11t52.5 -1.5q30 0 68.5 2t73.5 12.5
t59 32t24 59.5q0 43 -29 57t-67 14h-224q-44 0 -74.5 -19t-30.5 -60zM655 559v-86q-32 0 -61 -4.5t-52 -30.5q20 -26 29.5 -57.5t9.5 -65.5q0 -55 -22 -92.5t-57.5 -60t-80.5 -32.5t-92 -10q-35 0 -77.5 5.5t-73.5 19.5q-14 -5 -25.5 -16.5t-11.5 -29.5q0 -22 17 -31t37 -9
h256q34 0 66.5 -7t58 -23.5t41.5 -44.5t16 -69q0 -58 -29.5 -93.5t-74 -55t-97 -26t-99.5 -6.5q-40 0 -90 3.5t-94 18.5t-74 45t-30 83q0 40 19 70.5t51 46.5q-26 14 -39.5 37t-13.5 49q0 34 19.5 57.5t46.5 35.5q-55 55 -55 141q0 56 21 94t55.5 61.5t79 34t91.5 10.5
q48 0 98.5 -10.5t85.5 -35.5q19 41 52.5 62.5t78.5 21.5h20zM279 571v94q0 49 11 83.5t44 66.5l36 -29q-26 -26 -34.5 -45.5t-8.5 -47.5v-18h49v-104h-97z" />
    <glyph glyph-name="gdotaccent.alt" horiz-adv-x="696" 
d="M498 321q0 38 -13.5 62t-37 38t-54.5 19.5t-66 5.5q-34 0 -65.5 -5.5t-54.5 -19.5t-37 -38.5t-14 -62.5q0 -40 15 -64.5t39 -38t54.5 -18.5t61.5 -5q32 0 62.5 5t55 18.5t39.5 38.5t15 65zM125 -93q0 -36 24 -56t57 -29.5t66.5 -11t52.5 -1.5q30 0 68.5 2t73.5 12.5
t59 32t24 59.5q0 43 -29 57t-67 14h-224q-44 0 -74.5 -19t-30.5 -60zM655 559v-86q-32 0 -61 -4.5t-52 -30.5q20 -26 29.5 -57.5t9.5 -65.5q0 -55 -22 -92.5t-57.5 -60t-80.5 -32.5t-92 -10q-35 0 -77.5 5.5t-73.5 19.5q-14 -5 -25.5 -16.5t-11.5 -29.5q0 -22 17 -31t37 -9
h256q34 0 66.5 -7t58 -23.5t41.5 -44.5t16 -69q0 -58 -29.5 -93.5t-74 -55t-97 -26t-99.5 -6.5q-40 0 -90 3.5t-94 18.5t-74 45t-30 83q0 40 19 70.5t51 46.5q-26 14 -39.5 37t-13.5 49q0 34 19.5 57.5t46.5 35.5q-55 55 -55 141q0 56 21 94t55.5 61.5t79 34t91.5 10.5
q48 0 98.5 -10.5t85.5 -35.5q19 41 52.5 62.5t78.5 21.5h20zM296 706h74v-79h-74v79z" />
    <glyph glyph-name="f_f_t" horiz-adv-x="1086" 
d="M1071 41q-26 -21 -57.5 -34t-65.5 -13q-51 0 -88 30t-37 83v329h-269v-435h-75v435h-283v-435h-74v435h-115v67h115v63q0 63 43 95.5t104 32.5q26 0 53 -6t53 -17l-25 -64q-18 10 -38.5 16.5t-43.5 6.5q-32 0 -52 -15.5t-20 -52.5v-59h283v75q0 63 43.5 95.5t103.5 32.5
q53 0 107 -23l-25 -63q-18 9 -38.5 15.5t-43.5 6.5q-32 0 -52 -15.5t-20 -52.5v-71h269v150h68v-150h151v-67h-151v-305q0 -32 14 -55.5t49 -23.5q26 0 46.5 11.5t39.5 25.5z" />
    <glyph glyph-name="f_t" horiz-adv-x="734" 
d="M719 41q-28 -22 -60 -34.5t-64 -12.5q-54 0 -90 31.5t-36 82.5v331h-271v-437h-75v437h-116v68h116v76q0 63 43.5 95.5t104.5 32.5q50 0 107 -23l-25 -64q-42 23 -83 23h-5q-67 -5 -67 -68v-72h271v151h68v-151h153v-68h-153v-307q0 -38 16 -59t49 -21q21 0 40 9t45 29z
" />
    <glyph glyph-name="zero.tf" horiz-adv-x="742" 
d="M386 -14q-84 0 -147 28t-105 77.5t-63 116t-21 143.5q0 76 21 142.5t63 116t105 78.5t147 29t147 -29t105 -78.5t63.5 -116.5t21.5 -142q0 -76 -21 -143t-63.5 -116t-105.5 -77.5t-147 -28.5zM387 56q65 0 112.5 25.5t78.5 66.5t45.5 94.5t14.5 108.5q0 56 -14.5 109
t-45.5 94.5t-78 67t-113 25.5t-113.5 -25.5t-78.5 -67t-46 -94.5t-15 -109t15 -109t46 -94.5t78.5 -66.5t113.5 -25z" />
    <glyph glyph-name="one.tf" horiz-adv-x="338" 
d="M40 581q74 16 119.5 45.5t73.5 74.5h61v-699h-79v572q-29 -24 -71 -39t-93 -21z" />
    <glyph glyph-name="two.tf" horiz-adv-x="681" 
d="M324 700q69 0 122.5 -19.5t90 -52.5t55.5 -76t19 -89t-37 -94.5t-91.5 -94t-117 -87t-113.5 -74.5l-68 -43h447v-70h-557v80l198 132q74 49 124.5 83.5t81 62.5t44 53.5t13.5 56.5q0 33 -13.5 62t-39.5 51.5t-62.5 35.5t-83.5 13q-95 0 -150.5 -36.5t-55.5 -112.5v-16
q0 -5 1 -11t5 -17l-90 23q0 52 19 96t54.5 76t87 50t117.5 18z" />
    <glyph glyph-name="three.tf" horiz-adv-x="688" 
d="M110 231q10 -92 71 -134.5t168 -42.5q45 0 83 10.5t66.5 30t44.5 47t16 61.5q0 68 -62.5 101.5t-174.5 33.5h-63v57h63q98 0 154 24.5t56 84.5q0 58 -51.5 94.5t-139.5 36.5q-33 0 -64 -6t-57 -20t-44.5 -38.5t-26.5 -60.5q-3 -9 -3 -22q0 -6 1 -8l-81 15q2 44 21.5 81.5
t55.5 65t86.5 43t114.5 15.5q123 0 190.5 -54.5t67.5 -139.5q0 -49 -26 -83.5t-90 -54.5q44 -6 73 -21.5t46 -38t24 -51t7 -61.5q0 -43 -21.5 -81t-59.5 -66.5t-90.5 -44.5t-114.5 -16q-149 0 -228.5 60.5t-85.5 172.5z" />
    <glyph glyph-name="four.tf" horiz-adv-x="670" 
d="M176 691h79q0 -56 -11.5 -117.5t-31 -122.5t-46.5 -117t-59 -100h333v309h76v-309h123v-63h-123v-171h-76v171h-410v56q33 46 59.5 102t46 117t30 123.5t10.5 121.5z" />
    <glyph glyph-name="five.tf" horiz-adv-x="698" 
d="M49 184l88 14q9 -31 26.5 -57.5t45 -45.5t65.5 -29.5t88 -10.5q45 0 85 13.5t69.5 38t47 59.5t17.5 78q0 82 -61.5 125t-165.5 43q-72 0 -123.5 -32t-77.5 -86l-75 9l22 385h500v-69h-423l-13 -217q36 35 83 56t117 21q64 0 118 -17.5t93 -49t61 -75.5t22 -96
q0 -39 -14 -83t-48.5 -82t-91 -63t-142.5 -25q-136 0 -212 51t-101 145z" />
    <glyph glyph-name="six.tf" horiz-adv-x="695" 
d="M41 315q0 189 87.5 287t255.5 98q94 0 158 -43t87 -109l-77 -24q-7 48 -53.5 79t-126.5 31q-115 0 -180.5 -72.5t-65.5 -224.5q31 51 94.5 80t148.5 29q62 0 114 -16.5t90 -46.5t59 -72t21 -93t-21.5 -93.5t-60 -73t-92 -47t-118.5 -16.5q-151 0 -235.5 86.5t-84.5 240.5
zM134 226q0 -39 18.5 -70.5t50 -54t74 -35t90.5 -12.5q45 0 83 11t66 31.5t43.5 50.5t15.5 68q0 41 -17 71.5t-46.5 51.5t-68 31.5t-80.5 10.5q-52 0 -94.5 -14.5t-72.5 -37t-46 -50t-16 -52.5z" />
    <glyph glyph-name="seven.tf" horiz-adv-x="671" 
d="M60 623v77h562v-58q-139 -152 -215 -311t-96 -331h-88q14 90 37 171t58 156.5t84.5 148t116.5 147.5h-459z" />
    <glyph glyph-name="eight.tf" horiz-adv-x="676" 
d="M35 195q0 66 46 110.5t131 62.5q-71 19 -107.5 61t-36.5 96q0 41 20 75t56 58t86 37.5t109 13.5t109 -13.5t86 -37.5t56 -57t20 -73q0 -54 -37 -96.5t-105 -60.5q78 -17 125.5 -64.5t47.5 -113.5q0 -45 -22 -82t-62 -64t-95.5 -42t-122.5 -15q-66 0 -122 15t-96.5 42
t-63 65t-22.5 83zM112 202q0 -34 17.5 -61t48 -45.5t71.5 -28t88 -9.5q48 0 90 10t72.5 28.5t48 46t17.5 62.5q0 66 -60 97.5t-163 31.5q-106 0 -168 -33t-62 -99zM147 523q0 -55 50 -88t142 -33t142 34t50 94q0 25 -17 46t-44.5 36t-61.5 23.5t-69 8.5q-87 0 -139.5 -31.5
t-52.5 -89.5z" />
    <glyph glyph-name="nine.tf" horiz-adv-x="695" 
d="M42 471q0 51 21.5 93t60 72.5t92.5 47t119 16.5q150 0 234.5 -86.5t84.5 -240.5q0 -189 -87.5 -287t-255.5 -98q-94 0 -158 43t-87 109l77 24q7 -48 53.5 -79t126.5 -31q115 0 180.5 72.5t65.5 224.5q-31 -51 -94.5 -80t-148.5 -29q-62 0 -114 16.5t-90 46.5t-59 72.5
t-21 93.5zM332 308q52 0 94.5 14.5t72.5 37.5t46 50.5t16 52.5q0 39 -18.5 70.5t-50 54t-74 34.5t-90.5 12q-45 0 -83 -11t-65.5 -31.5t-43 -50.5t-15.5 -68q0 -40 17 -71t46 -52t67.5 -31.5t80.5 -10.5z" />
    <glyph glyph-name="zero.dnom" horiz-adv-x="494" 
d="M247 -8q-54 0 -95 18.5t-68 50t-40.5 75t-13.5 92.5t13.5 92t41 75t68 50.5t94.5 18.5t94.5 -18.5t68 -50.5t41 -75t13.5 -92t-13.5 -92t-41 -75t-68 -50.5t-94.5 -18.5zM248 37q42 0 72.5 16.5t50.5 43t29.5 61t9.5 70.5t-9.5 70t-29 61t-50.5 43.5t-73 16.5
q-43 0 -74 -16.5t-51 -43t-29.5 -61t-9.5 -70.5t9.5 -70.5t29.5 -61.5t51 -43t74 -16z" />
    <glyph glyph-name="one.dnom" horiz-adv-x="254" 
d="M20 367q48 10 77.5 29t47.5 48h40v-452h-52v370q-18 -16 -46 -25.5t-60 -13.5z" />
    <glyph glyph-name="two.dnom" horiz-adv-x="453" 
d="M216 445q45 0 79.5 -12.5t58 -33.5t35.5 -48.5t12 -57.5q0 -25 -10 -46t-34 -43.5t-63.5 -50.5t-99.5 -68l-67 -46h287v-45h-358v52l127 85q48 31 80 53.5t52 40.5t28.5 34.5t8.5 36.5q0 42 -35 73t-102 31q-54 0 -88.5 -23.5t-34.5 -72.5v-7q-1 -6 3 -21l-57 15
q0 66 46.5 110t131.5 44z" />
    <glyph glyph-name="three.dnom" horiz-adv-x="453" 
d="M78 135q6 -60 44.5 -88t101.5 -28q64 0 104 26t40 71t-40.5 66.5t-112.5 21.5h-41v37h41q63 0 99 16t36 54t-33 61.5t-90 23.5q-42 0 -77.5 -16.5t-46.5 -63.5q-2 -8 -2 -15q0 -4 1 -5l-53 9q3 57 50 95t130 38q79 0 123 -35t44 -90q0 -32 -17 -54.5t-58 -35.5
q57 -8 77 -38t20 -73q0 -28 -14 -52.5t-38.5 -42.5t-58.5 -28t-74 -10q-96 0 -147.5 38.5t-55.5 110.5z" />
    <glyph glyph-name="four.dnom" horiz-adv-x="430" 
d="M106 436h51q0 -36 -7.5 -76t-20 -79t-30 -75t-38.5 -65h216v200h48v-200h80v-41h-80v-110h-48v110h-265v37q21 29 38.5 65.5t29.5 75.5t19 79.5t7 78.5z" />
    <glyph glyph-name="five.dnom" horiz-adv-x="464" 
d="M51 114l57 9q12 -41 46 -67t100 -26q59 0 100.5 33t41.5 90q0 54 -39.5 81.5t-107.5 27.5q-47 0 -80.5 -21t-50.5 -56l-48 6l14 250h325v-45h-275l-9 -141q24 23 54.5 36.5t76.5 13.5q41 0 76 -11.5t60.5 -32t40 -48.5t14.5 -62q0 -25 -9.5 -54t-31.5 -53.5t-59 -41
t-93 -16.5q-88 0 -137.5 33t-65.5 95z" />
    <glyph glyph-name="six.dnom" horiz-adv-x="458" 
d="M30 192q0 123 57 186t166 63q61 0 103 -27.5t57 -70.5l-50 -15q-5 31 -35 51t-78 20q-78 0 -120 -47t-45 -146q20 32 61.5 51.5t95.5 19.5q82 0 134 -40.5t52 -105.5q0 -69 -52.5 -110.5t-139.5 -41.5q-97 0 -151.5 56.5t-54.5 156.5zM91 134q0 -25 12 -45.5t32 -35.5
t48 -23t59 -8q59 0 97.5 28t37.5 81q-1 50 -42 76.5t-101 26.5q-32 0 -58.5 -9.5t-45 -24.5t-29 -32.5t-10.5 -33.5z" />
    <glyph glyph-name="seven.dnom" horiz-adv-x="411" 
d="M15 396v50h366v-38q-91 -98 -140 -202t-62 -216h-58q9 59 24.5 111.5t38.5 102t55 97t75 95.5h-299z" />
    <glyph glyph-name="eight.dnom" horiz-adv-x="456" 
d="M32 112q0 43 29.5 72t84.5 41q-46 13 -69.5 40.5t-23.5 62.5q0 53 49 86t127 33q77 0 125.5 -33t48.5 -84q0 -35 -24 -62.5t-67 -40.5q50 -11 81 -42t31 -74q0 -58 -54.5 -93t-140.5 -35q-43 0 -79 9t-62.5 26t-41 41t-14.5 53zM81 116q0 -45 42 -69t104 -24
q63 0 104.5 25t41.5 71q0 42 -38 62.5t-104 20.5q-69 0 -109.5 -21.5t-40.5 -64.5zM104 326q0 -35 32.5 -56.5t92.5 -21.5q59 0 91 21t32 54q0 19 -11 34.5t-29.5 26t-42 16t-49.5 5.5q-50 0 -83 -20.5t-33 -58.5z" />
    <glyph glyph-name="nine.dnom" horiz-adv-x="458" 
d="M30 294q0 32 14 58.5t39 45.5t60.5 30t77.5 11q97 0 152 -57.5t55 -161.5t-57 -162.5t-166 -58.5q-61 0 -102.5 27t-56.5 67l50 15q5 -29 35 -48t82 -19q75 0 116 43.5t44 134.5q-20 -28 -61.5 -45.5t-97.5 -17.5q-40 0 -73.5 10t-58 28t-38.5 43.5t-14 56.5zM81 292
q1 -50 41.5 -73t96.5 -23q68 0 108.5 29t40.5 69q0 21 -12 40t-32.5 32.5t-48 21.5t-59.5 8q-59 0 -97.5 -27.5t-37.5 -76.5z" />
    <glyph glyph-name="zero.numr" horiz-adv-x="495" 
d="M248 246q-54 0 -95 18t-68 50t-40.5 75t-13.5 92t13.5 92t41 75.5t68 51t94.5 18.5t94.5 -18.5t68 -51t41 -75.5t13.5 -92t-13.5 -92t-40.5 -74.5t-68 -50t-95 -18.5zM249 291q42 0 72.5 16.5t50.5 43t29.5 60.5t9.5 70t-9.5 70.5t-29 61.5t-50.5 43.5t-73 16.5
q-43 0 -74 -16.5t-51 -43.5t-29.5 -61.5t-9.5 -70.5t9.5 -70t30 -61t51.5 -43t73 -16z" />
    <glyph glyph-name="one.numr" horiz-adv-x="250" 
d="M38 633q48 10 77.5 29.5t47.5 48.5h40v-455h-52v372q-18 -15 -46 -25t-60 -14z" />
    <glyph glyph-name="two.numr" horiz-adv-x="454" 
d="M40 555q0 67 47.5 111t132.5 44q45 0 80 -13t58.5 -34t36 -49t12.5 -58q0 -25 -10 -46t-34.5 -43.5t-65 -51t-100.5 -69.5l-67 -45h290v-45h-362v52l130 86q48 32 80.5 54t52.5 40t28.5 35t8.5 37q0 42 -35.5 73t-104.5 31q-54 0 -89 -23t-35 -73v-4q0 -5 0.5 -10
t3.5 -15z" />
    <glyph glyph-name="three.numr" horiz-adv-x="456" 
d="M30 398l49 6q6 -60 44.5 -87.5t101.5 -27.5q66 0 106 26t40 71t-41 66.5t-114 21.5h-41v37h41q64 0 100.5 16t36.5 55q0 38 -33.5 62t-90.5 24q-43 0 -78.5 -17t-46.5 -65q-1 0 -1 -2q0 -3 -1 -4v-13l-52 9q2 57 49.5 95.5t131.5 38.5q80 0 124 -35t44 -91
q0 -32 -17 -54.5t-59 -36.5q58 -8 78 -38.5t20 -73.5q0 -28 -14 -52.5t-39 -43t-59 -29t-74 -10.5q-97 0 -149 39.5t-56 112.5z" />
    <glyph glyph-name="four.numr" horiz-adv-x="431" 
d="M106 713h51q0 -36 -7 -76t-20 -79t-30.5 -75.5t-37.5 -65.5h215v201h49v-201h80v-41h-80v-110h-49v110h-265v37q21 30 38.5 66t30 75.5t19 80t6.5 78.5z" />
    <glyph glyph-name="five.numr" horiz-adv-x="432" 
d="M12 381l57 9q12 -41 45 -67t93 -26q64 0 106.5 33t42.5 90q0 54 -38.5 82t-98.5 28q-54 0 -88.5 -21t-51.5 -56l-48 5l14 250h324v-45h-274l-9 -140q24 23 54.5 36.5t75.5 13.5q42 0 77 -11.5t60.5 -32t39.5 -48.5t14 -62q0 -25 -9.5 -54t-32.5 -53.5t-62 -40.5t-98 -16
q-81 0 -129 32.5t-64 93.5z" />
    <glyph glyph-name="six.numr" horiz-adv-x="458" 
d="M30 460q0 124 57 187t166 63q61 0 103 -28t57 -70l-50 -16q-5 32 -35 52t-78 20q-78 0 -120 -47t-45 -146q20 32 61.5 51.5t95.5 19.5q82 0 134 -40.5t52 -105.5q0 -69 -52.5 -111t-139.5 -42q-97 0 -151.5 56.5t-54.5 156.5zM91 402q0 -25 12 -45.5t32 -35t48 -22.5
t59 -8q59 0 97.5 27.5t37.5 81.5q-1 49 -42 76t-101 27q-32 0 -58.5 -9.5t-45 -24.5t-29 -32.5t-10.5 -34.5z" />
    <glyph glyph-name="seven.numr" horiz-adv-x="410" 
d="M15 656v50h365v-38q-91 -98 -140 -201t-62 -215h-57q9 59 24 111t38 101t55 96.5t75 95.5h-298z" />
    <glyph glyph-name="eight.numr" horiz-adv-x="458" 
d="M32 376q0 43 30 72t85 41q-47 12 -70.5 39.5t-23.5 62.5q0 53 49.5 86t127.5 33q38 0 70.5 -8.5t55.5 -24.5t36 -37t13 -47q0 -35 -24 -63t-68 -39q50 -11 81.5 -42t31.5 -75q0 -29 -14.5 -53t-40.5 -41.5t-62 -27t-79 -9.5t-79.5 9.5t-63 27t-41 42t-14.5 54.5zM81 380
q0 -45 42.5 -69t104.5 -24q63 0 104.5 25t41.5 71q0 42 -38 63t-104 21q-69 0 -110 -22t-41 -65zM105 589q0 -35 32.5 -56.5t92.5 -21.5q59 0 91.5 21t32.5 53q0 20 -11 35t-30 26t-42.5 16.5t-49.5 5.5q-50 0 -83 -20.5t-33 -58.5z" />
    <glyph glyph-name="nine.numr" horiz-adv-x="460" 
d="M30 567q0 33 14 61.5t39 48.5t60.5 31.5t77.5 11.5q98 0 153.5 -58.5t55.5 -159.5q0 -124 -57.5 -187.5t-166.5 -63.5q-61 0 -103 28t-57 71l50 16q5 -32 35 -52t83 -20q75 0 117.5 47t42.5 147q-20 -33 -61.5 -52t-96.5 -19q-40 0 -74.5 11t-59 30.5t-38.5 47t-14 61.5z
M219 460q34 0 62 9.5t47.5 24.5t30 33t10.5 34q0 26 -12 47t-32.5 36t-48 23t-59.5 8q-60 0 -98 -28.5t-38 -79.5q0 -26 11.5 -46t30.5 -33.5t44 -20.5t52 -7z" />
    <glyph glyph-name="backslash.case" horiz-adv-x="465" 
d="M85 740l370 -1041h-74l-371 1041h75z" />
    <glyph glyph-name="periodcentered.case" horiz-adv-x="211" 
d="M58 394h95v-102h-95v102z" />
    <glyph glyph-name="bullet.case" horiz-adv-x="403" 
d="M65 382q0 29 10.5 54t29.5 43.5t44 29t53 10.5t53 -10.5t43.5 -29t29 -43.5t10.5 -54t-10.5 -54t-29 -43.5t-43.5 -29t-53 -10.5t-53 10.5t-44 29t-29.5 43.5t-10.5 54z" />
    <glyph glyph-name="exclamdown.case" horiz-adv-x="235" 
d="M70 -1l18 523h59l18 -523h-95zM70 598v102h95v-102h-95z" />
    <glyph glyph-name="questiondown.case" horiz-adv-x="650" 
d="M35 202q0 39 12 66t33 46.5t48.5 33.5t58.5 28l44 20q30 15 46.5 28.5t25 29t10.5 35t2 45.5v21h95v-28q0 -31 -3 -57.5t-13.5 -49t-30.5 -40.5t-55 -33l-31 -11q-85 -32 -122.5 -64.5t-37.5 -75.5q0 -34 19.5 -59.5t49 -43t63 -26.5t60.5 -9q30 0 67.5 11t69.5 31
t54 47.5t22 61.5q0 10 -4 34l-2 14l92 -30q1 -7 1.5 -13.5t0.5 -14.5q0 -52 -27.5 -92.5t-69.5 -68.5t-92.5 -42.5t-96.5 -14.5q-50 0 -101.5 12.5t-93 39t-68 68.5t-26.5 101zM315 700h95v-98h-95v98z" />
    <glyph glyph-name="slash.case" horiz-adv-x="465" 
d="M455 740l-371 -1041h-74l370 1041h75z" />
    <glyph glyph-name="braceleft.case" horiz-adv-x="416" 
d="M360 -134q-207 0 -207 193v55q0 47 -4.5 75.5t-18 44t-37.5 21t-63 7.5v71q39 2 63 8t37.5 21.5t18 43.5t4.5 75v55q0 194 207 194h31v-64h-33q-37 0 -61.5 -7t-39.5 -24t-21 -45t-6 -70v-46q0 -43 -6 -73t-19 -50.5t-34 -33t-52 -18.5v-2q31 -6 52 -18.5t34 -33t19 -51
t6 -73.5v-46q0 -42 6 -69.5t21 -44.5t39.5 -24t61.5 -7h33v-64h-31z" />
    <glyph glyph-name="braceright.case" horiz-adv-x="416" 
d="M25 -134v64h33q36 0 60.5 7t39.5 24t21.5 44.5t6.5 69.5v46q0 86 24.5 124.5t85.5 51.5v2q-61 13 -85.5 51.5t-24.5 123.5v46q0 42 -6.5 70t-21.5 45t-39.5 24t-60.5 7h-33v64h30q208 0 208 -194v-55q0 -47 4.5 -75t18 -43.5t37.5 -21.5t63 -8v-71q-39 -2 -63 -7.5
t-37.5 -21t-18 -44t-4.5 -75.5v-55q0 -193 -208 -193h-30z" />
    <glyph glyph-name="bracketleft.case" horiz-adv-x="288" 
d="M263 732v-61h-117v-718h117v-61h-178v840h178z" />
    <glyph glyph-name="bracketright.case" horiz-adv-x="288" 
d="M203 732v-840h-178v61h117v718h-117v61h178z" />
    <glyph glyph-name="parenleft.case" horiz-adv-x="326" 
d="M231 -150q-196 224 -196 445q0 111 48.5 222t147.5 223h70q-81 -106 -130.5 -216t-49.5 -229t49.5 -228.5t130.5 -216.5h-70z" />
    <glyph glyph-name="parenright.case" horiz-adv-x="327" 
d="M25 -150q82 107 131 216.5t49 228.5t-49 229t-131 216h71q99 -112 147.5 -223t48.5 -222q0 -221 -196 -445h-71z" />
    <glyph glyph-name="emdash.case" horiz-adv-x="895" 
d="M0 344h895v-75h-895v75z" />
    <glyph glyph-name="endash.case" horiz-adv-x="592" 
d="M0 344h592v-75h-592v75z" />
    <glyph glyph-name="hyphen.case" horiz-adv-x="360" 
d="M40 388h280v-72h-280v72z" />
    <glyph glyph-name="guillemotleft.case" horiz-adv-x="572" 
d="M265 88l-235 228v12l235 228l47 -48l-193 -186l193 -186zM483 88l-235 228v12l235 228l47 -48l-193 -186l193 -186z" />
    <glyph glyph-name="guillemotright.case" horiz-adv-x="572" 
d="M235 322l-193 186l47 48l235 -228v-12l-235 -228l-47 48zM453 322l-193 186l47 48l235 -228v-12l-235 -228l-47 48z" />
    <glyph glyph-name="guilsinglleft.case" horiz-adv-x="354" 
d="M265 88l-235 228v12l235 228l47 -48l-193 -186l193 -186z" />
    <glyph glyph-name="guilsinglright.case" horiz-adv-x="354" 
d="M42 136l193 186l-193 186l47 48l235 -228v-12l-235 -228z" />
    <glyph glyph-name="at.case" horiz-adv-x="1002" 
d="M50 322q0 103 34.5 188t96 145.5t147 93.5t187.5 33q96 0 176.5 -29.5t138 -84t90 -131.5t32.5 -173q0 -40 -7 -86.5t-25 -86t-48.5 -65.5t-77.5 -26q-18 0 -39.5 4.5t-41 13.5t-33.5 22.5t-17 31.5h-4q-21 -24 -49 -39t-59.5 -23.5t-64.5 -11.5t-63 -3q-27 0 -62 5.5
t-66.5 19.5t-53.5 37t-22 59q0 45 22.5 72t59 42t81.5 22t90 11q37 4 71.5 8.5t60.5 13.5t42 24.5t16 40.5v9q0 25 -18 39.5t-43 22.5t-52.5 10.5t-45.5 2.5q-69 0 -118 -25.5t-92 -82.5l-55 76q56 48 121.5 76t139.5 28q44 0 85.5 -7.5t74.5 -27t53 -53t20 -85.5v-208
q0 -27 18 -48t46 -21q30 0 47 23t25.5 54.5t11 63.5t2.5 51q0 82 -25 150t-71.5 117t-112.5 76t-148 27q-87 0 -161.5 -30.5t-128.5 -84t-84.5 -126t-30.5 -157.5q0 -88 32 -154.5t87 -111.5t127 -67.5t153 -22.5q60 0 119 12t116 32l27 -61q-62 -27 -128.5 -39.5
t-133.5 -12.5q-99 0 -184.5 27t-149 80.5t-99.5 133.5t-36 186zM439 149q27 0 65.5 10t73.5 28t59.5 43.5t24.5 55.5v57q-25 -12 -59.5 -19t-97.5 -14l-51 -5q-86 -8 -118.5 -24t-32.5 -50q0 -26 14 -42t35 -25t44.5 -12t42.5 -3z" />
    <glyph glyph-name="uni0308.case" 
d="M-142 838h82v-88h-82v88zM59 750v88h82v-88h-82z" />
    <glyph glyph-name="uni0307.case" 
d="M-37 846h73v-79h-73v79z" />
    <glyph glyph-name="gravecomb.case" 
d="M4 757l93 -171h-70l-123 171h100z" />
    <glyph glyph-name="acutecomb.case" 
d="M97 757l-124 -171h-69l93 171h100z" />
    <glyph glyph-name="uni030B.case" 
d="M-3 757h100l-124 -171h-69z" />
    <glyph glyph-name="uni0302.case" 
d="M-44 890h85l119 -141h-69l-92 83l-93 -83h-69z" />
    <glyph glyph-name="uni030C.case" horiz-adv-x="1" 
d="M-161 890h69l93 -83l92 83h69l-119 -141h-85z" />
    <glyph glyph-name="uni0306.case" horiz-adv-x="1" 
d="M-94 878q0 -4 1.5 -20t10.5 -34t28.5 -32.5t56.5 -14.5q34 0 53 13t28 29.5t10.5 32.5t1.5 23v3l43 -14q0 -5 -2.5 -26.5t-16 -45.5t-41.5 -43t-79 -19t-79 19t-41.5 43t-16 45.5t-2.5 26.5z" />
    <glyph glyph-name="uni030A.case" 
d="M0 563q-30 0 -52 10.5t-37 27t-22.5 38.5t-7.5 44q0 23 7.5 44.5t22.5 38t37 27t52 10.5t52.5 -10.5t37 -27t22 -38t7.5 -44.5q0 -22 -7.5 -44t-22 -38.5t-37 -27t-52.5 -10.5zM0 618q32 0 48.5 20t16.5 45t-16.5 47t-48.5 22t-48 -22t-16 -47t16 -45t48 -20z" />
    <glyph glyph-name="tildecomb.case" 
d="M-82 868q24 0 48.5 -7.5t47.5 -20.5q27 -15 43.5 -18t21.5 -3q24 0 28.5 17.5t4.5 37.5h63v-13q2 -46 -16.5 -75t-62.5 -29q-20 0 -39 5.5t-39 13.5h-1q-1 0 -2 1q-2 0 -6 2l-30 11q-17 7 -32.5 11.5t-26.5 5.5q-17 0 -24.5 -12t-11.5 -44h-60q-1 22 3.5 43t15 37.5
t29 26.5t46.5 10z" />
    <glyph glyph-name="uni0304.case" 
d="M-138 832h276v-66h-276v66z" />
    <glyph glyph-name="uni0326.case" 
d="M49 -306v-94q0 -49 -11 -83.5t-45 -66.5l-36 29q26 26 35 45.5t9 47.5v18h-50v104h98z" />
    <glyph glyph-name="uni0327.case" 
d="M-710 -168q40 -6 65 -6q19 0 40 6.5t21 30.5q0 18 -18 26q-21 8 -65 8h-19l33 107l59 -5l-17 -51q97 -15 97 -92q0 -92 -125 -92q-17 0 -35.5 1.5t-37.5 5.5l-3 1v61z" />
    <glyph glyph-name="uni0328.case" horiz-adv-x="1" 
d="M-25 1h94q-4 -2 -19.5 -11t-33 -24.5t-31.5 -37t-14 -48.5q0 -8 1 -12q4 -26 19.5 -35t34.5 -9q24 0 45.5 8t24.5 10l7 -56q-14 -8 -39 -15t-53 -7q-21 0 -41.5 5t-36 16.5t-25.5 30.5t-10 47q0 42 22 78t55 60z" />
  </font>
</defs>
</svg>
